<svg width="1920" height="925" viewBox="0 0 1920 925" fill="none" xmlns="http://www.w3.org/2000/svg">
<path d="M2009.5 0.500029L2356.77 707.219L2352.88 708.928C2352.88 708.928 2350.76 707.926 2349.55 708.019C2347.78 708.428 2347.66 706.949 2346.26 707.071C2344.86 707.193 2345.15 708.132 2344.06 708.182C2342.97 708.232 2342.92 707.206 2341.83 707.224C2340.73 707.242 2340.72 708.316 2339.62 708.302C2334.71 708.296 2327.58 705.624 2321.87 707.877C2321.21 708.03 2320.67 709.524 2319.68 709.955C2318.68 710.386 2317.52 710.454 2316.28 711.108C2315.69 711.412 2316.49 712.03 2315.17 712.168C2313.84 712.305 2313.99 711.169 2312.94 711.243C2311.89 711.316 2307.97 712.89 2305.15 713.508C2304.87 713.572 2303.17 713.328 2302.93 713.582C2301.35 715.454 2300.5 711.464 2298.53 713.694C2297.03 715.447 2295.15 713.335 2291.86 714.963C2290.93 713.47 2290.21 711.763 2287.52 712.015C2286.55 709.258 2283.65 713.176 2281.99 713.29C2280.46 716.188 2277.41 709.324 2275.35 712.477C2273.95 710.858 2273.41 712.29 2270.94 711.619C2270.55 711.477 2270.97 710.639 2269.83 710.602C2266.89 710.544 2266.97 707.546 2264.3 707.727C2264.09 707.775 2263.21 709.05 2262.1 708.837C2261.85 708.894 2261.88 707.882 2260.98 707.82C2256.88 707.512 2252.82 706.963 2248.81 706.175C2247.74 707.012 2246.5 707.647 2245.18 708.039C2243.85 708.431 2242.46 708.573 2241.1 708.457C2239.56 708.434 2238.05 708.145 2236.65 707.607C2236.65 707.607 2236.75 706.582 2236.63 706.574C2234.99 705.949 2232.89 706.231 2231.12 705.702C2230.88 705.758 2230.73 704.015 2230.01 703.715C2228.53 703.185 2225.78 705.091 2225.55 704.741C2224.86 703.963 2224.74 702.789 2223.33 702.712C2222.4 699.812 2220.55 704.157 2217.81 702.914C2217.08 700.872 2212.6 702.407 2212.27 700.039C2210.91 699.349 2210.42 701.068 2210.07 701.116C2207.43 701.726 2207.94 699.999 2205.63 699.192C2205.28 699.273 2203.68 699.641 2203.42 699.267C2202.69 698.498 2201.56 698.993 2199.01 698.409C2197.89 698.165 2196.59 696.993 2194.59 697.521C2193.74 697.6 2192.91 697.835 2192.15 698.212C2191.38 698.589 2190.7 699.099 2190.15 699.715C2188.86 700.648 2188.09 702.034 2186.78 702.904C2186.4 702.992 2185.32 701.8 2184.58 701.905C2182.21 702.45 2184.09 706.136 2180.16 706.271C2177.35 707.724 2174.69 706.06 2172.43 705.476C2172.05 705.398 2172.22 704.554 2171.33 704.492C2171.05 704.556 2170.46 704.691 2170.21 704.549C2165.51 703.612 2160.65 703.41 2155.82 703.949C2154.13 704.103 2153.79 705.154 2152.43 705.132C2151.07 705.111 2151.34 704.077 2150.23 704.166C2145.77 704.324 2141.31 704.815 2136.91 705.633C2136.07 705.733 2135.28 706.106 2134.69 706.68C2134.69 706.68 2134.23 708.462 2133.58 707.74C2132.01 705.993 2133.44 708.209 2132.47 708.799C2131.51 709.389 2129.99 708.534 2129.17 708.925C2128.34 709.317 2129.38 709.847 2128.06 709.985C2126.73 710.122 2126.52 711.879 2125.77 712.119C2125.02 712.359 2123.32 710.407 2122.47 711.172C2122.47 711.172 2122.5 712.103 2122.48 712.174C2116.17 712.895 2112.29 712.917 2109.18 709.584C2107.96 709.864 2108.25 711.438 2108.1 712.679L2103.66 712.799C2102.54 709.708 2102.54 715.735 2101.41 715.928C2099.51 714.357 2094.57 715.665 2093.73 713.115C2090.17 713.567 2090.7 713.811 2088.13 713.299C2086.3 713.089 2084.44 713.148 2082.6 713.47C2082.03 714.004 2082.98 715.893 2082.61 716.514C2082.24 717.135 2080.22 718.874 2080.35 720.687C2076.1 720.997 2075.97 725.043 2072.61 726.02C2070.45 724.911 2068.32 727.444 2067.08 727.295C2066.43 727.177 2065.98 725.539 2064.86 725.327C2062.79 724.902 2061.39 726.129 2059.3 726.61C2058.14 726.914 2057.01 727.312 2055.91 727.796C2055.02 728.235 2054.35 729.595 2053.69 729.915C2053.03 730.234 2052.92 728.954 2052.58 728.93C2052.25 728.907 2051.3 731.94 2049.4 731.005C2045.31 731.53 2041.18 731.347 2037.23 730.465C2036.28 731.15 2036.1 731.928 2034.96 732.558C2034.54 732.655 2033.08 732.324 2032.75 732.666C2032.43 733.009 2032.96 733.589 2032.76 733.669C2031.54 734.22 2027.18 732.479 2028.32 735.832C2021.96 736.203 2015.62 735.714 2009.49 734.383C2007.04 733.942 2005.11 733.016 2002.88 732.559C1999.56 731.818 1995.75 732.461 1990.74 732.01C1987.1 731.219 1983.26 731.342 1979.61 732.366C1979.02 732.502 1977.83 734.319 1977.39 734.487C1976.04 734.8 1974.37 734.246 1972.99 734.599C1973 733.557 1971.59 733.948 1970.79 733.663C1969.99 733.379 1968.21 733.257 1966.34 732.783C1964.47 732.31 1962.26 730.977 1960.82 730.908C1960.82 730.908 1958.42 732.902 1957.42 732.061C1957.42 732.061 1957.52 731.066 1957.41 731.058C1954.81 730.967 1952.23 730.702 1949.68 730.264C1949.07 730.138 1948.58 729.28 1948.58 729.28C1945.17 728.793 1941.08 729.635 1938.6 728.598C1938.04 728.361 1938.77 727.59 1937.5 727.616C1936.87 727.572 1936.27 727.395 1935.75 727.099C1935.22 726.803 1934.78 726.395 1934.46 725.908C1934.13 725.422 1933.94 724.869 1933.89 724.293C1933.85 723.717 1933.94 723.136 1934.18 722.59C1931.92 721.411 1930.04 719.714 1928.72 717.655C1924.61 715.723 1923.28 720.279 1918.73 718.014C1916.32 716.173 1913.73 714.532 1911 713.102C1904.55 713.62 1898.11 712.817 1892.15 710.754C1888.19 712.471 1891.36 707.318 1888.82 707.768C1885.57 706.997 1882.12 707.111 1878.86 708.092C1877.44 708.027 1876.11 707.498 1875.11 706.603C1874.1 705.707 1873.49 704.5 1873.37 703.195C1869.03 705.637 1870.56 701.771 1867.83 700.29C1867.54 701.395 1865.29 700.874 1864.44 701.44C1863.17 702.635 1863.57 701.036 1861.12 701.534C1861.12 701.534 1860.57 702.467 1860.01 702.596C1859.46 702.724 1858.52 702.47 1857.8 702.671C1857.07 702.871 1856.89 703.65 1856.69 703.73C1855.82 703.931 1855.48 702.77 1855.58 702.746C1853.95 703.123 1853.64 703.394 1852.18 703.866C1851.79 703.954 1852.28 705.114 1851.07 704.925C1850.89 704.965 1850.99 703.47 1849.96 703.941C1848.01 704.918 1846.44 706.458 1845.51 708.315C1843.14 708.741 1840.85 709.51 1838.71 710.588C1838.29 710.902 1837.9 711.26 1837.56 711.656C1833.38 712.889 1828.99 712.093 1824.32 713.136C1822.06 716.202 1818.1 717.92 1812.09 717.598C1810.73 714.563 1805.87 720.337 1805.48 715.774C1803.08 715.524 1802.77 712.449 1799.96 711.858C1798.5 711.558 1796.76 712.595 1796.6 710.957C1796.44 709.319 1792.74 708.5 1791.14 708.066C1789.54 707.632 1787.13 708.322 1787.76 706.134C1786.54 705.143 1782.72 708.902 1782.23 708.346C1782.03 707.99 1781.71 707.709 1781.31 707.541C1780.92 707.372 1780.47 707.328 1780.04 707.413C1780.04 707.413 1778.58 710.159 1777.81 709.532C1777.44 709.093 1776.92 708.77 1776.34 708.601C1775.75 708.433 1775.12 708.427 1774.52 708.585C1772.83 709.654 1770.94 710.418 1768.96 710.838C1768.96 710.838 1767.77 709.472 1766.76 709.872C1766.31 709.976 1766.81 710.865 1765.65 710.931C1764.49 710.997 1763.19 709.96 1761.23 710.043C1761.23 710.043 1760.8 711.045 1760.12 711.102C1759.44 711.159 1759.04 710.881 1759.01 710.118C1754.78 710.492 1753.6 713.477 1750.13 714.478C1745.83 715.202 1745.64 712.163 1742.37 711.645C1738.89 710.371 1735.68 714.394 1734.63 711.891C1729.3 711.334 1724.1 710.138 1719.16 708.329C1717.34 708.412 1715.51 708.398 1713.63 708.497C1712.51 709.191 1712.49 710.869 1710.45 710.602C1708.16 709.724 1706.12 708.656 1703.82 707.746C1701.24 710.351 1698.29 707.749 1696.08 707.992C1695.24 708.184 1694.9 710.172 1692.69 710.145C1691.86 710.337 1690.98 708.766 1689.37 709.238C1685.55 709.651 1691.39 713.726 1688.27 713.374C1687.23 713.205 1686.15 713.321 1685.16 713.71C1684.17 714.099 1683.32 714.745 1682.7 715.564C1678.49 716.232 1681.02 722.915 1677.3 723.908C1675.54 726.154 1672.7 725.269 1670.72 727.133C1670.26 727.54 1668.03 729.461 1667.55 729.271C1667.06 729.081 1667.53 727.935 1666.44 728.287C1665.88 728.415 1666.96 730.543 1665.35 730.379C1665.35 730.379 1664.99 728.821 1664.24 729.395C1663.82 729.491 1663.32 732.689 1661.97 733.535C1661.37 733.91 1659.94 732.194 1658.66 733.628C1658.4 733.923 1659.97 735.003 1659.78 735.615C1659.59 736.228 1657.64 736.342 1657.56 737.734C1657.48 739.126 1656.18 738.587 1655.28 738.828C1649.41 739.412 1647.6 737.253 1644.22 740.241C1640.66 741.632 1643.49 737.062 1639.82 738.309C1638.15 734.075 1633.43 740.287 1627.64 738.708C1627.06 737.135 1626.5 738.67 1626.53 739.768C1623.41 739.75 1624.75 741.418 1622.1 739.92C1621.3 739.431 1620.4 739.101 1619.44 738.952C1618.49 738.803 1617.5 738.839 1616.55 739.056C1615.54 739.288 1614.6 740.746 1614.34 739.164C1611.41 740.609 1610.93 742.63 1612.1 745.34C1611.35 745.109 1610.53 745.082 1609.74 745.263C1608.95 745.445 1608.23 745.828 1607.65 746.366C1607.17 746.812 1606.98 749.165 1606.49 749.444C1604.6 750.784 1600.46 750.3 1598.74 752.808C1597.96 754.861 1596.65 752.651 1595.42 752.868C1593.12 753.398 1593.74 754.194 1592.24 754.976C1589.73 756.404 1587.48 758.2 1585.59 760.291C1584.41 761.295 1583.28 762.36 1582.22 763.479C1581.94 763.846 1582.63 765.225 1582.22 765.52C1581.81 765.815 1579.78 765.28 1580.02 766.631C1578.26 766.3 1578.09 767.781 1576.62 767.784C1576.02 767.721 1575.1 766.394 1574.42 766.785C1573.11 767.487 1572.1 768.794 1572.17 771.958C1568.81 771.36 1568.16 773.152 1565.53 773.189C1564.23 771.545 1563.16 773.733 1562.13 774.339C1561.79 774.618 1561.34 776.297 1561 776.409C1558.81 777.415 1558 776.264 1556.55 777.603C1555.1 778.941 1554.15 778.156 1552.1 778.629C1550.04 779.102 1544.49 780.115 1541.07 781.172C1540.59 781.284 1539.73 782.184 1539.93 782.239C1537.05 782.3 1537.96 778.139 1534.41 780.397C1533.25 781.128 1531.89 781.54 1530.51 781.58C1529.13 781.619 1527.78 781.286 1526.62 780.621C1525.36 780.377 1526.09 782.282 1525.53 782.713C1524.97 783.143 1523.77 782.383 1523.34 782.75C1522.36 783.547 1523.73 784.434 1522.22 784.85C1521.66 784.978 1520.48 784.617 1520 784.928C1519.52 785.239 1519.23 786.811 1518.9 786.987C1515.66 788.335 1512.32 789.463 1508.91 790.363C1507.93 789.784 1506.92 789.184 1506.69 790.44C1504.75 791.343 1502.9 792.419 1501.17 793.655C1497.76 794.743 1497.49 791.659 1493.35 792.948C1493.04 793.02 1492 793.894 1492.26 793.933C1489.94 794.033 1489.39 793.056 1487.82 793.083C1486.25 793.11 1485.54 794.479 1483.37 794.11C1483.37 794.11 1483.14 793.125 1482.25 793.095C1480.34 793.349 1478.4 793.059 1476.72 792.264C1474.3 790.768 1471.72 789.488 1469.02 788.445C1467.39 787.883 1466.12 788.245 1464.56 787.532C1464.08 787.343 1462.74 785.677 1462.39 785.558C1460.7 785.212 1458.56 785.939 1456.87 785.76C1455.18 785.58 1454.86 784.85 1453.54 784.82C1452.21 784.791 1448.76 787.46 1446.89 785.078C1446.64 785.405 1444.5 788.981 1442.44 789.255C1440.38 789.53 1442 792.3 1440.23 792.407C1439.86 792.384 1439.48 792.405 1439.11 792.466C1438.73 792.554 1434.9 795.48 1434.59 793.509C1429.81 795.013 1430.62 791.076 1427.96 790.652C1427.41 792.219 1426.84 790.709 1426.93 789.652C1425.67 789.94 1426.15 791.672 1424.63 791.786C1420.12 791.923 1420.7 787.572 1416.98 786.855C1417.44 786.95 1416.15 787.884 1415.83 787.893C1414.62 787.903 1415.1 786.954 1414.75 786.867C1411.95 786.507 1408.28 788.359 1404.73 788.207C1401.18 788.055 1399.56 786.755 1395.86 786.436C1394.19 786.821 1395.88 787.469 1395.88 787.469C1395.89 791.015 1394.98 788.014 1393.66 789.591C1393.28 790.045 1393.69 790.854 1392.54 790.65C1392.34 791.501 1391.43 791.709 1391.45 792.742C1389.06 795.069 1382.92 794.008 1382.55 798.143C1381.66 797.914 1381.43 797.231 1380.35 797.177C1377.27 797.016 1378.74 798.754 1375.93 797.36C1375.93 797.36 1375.52 795.581 1374.81 796.345C1374.11 797.11 1374.97 798.619 1372.59 798.464C1371.67 798.442 1371.51 797.441 1370.39 797.498C1370.39 797.498 1369.89 798.519 1369.25 798.568C1365.65 798.862 1358.74 797.174 1358.18 802.995C1353.86 803.624 1350.03 806.579 1344.82 804.467C1344.09 804.134 1343.28 801.275 1342.65 803.463C1343.93 803.635 1343.25 804.494 1342.63 804.504C1339.03 805.11 1335.35 804.932 1331.9 803.983C1328.45 803.034 1325.32 801.341 1322.77 799.04C1322.22 799.142 1321.66 799.081 1321.17 798.866C1320.67 798.651 1320.27 798.292 1320.03 797.843C1319.78 797.395 1319.7 796.881 1319.8 796.374C1319.89 795.868 1320.16 795.398 1320.56 795.031C1318.75 795.448 1318.66 794.095 1317.24 794.121C1315.81 794.919 1315.41 793.172 1315.03 793.125C1313.3 792.922 1313.15 794.194 1311.64 794.309C1311.64 794.309 1310.63 793.404 1310.43 793.348C1307.9 792.86 1305.95 794.884 1302.68 795.638C1303.03 795.558 1302.16 794.486 1301.58 794.654C1300.99 794.822 1300.75 796.651 1299.35 796.773C1297.23 796.928 1296.18 797.94 1294.87 797.807C1294.41 797.911 1291.88 795.516 1291.53 795.898C1291.31 796.252 1290.98 796.544 1290.59 796.736C1290.2 796.927 1289.76 797.01 1289.33 796.976C1285.89 796.362 1287.24 796.321 1283.8 797.147C1284.2 795.214 1281.19 796.005 1280.47 795.235C1279.74 794.465 1279.68 793.409 1278.25 793.269C1278.6 793.189 1277.71 794.87 1277.17 794.29C1276.09 792.929 1274.58 791.913 1272.84 791.372C1272.18 791.223 1271.42 790.157 1270.64 790.437C1270.36 790.501 1270.63 791.814 1269.49 791.474C1269.09 791.332 1269.53 790.526 1268.38 790.456C1266.48 790.025 1264.65 789.417 1262.9 788.639C1262.5 788.497 1260.96 789.087 1260.69 788.714C1259.65 787.548 1259.02 788.463 1257.36 787.775C1256.84 787.593 1256.64 785.933 1256.27 785.782C1255.91 785.632 1253.84 786.343 1252.93 785.884C1252.02 785.425 1252.97 784.937 1251.82 784.9C1248.83 784.67 1245.79 785.118 1242.97 786.205C1242.41 786.334 1242.26 788.076 1241.83 788.275C1240.76 788.795 1239.61 789.173 1238.43 789.395C1237.52 789.437 1237.39 789.198 1237.32 788.411C1233.76 789.802 1236.59 785.234 1232.9 786.553C1230.03 786.813 1230.19 786.24 1227.39 785.681C1226.24 785.444 1226.89 784.958 1226.28 784.697C1225.67 784.435 1221.9 783.966 1221.89 782.797C1221.71 780.126 1220.9 783.73 1217.41 782.925C1217.17 782.982 1217.19 781.972 1216.35 781.966C1215.51 781.96 1215.48 780.726 1215.27 779.971C1214.29 780.967 1208.2 782.372 1207.45 780.203C1201.47 780.477 1202.41 774.231 1195.37 775.485C1194.51 774.612 1194.13 773.261 1193.18 772.476C1192.78 772.166 1191.33 772.903 1190.96 772.553C1190.59 772.204 1191.32 770.795 1190.96 770.51C1189.19 769.177 1187.16 768.775 1185.42 767.602C1184.82 767.206 1185.61 766.688 1184.36 766.642C1182.38 766.63 1181.82 764.85 1180.02 763.725C1178.13 762.843 1176.29 761.869 1174.52 760.809C1175.43 757.921 1173.34 758.068 1172.35 756.821C1171.47 755.911 1170.73 754.889 1170.15 753.782C1167.04 753.94 1163.98 753.329 1161.28 752.011C1160.82 751.916 1160.23 750.643 1159.05 751.083C1158.74 751.155 1159.03 752.564 1157.94 752.145C1157.65 752.01 1158.21 750.308 1157.95 750.101C1157.07 749.332 1154.88 751.714 1153.53 751.287C1153.53 751.287 1153.02 750.499 1152.42 750.27C1151.65 750.013 1150.91 749.69 1150.22 749.304C1149.79 749.04 1149.41 748.707 1149.11 748.32C1145.49 747.466 1141.78 746.91 1138.03 746.656C1136.74 746.452 1135.9 745.006 1132.52 745.784C1131.13 746.105 1122.9 749.978 1121.44 744.121C1121.23 744.169 1115.99 746.382 1115.92 746.366C1113.41 743.596 1114.13 747.817 1111.49 745.445C1108.86 743.073 1102.39 745.836 1097.05 744.924C1097.05 744.924 1096.83 743.97 1095.95 743.94C1092.93 743.866 1094.13 742.251 1090.46 742.059C1089.85 741.798 1087.6 744.728 1087.28 744.164C1085.88 742.545 1085.32 743.915 1081.75 744.336C1079.86 744.538 1077.16 744.423 1075.1 744.53C1074.23 744.731 1074.04 745.647 1072.9 745.641C1072.59 745.713 1071.85 744.411 1070.66 744.683C1068.29 745.373 1066.05 746.467 1064.08 747.908C1062.17 746.441 1060.02 748.576 1057.45 749.169C1056.41 749.41 1055.18 748.99 1054.14 749.262C1053.1 749.535 1053.44 751.134 1053.05 751.358C1051.56 752.068 1048.96 751.095 1046.4 751.585C1046.4 751.585 1045.84 753.288 1045.29 752.645C1045.29 752.645 1045.35 751.626 1045.28 751.642C1043.02 751.633 1040.79 751.348 1038.63 750.796C1038.63 750.796 1034.32 750.019 1034.22 749.908C1034.12 749.797 1034.37 748.968 1034.24 748.897C1033.51 748.564 1031.69 748.482 1030.92 747.99C1030.15 747.499 1030.32 746.354 1029.79 745.973C1029.27 745.593 1025.38 745.083 1026.48 743.053C1024.25 743.837 1022.05 746.385 1019.84 744.251C1018.03 742.927 1014.15 743.555 1013.21 741.394C1009.33 740.448 1007.23 746.121 1004.35 742.7C1001.23 743.194 998.072 742.567 995.527 740.951C995.43 745.292 989.682 739.586 987.77 743.208C984.637 740.582 986.104 746.94 980.976 745.511C977.645 746.949 977.529 743.428 976.634 742.563C976.233 742.254 974.791 742.987 974.417 742.638C973.529 741.805 974.31 739.315 972.258 739.788C971.312 739.151 970.157 738.819 968.963 738.84C968.754 738.889 967.788 740.418 967.799 738.875C965.784 739.507 964.98 737.448 963.413 737.006C962.664 736.777 958.86 736.483 958.968 736.156C957.976 737.256 958.412 736.285 956.779 736.193C955.146 736.101 954.685 737.278 954.504 737.287C953.688 737.241 953.331 736.487 952.346 736.346C949.816 735.858 947.23 735.601 944.625 735.581C942.602 735.545 942.231 736.636 940.139 736.616C938.047 736.596 937.84 735.538 935.687 735.733C933.859 737.494 932.813 739.945 929.062 740.04C926.997 738.072 923.832 739.438 921.306 739.284C918.749 738.869 916.158 738.619 913.551 738.53C912.672 738.531 911.651 739.503 910.139 739.617C908.627 739.731 909.487 738.697 909.075 738.658C906.177 739.485 903.178 739.916 900.177 739.938C896.614 739.886 893.17 738.946 890.21 737.216C888.04 740.194 883.291 737.07 880.249 737.537C877.823 734.481 875.1 735.378 871.396 734.725C871.396 734.725 870.031 736.11 869.198 735.833C868.365 735.557 868.347 733.888 868.081 733.849C864.245 733.093 859.951 735.121 855.941 733.3C855.979 736.64 852.676 733.751 850.35 736.531C849.678 735.045 848.057 736.59 848.134 736.606C846.197 736.149 845.966 734.831 843.817 734.724C843.038 735.32 842.127 735.743 841.156 735.967C840.185 736.191 839.179 736.21 838.218 736.015C837.88 734.553 835.008 735.75 834.947 734.057C834.705 733.008 832.177 733.322 831.565 734.166C828.749 734.816 828.972 731.182 828.306 730.198C827.284 728.805 826.17 727.474 824.969 726.212C824.22 725.347 823.406 725.467 822.835 724.26C822.747 723.878 823.114 722.454 822.804 722.224C822.495 721.994 820.058 722.857 819.494 722.318C818.93 721.778 819.872 720.626 819.499 720.277C817.478 719.216 815.208 718.595 812.854 718.461C812.854 718.461 812.45 716.712 811.748 717.477C811.03 718.134 810.136 718.599 809.166 718.823C808.195 719.047 807.187 719.021 806.254 718.744C805.904 718.657 805.003 717.928 805.086 717.808C802.461 718.329 799.887 719.079 797.399 720.049C797.051 720.129 797.385 721.256 796.246 721.084C795.968 721.148 796.205 719.955 795.182 720.124C792.236 720.691 789.266 721.12 786.285 721.408C784.515 721.515 784.369 720.409 782.969 720.531C781.569 720.653 780.916 722.11 777.475 721.798C777.649 721.758 777.086 720.113 776.334 720.822C773.974 723.61 773.854 720.557 770.794 719.991C770.213 719.857 769.195 720.36 768.605 720.028C767.289 719.561 766.624 718.741 765.271 718.116C763.918 717.49 760.345 717.243 757.531 716.318C756.054 715.788 755.13 714.797 753.103 714.427C751.244 714.241 749.404 713.949 747.592 713.555C746.963 716.546 745.887 712.041 744.234 712.656C743.284 711.871 743.59 709.858 742.146 709.79C741.727 710.355 738.656 711.497 737.711 709.94C734.853 709.461 732.131 709.723 728.861 709.204C728.653 709.253 728.642 708.25 727.756 708.22C725.063 708.138 723.186 708.572 721.123 707.407C719.059 706.242 719.105 707.871 714.395 707.618C714.395 707.618 714.16 706.599 713.316 706.593C709.656 706.6 705.33 709.441 702.245 707.976C699.658 708.037 697.498 706.292 695.616 705.119C694.598 704.517 693.07 705.035 692.294 704.21C691.517 703.384 692.071 701.817 691.178 701.119C689.278 702.093 689.346 705.726 686.731 703.282C684.117 700.839 682.255 702.609 677.871 701.544C677.018 701.339 676.036 699.624 675.686 699.538C674.366 699.373 670.973 702.767 666.826 702.887C667.683 699.776 664.479 701.919 664.598 701.959C657.88 701.098 650.179 698.355 643.591 698.535C642.896 698.696 642.139 695.89 641.387 696.6C639.178 698.616 640.273 696.857 638.056 695.66C636.58 694.661 634.037 697.29 633.605 696.687C632.566 695.52 630.266 696.82 629.187 695.796C627.988 694.735 626.437 694.072 624.76 693.905C624.76 693.905 624.364 692.188 623.654 692.921C621.892 694.968 619.942 692.706 617.02 692.108C616.182 691.966 613.144 692.766 612.595 692.29C612.045 691.814 612.729 691.289 612.575 691.258C609.831 690.695 607.214 689.738 604.817 688.424C604.539 688.489 602.341 690.235 601.412 689.545C599.807 688.141 599.854 689.301 596.986 689.728C596.117 689.928 595.863 690.891 594.781 690.806C593.699 690.72 592.339 689.428 589.253 690.977C585.751 687.064 578.713 690.059 574.852 688.404C571.85 689.364 572.913 686.507 570.451 686.473C568.98 686.444 570.136 685.107 569.335 684.488C568.533 683.87 565.684 683.589 565.988 684.59C564.785 683.358 563.707 682.028 562.764 680.613C561.629 679.502 559.807 679.385 559.411 677.668C557.796 676.701 556.293 678.756 556.007 678.788C555.208 678.972 554.308 677.776 552.796 677.891C553.039 677.834 551.879 678.837 551.643 678.925C549.279 679.47 548.7 678.232 547.184 678.012C544.916 677.595 542.703 676.985 540.574 676.188C539.398 675.856 537.096 676.99 536.098 676.316C535.101 675.642 536.426 673.764 535.051 674.315C533.241 672.657 528.503 673.716 525.036 673.612C524.787 672.531 522.874 672.969 522.866 671.665C522.326 670.752 521.855 669.824 520.655 669.7C520.377 666.114 516.508 672.364 516.23 668.779C513.861 667.718 511.813 667.888 509.586 666.962C508.857 666.662 507.991 665.287 507.374 664.994C506.757 664.701 505.46 665.434 505.156 665.069C503.962 663.704 505.205 662.58 502.962 662.227C501.497 662.157 500.025 662.197 498.558 662.341C498.558 662.341 498.502 661.148 497.451 661.357C497.208 661.413 497.4 662.406 496.34 662.416C495.281 662.426 494.36 662.405 494.113 661.491C491.11 659.271 486.817 658.285 484.2 655.674C482.913 655.971 483.28 657.56 483.05 658.785C482.131 658.102 480.959 657.764 479.755 657.837C478.54 657.649 479.027 655.794 477.578 655.861C478.798 658.928 470.161 655.462 468.688 657.174C467.938 658.05 467.404 660.184 465.356 660.355C464.122 660.405 463.129 663.246 461.985 664.481C460.842 665.715 459.444 666.641 458.681 667.62C458.072 670.54 457.249 668.719 455.283 668.771C453.785 669.043 452.299 669.385 450.833 669.797C450.381 669.901 449.414 670.795 449.61 670.85C447.115 670.99 447.241 668.516 445.259 668.973C444.529 669.142 444.51 671.288 443.037 671.092C441.7 670.215 440.199 669.564 438.601 669.169C438.949 669.088 438.069 670.198 437.491 670.231C436.912 670.264 436.28 669.271 436.384 669.247C434.102 669.764 431.879 670.512 429.757 671.477C430.256 673.639 423.475 670.28 420.907 670.739C420.907 670.739 420.633 671.773 419.804 671.831C415.738 672.328 411.644 672.454 407.584 672.205C405.453 671.859 406.104 671.508 402.028 672.415C401.68 672.495 400.081 672.228 399.839 672.451C398.257 674.323 398.923 671.658 397.638 671.486C396.353 671.313 395.769 673.859 394.295 673.663C394.295 673.663 391.84 671.752 391 672.716C390.16 673.68 387.962 674.152 384.334 673.985C381.376 673.863 379.546 674.821 377.719 674.204C376.837 673.872 376.328 671.512 375.524 671.362C373.254 670.412 369.859 671.096 367.801 668.524C364.352 668.181 364.8 671.39 362.252 671.777C362.685 673.652 358.65 672.038 357.801 672.803C356.952 673.568 356.211 674.007 353.321 674.975C353.321 674.975 352.88 676.719 352.21 676.037C351.54 675.354 351.101 674.719 350.01 675.071C349.454 675.199 349.277 676.979 348.909 677.13C347.744 677.634 345.959 675.771 345.595 676.257C344.376 677.643 344.592 675.716 342.277 676.317C339.779 677.31 337.003 677.414 334.504 676.604C332.233 676.124 332.709 676.282 328.935 676.75C325.16 677.219 321.4 675.843 316.795 676.202C313.364 674.984 315.406 679.869 312.368 679.398C312.368 679.398 312.002 677.808 311.262 678.414C310.958 678.685 312.938 680.439 311.269 681.46C310.791 681.771 309.573 681.415 309.051 681.535C308.53 681.656 308.246 682.491 307.906 682.603C306.202 682.996 304.215 679.94 304.509 683.756C301.951 683.401 299.327 683.485 296.765 684.002C295.921 683.996 295.558 682.738 294.537 683.074C294.224 683.146 294.548 684.076 293.426 684.134C292.304 684.191 290.314 684.453 290.132 683.189C286.771 683.227 287.109 685.961 283.565 686.477C280.582 686.375 277.612 686.119 274.672 685.714C273.863 685.7 271.532 687.979 271.354 685.777C270.013 686.79 268.262 686.824 266.957 687.996C266.626 688.307 267.361 689.745 266.953 690.04C265.992 690.797 264.116 690.124 264.732 692.158C263.384 692.033 262.749 692.615 262.457 693.252C260.386 691.419 258.179 694.239 255.818 694.482C253.456 694.726 252.982 693.462 251.408 693.625C249.834 693.787 248.965 695.259 246.997 695.78C245.03 696.301 243.875 695.897 242.512 696.814C240.437 702.114 235.327 704.732 230.294 707.366C226.864 706.784 228.133 706.727 224.767 707.537C224.583 706.742 223.66 706.552 223.649 705.55C223.638 704.548 222.541 705.036 222.554 705.569C221.903 706.556 219.498 707.243 221.428 707.669C222.079 708.59 224.547 709.127 222.545 709.656C219.871 707.594 220.214 708.286 215.911 708.843C212.987 708.077 213.911 710.809 211.473 711.036C211.056 711.132 207.079 713.423 207.019 714.274C206.926 715.936 206.917 717.646 205.914 718.379C205.462 718.483 203.979 718.09 203.69 718.424C203.401 718.759 203.888 719.28 203.632 719.44C203.376 719.6 201.844 719.151 201.416 719.518C200.988 719.884 202.337 720.812 202.557 720.494C200.674 722.971 201.54 720.057 198.122 720.644C198.122 720.644 197.869 721.607 197.019 721.736C196.17 721.865 192.237 723.073 192.579 721.856C188.317 724.178 190.325 719.866 184.85 721.062C181.08 720.592 179.969 722.922 178.276 724.317C177.425 724.279 177.218 723.223 176.084 723.384C175.817 723.458 175.574 723.594 175.379 723.78C175.184 723.967 175.044 724.196 174.973 724.443C173.767 724.454 174.321 723.523 173.86 723.429C172.652 723.272 172.001 725.532 170.691 725.567C168.251 725.627 166.66 721.273 161.844 722.785C160.245 723.154 159.763 723.767 157.399 721.935C156.196 724.657 152.705 723.018 150.818 725.16C150.053 725.973 149.939 728.176 148.538 728.298C147.138 728.42 148.202 731.287 146.335 731.449C144.468 731.612 145.961 732.843 145.244 733.544C144.526 734.245 143.301 733.22 143.02 733.586C142.152 734.59 143.013 734.829 141.879 735.626C141.478 735.953 139.993 735.391 139.669 735.734C139.345 736.076 139.685 738.341 137.448 737.853C135.875 736.91 134.364 738.931 134.051 739.003C133.103 739.021 132.355 737.687 130.72 738.063C130.199 738.184 127.932 741.855 123.934 740.4C120.772 742.569 120.493 746.919 115.003 746.779C115.945 749.91 112.114 749.019 111.633 750.904C111.153 752.789 106.418 751 106.101 753.116C103.63 755.427 101.605 757.133 99.4352 759.475C98.0226 760.972 97.6802 760.282 96.1305 762.615C96.4726 762.034 97.6024 763.28 97.2365 763.599C96.3654 764.269 95.0914 764.461 94.9454 765.734C91.0065 766.441 88.2834 766.064 82.7796 767.132C82.7545 768.611 87.4172 770.25 82.7935 770.212C78.6268 768.025 79.0454 773.653 77.186 774.484C76.7687 774.58 75.2583 774.226 74.9967 774.52C74.735 774.815 75.5988 777.128 74.984 777.638C74.3691 778.148 73.0063 777.322 72.794 777.672C71.8865 778.819 72.5986 780.797 70.5138 780.809C66.5756 782.325 62.4988 783.48 58.3432 784.255C57.8221 786.283 54.6456 784.103 52.7731 784.401C50.9007 784.699 50.0248 786.139 48.3428 786.627C45.425 786.363 45.4879 788.86 44.9723 790.753C41.0621 789.679 40.0798 792.884 38.398 794.008C37.6641 794.479 37.3582 793.949 37.2872 795.071C37.116 797.822 32.3047 794.108 32.868 798.297C30.9704 800.074 29.2437 798.463 27.2979 798.443C26.1265 798.446 26.6038 797.498 26.2267 797.451C24.7806 797.215 23.5588 800.176 21.7725 800.688C18.032 801.342 14.3277 802.196 10.6789 803.247C7.85331 804.649 4.87979 805.763 1.81219 806.566C0.73701 810.162 -2.30546 810.627 -4.83656 811.881C-5.39298 812.009 -6.27302 813.116 -7.07663 812.966C-7.88024 812.817 -7.06365 811.593 -8.18192 811.985C-8.66878 812.097 -8.88733 813.854 -9.27531 814.077C-11.3288 815.02 -16.4717 814.633 -20.3886 815.435C-22.6983 816.537 -23.1898 818.058 -25.9024 818.683C-29.6929 819.557 -34.4546 817.808 -36.9744 820.064C-37.8656 820.805 -38.1911 823.524 -41.4713 823.276C-42.1834 823.206 -42.6619 822.079 -43.6429 822.272C-45.6251 822.729 -47.8977 822.884 -50.31 823.541C-52.7223 824.197 -53.7538 825.441 -55.8422 825.755C-58.4088 826.035 -60.9886 826.112 -63.5527 825.991C-63.5527 825.991 -63.8589 827.202 -64.6625 827.053C-64.9483 826.654 -65.3263 826.318 -65.7694 826.069C-66.9025 825.761 -67.9415 826.333 -67.9968 825.141C-69.97 825.161 -69.9532 827.3 -71.3714 828.297C-72.0632 828.791 -73.9132 827.914 -74.6819 828.393C-75.4505 828.871 -74.4238 830.943 -75.7821 830.452C-79.2494 829.076 -81.9189 830.998 -84.6951 832.776C-85.4673 833.557 -90.1032 835.53 -89.1049 831.919C-91.0599 831.7 -91.3523 832.972 -90.2156 832.978C-90.2956 834.536 -91.4422 833.061 -91.3379 833.037C-92.1783 833.148 -92.9603 833.53 -93.5434 834.115C-94.1803 834.53 -93.3311 835.035 -94.6471 835.204C-96.5191 835.42 -98.3649 835.846 -100.142 836.472C-100.689 838.071 -103.619 837.275 -102.41 840.612C-103.389 841.608 -104.931 841.595 -106.862 841.639C-106.549 841.566 -107.459 840.001 -107.967 840.654C-109.722 842.733 -111.512 841.17 -114.618 840.882C-114.931 840.954 -116.442 842.341 -116.823 841.96C-117.204 841.579 -116.664 839.947 -116.818 839.916C-119.345 839.595 -121.096 842.009 -124.559 842.239C-126.943 842.387 -127.493 841.275 -128.984 841.318C-129.819 841.51 -130.183 842.63 -131.217 842.434C-131.53 842.506 -131.154 841.28 -132.323 841.449C-133.493 841.619 -134.085 842.86 -135.727 842.569C-137.835 840.578 -142.476 840.779 -145.66 839.839C-151.519 839.048 -148.426 846.27 -154.56 845.24C-155.18 846.056 -156.037 846.697 -157.026 847.086C-158.016 847.475 -159.096 847.595 -160.134 847.43C-163.272 846.848 -163.82 849.551 -165.676 850.716C-166.198 850.836 -167.309 850.624 -167.865 850.753C-169.152 851.049 -168.277 851.349 -168.976 851.812C-169.675 852.274 -170.588 853.555 -171.197 853.93C-172.799 854.768 -174.836 854.033 -176.762 855.214C-177.109 855.294 -176.366 856.931 -176.767 857.257C-177.706 858.11 -181.179 856.703 -179.95 859.332C-184.316 859.301 -179.59 860.89 -182.195 862.461C-185.655 863.628 -188.996 865.105 -192.166 866.87C-193.456 863.819 -193.367 868.487 -191.059 867.854C-191.523 871.878 -199.756 869.056 -199.96 873.255C-204.725 873.082 -204.27 877.596 -207.738 878.597C-210.34 877.958 -213.346 879.69 -216.612 878.869C-215.528 879.121 -222.328 874.73 -224.351 877.072C-224.351 877.072 -224.124 878.058 -224.34 878.075C-225.14 878.259 -225.62 877.13 -225.447 877.09C-227.107 877.437 -228.643 878.209 -229.877 879.317C-230.75 879.819 -233.311 880.308 -233.236 881.429C-233.16 882.55 -235.43 881.6 -237.687 882.456C-239.047 883.07 -239.522 884.185 -240.856 884.593C-241.812 887.593 -243.604 883.32 -246.384 884.765C-247.352 885.49 -247.048 887.764 -248.629 887.894C-251.723 888.139 -250.247 889.136 -251.961 891.072C-253.563 893.335 -255.424 895.437 -257.511 897.341C-258.907 898.218 -260.393 898.964 -261.942 899.568C-262.464 899.688 -261.737 900.457 -263.053 900.627C-267.303 900.938 -271.251 902.083 -271.941 907.031C-273.657 907.031 -275.347 907.551 -276.753 908.51C-278.159 909.469 -279.203 910.816 -279.726 912.342C-283.482 913.208 -287.811 913.334 -289.917 915.796C-292.811 915.157 -292.02 917.955 -293.222 918.935C-294.458 918.182 -295.852 920.714 -296.612 920.119C-296.612 920.119 -299.032 918.201 -299.969 919.22C-300.213 919.276 -299.529 921.128 -299.974 921.264C-301.33 921.577 -303.045 920.967 -304.379 921.376C-305.713 921.784 -306.387 922.675 -306.596 921.451C-309.175 921.543 -309.87 919.796 -313.229 920.637C-314.731 922.223 -316.498 921.391 -318.793 921.921C-319.037 921.977 -318.874 922.843 -319.904 922.98C-321.004 922.884 -322.118 922.906 -323.223 923.043C-323.223 923.043 -323.003 923.996 -323.204 924.076C-326.821 924.761 -330.515 924.864 -334.121 924.384C-336.14 924.046 -340.997 924.429 -340.727 920.516C-341.986 920.137 -343.926 921.255 -345.159 920.669C-345.65 920.447 -345.878 918.824 -346.277 918.682C-346.676 918.54 -347.772 919.029 -348.493 918.76C-348.493 918.76 -351.738 917.868 -351.788 917.812C-351.837 917.757 -351.674 916.88 -351.808 916.777C-352.593 916.389 -353.295 915.247 -354.018 914.811C-354.741 914.375 -357.557 913.917 -359.542 912.935C-360.116 912.666 -359.364 911.959 -360.648 911.954C-362.104 911.817 -363.583 911.875 -365.038 912.129C-365.49 912.233 -366.408 913.181 -366.199 913.133C-367.034 913.326 -367.25 912.068 -368.392 912.197C-369.534 912.327 -370.156 914.077 -373.952 914.45C-375.418 914.404 -376.89 914.444 -378.358 914.565C-378.184 914.525 -378.868 916.323 -379.469 915.624C-380.902 914.013 -380.976 915.601 -382.774 915.748C-383.68 915.79 -383.948 916.691 -385.048 916.844C-388.362 917.234 -391.696 917.341 -395.008 917.166C-397.855 917.052 -399.291 915.272 -402.738 916.368C-404.75 914.79 -401.916 913.1 -404.913 911.381C-406.24 912.22 -407.838 912.589 -409.399 912.415C-408.871 914.704 -411.495 913.968 -411.602 915.567C-414.932 915.899 -418.183 918.794 -423.784 918.01C-424.823 917.613 -425.95 917.428 -427.09 917.466C-428.23 917.504 -429.358 917.764 -430.399 918.229C-430.608 918.277 -430.822 919.095 -431.587 919.272C-435.031 919.376 -438.428 918.791 -441.543 917.552C-443.517 916.936 -444.473 917.557 -445.961 916.661C-446.734 916.17 -446.661 914.578 -448.103 914.677C-451.016 913.641 -453.45 913.566 -455.843 912.879C-457.366 912.699 -458.866 912.409 -460.33 912.007C-460.763 911.873 -462.149 910.15 -462.464 910.055C-466.519 909.909 -470.591 910.032 -474.65 910.422C-473.51 907.581 -477.955 909.743 -479.07 908.561C-480.185 907.378 -478.577 906.572 -480.161 906.536C-481.744 906.499 -482.189 905.999 -483.491 905.596C-487.073 904.514 -492.138 905.58 -494.553 902.89C-496.674 903.858 -498.893 904.617 -501.173 905.153C-501.638 905.408 -502.023 905.775 -502.284 906.212C-503.466 906.485 -505.227 904.882 -505.682 905.288C-506.965 906.555 -506.557 906.897 -508.852 907.427C-511.147 907.956 -514.639 908.225 -517.709 908.732C-518.439 908.901 -518.99 910 -519.906 909.843C-520.821 909.686 -519.857 908.626 -521.012 908.859C-522.167 909.091 -522.666 909.943 -524.416 909.979C-526.165 910.014 -526.858 909.236 -528.861 909.129C-532.934 909.353 -537.005 909.169 -541.001 908.58C-542.266 907.064 -544.152 906.194 -545.563 904.678C-547.699 905.345 -549.912 905.742 -552.14 905.859C-552.184 905.669 -552.709 904.819 -553.307 904.924C-553.906 905.028 -554.385 908.351 -557.781 907.126C-558.975 907.101 -560.126 906.776 -561.11 906.186C-562.934 905.267 -562.477 904.863 -565.496 904.32C-566.607 904.108 -566.007 903.533 -566.602 903.336C-568.85 902.859 -571.058 902.25 -573.211 901.512C-573.702 901.29 -575.074 899.63 -575.424 899.543C-575.774 899.457 -581.247 900.652 -582.073 899.771C-583.218 898.461 -583.708 899.512 -587.609 899.909C-589.461 900.136 -591.27 899.916 -593.129 900.111C-594.334 904.574 -599.264 903.369 -602.031 903.438C-603.873 903.718 -605.735 903.797 -607.58 903.677C-607.617 903.518 -607.452 902.643 -607.536 902.596C-607.621 902.548 -609.483 903.046 -609.752 902.673C-610.022 902.3 -609.637 901.743 -609.771 901.64C-609.905 901.537 -611.718 902.09 -611.98 901.748C-612.242 901.407 -611.838 900.776 -611.999 900.713C-612.16 900.649 -613.877 901.148 -614.216 900.791C-614.943 900.021 -613.722 898.8 -615.298 898.795C-616.489 898.757 -617.636 898.433 -618.628 897.856C-619.428 897.404 -619.676 895.854 -620.798 895.912C-621.92 895.97 -622.561 897.323 -624.203 897.032C-624.86 896.883 -625.239 896.031 -625.281 896.007C-627.885 895.92 -630.472 895.679 -633.029 895.283C-633.519 895.062 -632.928 894.289 -634.169 894.307C-635.501 894.04 -636.713 893.44 -637.676 892.571C-638.638 891.701 -639.314 890.594 -639.63 889.372C-640.316 888.952 -641.067 888.632 -641.864 888.417C-642.228 888.267 -643.812 888.864 -644.054 888.451C-644.781 887.681 -645.559 887.327 -646.265 886.485C-648.349 884.12 -650.138 888.115 -654.021 885.729C-655.895 882.21 -656.278 888.326 -658.459 887.925C-658.686 886.94 -663.357 886.376 -665.069 886.101C-670.202 885.354 -675.484 885.536 -680.621 886.64C-682.466 886.898 -683.02 887.829 -685.072 887.667C-686.034 887.621 -686.764 886.684 -688.318 886.774C-688.318 886.774 -688.857 887.77 -689.471 887.811C-692.898 887.728 -696.269 887.149 -699.462 886.097C-699.114 886.017 -699.982 887.655 -700.546 887.115C-701.11 886.576 -700.222 885.501 -700.541 885.072C-701.168 885.685 -701.935 885.696 -702.739 886.183C-703.798 886.743 -704.947 887.131 -706.135 887.333C-707.178 887.573 -706.877 888.243 -707.245 888.395C-710.824 889.817 -714.805 889.945 -718.371 888.751C-718.805 888.616 -718.243 887.716 -719.477 887.766C-720.711 887.816 -722.099 890.213 -723.84 887.903C-724.441 887.204 -723.51 885.682 -724.958 885.916C-727.733 884.681 -729.553 889.018 -730.528 886.062C-732.741 885.836 -732.685 883.379 -734.863 883.145C-736.782 883.287 -738.675 883.724 -740.462 884.436C-741.332 884.636 -741.503 885.481 -742.64 885.475C-743.776 885.47 -743.676 884.475 -744.826 884.572C-744.582 884.516 -745.428 886.25 -745.979 885.607C-747.477 883.877 -751.035 884.966 -755.917 884.92C-756.311 885.287 -756.814 885.536 -757.357 885.631C-757.9 885.726 -758.454 885.663 -758.943 885.451C-759.432 885.238 -759.831 884.888 -760.084 884.448C-760.337 884.008 -760.431 883.5 -760.352 882.996C-764.958 887.641 -772.026 886.059 -778.079 886.651C-780.309 886.831 -780.934 887.611 -782.496 887.67C-782.554 887.415 -783.209 886.16 -783.67 886.701C-783.67 886.701 -783.466 887.591 -783.652 887.734C-783.924 887.691 -784.175 887.581 -784.38 887.417C-784.585 887.252 -784.737 887.04 -784.82 886.799C-787.897 887.274 -789.813 888.653 -792.508 889.04C-793.763 888.995 -1046.37 825.186 -1047.46 824.934L-815.001 19.5L2009.5 0.500029Z" fill="#FBEBE8"/>
</svg>
