<svg width="1280" height="710" viewBox="0 0 1280 710" fill="none" xmlns="http://www.w3.org/2000/svg">
<path d="M1518.3 0.137602L1798.59 542.703L1795.45 544.016C1795.45 544.016 1793.75 543.246 1792.77 543.318C1791.34 543.632 1791.24 542.496 1790.11 542.59C1788.98 542.684 1789.22 543.405 1788.34 543.443C1787.46 543.481 1787.42 542.694 1786.53 542.708C1785.65 542.721 1785.64 543.545 1784.75 543.535C1780.79 543.53 1775.03 541.479 1770.43 543.209C1769.89 543.326 1769.46 544.473 1768.66 544.804C1767.85 545.135 1766.92 545.187 1765.91 545.689C1765.44 545.922 1766.09 546.397 1765.02 546.503C1763.95 546.608 1764.06 545.736 1763.22 545.793C1762.38 545.849 1759.21 547.057 1756.93 547.531C1756.71 547.581 1755.33 547.393 1755.14 547.589C1753.86 549.026 1753.18 545.963 1751.58 547.675C1750.37 549.02 1748.86 547.399 1746.2 548.649C1745.45 547.503 1744.87 546.192 1742.7 546.386C1741.92 544.269 1739.57 547.277 1738.24 547.365C1737 549.589 1734.54 544.32 1732.88 546.74C1731.75 545.497 1731.31 546.597 1729.32 546.082C1729 545.972 1729.35 545.33 1728.42 545.301C1726.05 545.256 1726.11 542.955 1723.96 543.093C1723.79 543.13 1723.08 544.109 1722.18 543.946C1721.99 543.989 1722 543.213 1721.28 543.165C1717.97 542.929 1714.69 542.507 1711.46 541.902C1710.59 542.545 1709.6 543.032 1708.53 543.333C1707.45 543.634 1706.33 543.743 1705.23 543.654C1703.99 543.636 1702.77 543.415 1701.64 543.002C1701.64 543.002 1701.72 542.214 1701.63 542.209C1700.3 541.729 1698.61 541.945 1697.18 541.539C1696.98 541.582 1696.87 540.244 1696.28 540.013C1695.09 539.606 1692.87 541.07 1692.69 540.801C1692.13 540.204 1692.03 539.303 1690.89 539.244C1690.14 537.017 1688.64 540.353 1686.43 539.398C1685.85 537.831 1682.23 539.01 1681.97 537.191C1680.86 536.662 1680.47 537.981 1680.19 538.018C1678.05 538.486 1678.47 537.16 1676.61 536.541C1676.32 536.603 1675.03 536.885 1674.82 536.599C1674.23 536.008 1673.32 536.388 1671.26 535.94C1670.35 535.753 1669.31 534.853 1667.69 535.259C1667.01 535.319 1666.34 535.499 1665.72 535.789C1665.1 536.078 1664.56 536.47 1664.11 536.943C1663.07 537.659 1662.44 538.723 1661.39 539.391C1661.08 539.458 1660.21 538.543 1659.61 538.624C1657.7 539.042 1659.21 541.872 1656.05 541.976C1653.78 543.091 1651.63 541.814 1649.81 541.366C1649.5 541.305 1649.64 540.658 1648.92 540.61C1648.69 540.659 1648.21 540.763 1648.01 540.654C1644.22 539.935 1640.3 539.779 1636.4 540.193C1635.04 540.312 1634.76 541.118 1633.66 541.102C1632.57 541.085 1632.79 540.291 1631.89 540.36C1628.29 540.481 1624.69 540.858 1621.13 541.486C1620.46 541.563 1619.82 541.849 1619.35 542.29C1619.35 542.29 1618.97 543.658 1618.45 543.103C1617.18 541.763 1618.33 543.464 1617.55 543.917C1616.78 544.37 1615.55 543.713 1614.89 544.014C1614.22 544.314 1615.06 544.721 1613.99 544.827C1612.92 544.933 1612.75 546.281 1612.14 546.466C1611.54 546.65 1610.17 545.151 1609.48 545.738C1609.48 545.738 1609.51 546.453 1609.49 546.508C1604.39 547.061 1601.26 547.078 1598.75 544.519C1597.77 544.735 1598 545.943 1597.88 546.895L1594.29 546.987C1593.39 544.614 1593.39 549.241 1592.48 549.39C1590.95 548.184 1586.96 549.188 1586.28 547.23C1583.41 547.577 1583.84 547.764 1581.76 547.371C1580.29 547.21 1578.78 547.255 1577.3 547.503C1576.84 547.913 1577.61 549.363 1577.31 549.839C1577.01 550.316 1575.38 551.652 1575.48 553.043C1572.05 553.282 1571.95 556.388 1569.23 557.138C1567.49 556.286 1565.77 558.231 1564.77 558.117C1564.25 558.026 1563.88 556.769 1562.98 556.605C1561.31 556.279 1560.18 557.221 1558.49 557.591C1557.56 557.824 1556.64 558.13 1555.76 558.501C1555.04 558.838 1554.5 559.882 1553.97 560.128C1553.43 560.373 1553.34 559.39 1553.07 559.372C1552.8 559.354 1552.04 561.682 1550.5 560.965C1547.2 561.368 1543.87 561.227 1540.68 560.55C1539.92 561.076 1539.77 561.673 1538.85 562.157C1538.51 562.231 1537.33 561.977 1537.07 562.24C1536.8 562.503 1537.24 562.948 1537.07 563.01C1536.08 563.433 1532.57 562.096 1533.49 564.671C1528.36 564.955 1523.24 564.58 1518.29 563.558C1516.31 563.22 1514.75 562.508 1512.95 562.158C1510.27 561.589 1507.2 562.083 1503.15 561.736C1500.22 561.129 1497.12 561.223 1494.17 562.009C1493.7 562.114 1492.73 563.509 1492.38 563.638C1491.29 563.878 1489.94 563.453 1488.82 563.724C1488.84 562.924 1487.7 563.224 1487.05 563.005C1486.41 562.787 1484.97 562.693 1483.46 562.33C1481.95 561.967 1480.17 560.943 1479 560.89C1479 560.89 1477.07 562.421 1476.26 561.776C1476.26 561.776 1476.34 561.012 1476.25 561.006C1474.15 560.935 1472.07 560.732 1470.01 560.396C1469.52 560.299 1469.12 559.64 1469.12 559.64C1466.37 559.267 1463.07 559.913 1461.07 559.117C1460.61 558.935 1461.21 558.343 1460.18 558.363C1459.68 558.329 1459.19 558.193 1458.77 557.966C1458.34 557.739 1457.98 557.425 1457.73 557.052C1457.47 556.679 1457.31 556.254 1457.27 555.812C1457.23 555.37 1457.31 554.923 1457.5 554.504C1455.68 553.599 1454.16 552.296 1453.09 550.716C1449.78 549.232 1448.7 552.73 1445.03 550.991C1443.08 549.578 1441 548.318 1438.8 547.22C1433.59 547.617 1428.39 547.001 1423.58 545.417C1420.38 546.736 1422.94 542.779 1420.89 543.125C1418.27 542.533 1415.48 542.621 1412.85 543.374C1411.71 543.324 1410.63 542.918 1409.82 542.23C1409.01 541.543 1408.52 540.616 1408.42 539.614C1404.92 541.489 1406.15 538.521 1403.95 537.384C1403.71 538.233 1401.9 537.832 1401.21 538.267C1400.19 539.185 1400.51 537.957 1398.54 538.339C1398.54 538.339 1398.09 539.056 1397.64 539.154C1397.19 539.253 1396.43 539.058 1395.85 539.212C1395.27 539.365 1395.12 539.964 1394.95 540.025C1394.25 540.179 1393.98 539.288 1394.06 539.269C1392.74 539.559 1392.5 539.767 1391.31 540.129C1391 540.197 1391.4 541.087 1390.42 540.943C1390.28 540.973 1390.35 539.825 1389.52 540.187C1387.95 540.937 1386.68 542.119 1385.93 543.545C1384.02 543.872 1382.17 544.462 1380.44 545.29C1380.1 545.531 1379.79 545.806 1379.52 546.11C1376.14 547.056 1372.59 546.446 1368.83 547.246C1367 549.6 1363.81 550.919 1358.96 550.671C1357.86 548.342 1353.94 552.775 1353.62 549.271C1351.68 549.08 1351.43 546.718 1349.17 546.265C1347.99 546.035 1346.58 546.831 1346.46 545.573C1346.33 544.316 1343.34 543.687 1342.05 543.354C1340.75 543.02 1338.81 543.551 1339.32 541.871C1338.34 541.11 1335.25 543.996 1334.86 543.569C1334.69 543.296 1334.44 543.08 1334.12 542.95C1333.8 542.821 1333.44 542.787 1333.09 542.853C1333.09 542.853 1331.91 544.961 1331.29 544.479C1330.99 544.142 1330.57 543.894 1330.1 543.765C1329.63 543.636 1329.12 543.631 1328.63 543.752C1327.27 544.573 1325.74 545.16 1324.15 545.482C1324.15 545.482 1323.18 544.433 1322.37 544.74C1322 544.82 1322.41 545.503 1321.47 545.553C1320.54 545.604 1319.49 544.808 1317.91 544.872C1317.91 544.872 1317.56 545.641 1317.01 545.685C1316.46 545.729 1316.14 545.515 1316.12 544.929C1312.7 545.216 1311.75 547.508 1308.95 548.276C1305.48 548.832 1305.32 546.499 1302.69 546.101C1299.88 545.124 1297.28 548.212 1296.43 546.29C1292.13 545.863 1287.94 544.944 1283.95 543.556C1282.48 543.619 1281 543.609 1279.48 543.685C1278.58 544.218 1278.57 545.506 1276.92 545.301C1275.07 544.627 1273.42 543.807 1271.57 543.108C1269.48 545.108 1267.11 543.11 1265.32 543.297C1264.65 543.445 1264.36 544.971 1262.59 544.95C1261.91 545.098 1261.21 543.891 1259.9 544.254C1256.82 544.571 1261.54 547.699 1259.02 547.429C1258.18 547.299 1257.31 547.388 1256.51 547.687C1255.71 547.986 1255.02 548.481 1254.52 549.11C1251.13 549.623 1253.17 554.754 1250.16 555.516C1248.75 557.24 1246.45 556.561 1244.85 557.992C1244.48 558.304 1242.68 559.779 1242.29 559.633C1241.9 559.488 1242.28 558.608 1241.4 558.878C1240.95 558.976 1241.82 560.61 1240.52 560.484C1240.52 560.484 1240.23 559.288 1239.62 559.728C1239.29 559.802 1238.88 562.258 1237.79 562.907C1237.3 563.195 1236.15 561.878 1235.12 562.979C1234.91 563.205 1236.17 564.034 1236.02 564.504C1235.87 564.975 1234.29 565.062 1234.23 566.131C1234.16 567.199 1233.12 566.786 1232.39 566.97C1227.65 567.419 1226.19 565.761 1223.46 568.056C1220.59 569.123 1222.87 565.615 1219.91 566.572C1218.56 563.321 1214.75 568.091 1210.08 566.879C1209.61 565.671 1209.16 566.85 1209.18 567.692C1206.67 567.678 1207.75 568.959 1205.6 567.809C1204.96 567.433 1204.23 567.18 1203.46 567.066C1202.69 566.952 1201.9 566.979 1201.13 567.146C1200.31 567.324 1199.55 568.443 1199.34 567.228C1196.98 568.338 1196.59 569.89 1197.54 571.97C1196.93 571.793 1196.27 571.772 1195.63 571.911C1195 572.051 1194.41 572.345 1193.95 572.758C1193.56 573.1 1193.4 574.907 1193.01 575.121C1191.49 576.149 1188.14 575.778 1186.75 577.703C1186.13 579.279 1185.06 577.583 1184.07 577.75C1182.22 578.156 1182.72 578.767 1181.51 579.368C1179.48 580.464 1177.67 581.843 1176.14 583.448C1175.18 584.219 1174.28 585.037 1173.42 585.896C1173.19 586.177 1173.75 587.236 1173.42 587.463C1173.09 587.689 1171.45 587.278 1171.64 588.316C1170.22 588.062 1170.08 589.199 1168.9 589.201C1168.42 589.153 1167.67 588.134 1167.12 588.434C1166.07 588.973 1165.25 589.976 1165.3 592.405C1162.59 591.947 1162.07 593.322 1159.95 593.35C1158.9 592.088 1158.04 593.768 1157.2 594.233C1156.93 594.447 1156.56 595.737 1156.29 595.823C1154.52 596.595 1153.87 595.711 1152.7 596.739C1151.53 597.767 1150.76 597.164 1149.1 597.527C1147.45 597.89 1142.97 598.668 1140.21 599.479C1139.81 599.565 1139.12 600.256 1139.28 600.298C1136.96 600.345 1137.69 597.151 1134.83 598.884C1133.89 599.446 1132.8 599.762 1131.68 599.792C1130.56 599.823 1129.47 599.567 1128.54 599.056C1127.52 598.869 1128.11 600.332 1127.66 600.662C1127.21 600.993 1126.24 600.409 1125.9 600.69C1125.1 601.302 1126.21 601.983 1124.99 602.303C1124.54 602.401 1123.58 602.124 1123.2 602.362C1122.81 602.601 1122.57 603.809 1122.31 603.943C1119.69 604.978 1117 605.845 1114.25 606.535C1113.46 606.091 1112.64 605.63 1112.46 606.595C1110.89 607.287 1109.39 608.114 1108 609.063C1105.25 609.898 1105.03 607.531 1101.69 608.52C1101.44 608.575 1100.6 609.246 1100.81 609.276C1098.94 609.353 1098.49 608.603 1097.22 608.624C1095.96 608.644 1095.38 609.695 1093.63 609.412C1093.63 609.412 1093.45 608.656 1092.73 608.633C1091.18 608.828 1089.62 608.605 1088.26 607.995C1086.31 606.846 1084.23 605.864 1082.05 605.063C1080.73 604.632 1079.71 604.909 1078.45 604.362C1078.06 604.216 1076.98 602.938 1076.69 602.847C1075.33 602.581 1073.6 603.139 1072.24 603.001C1070.88 602.864 1070.62 602.303 1069.55 602.28C1068.48 602.258 1065.7 604.307 1064.19 602.478C1063.98 602.729 1062.26 605.474 1060.59 605.685C1058.93 605.896 1060.24 608.022 1058.81 608.104C1058.51 608.087 1058.21 608.103 1057.91 608.15C1057.6 608.218 1054.51 610.464 1054.26 608.95C1050.4 610.105 1051.06 607.083 1048.91 606.757C1048.46 607.961 1048 606.801 1048.07 605.989C1047.06 606.211 1047.44 607.54 1046.22 607.628C1042.58 607.733 1043.04 604.392 1040.04 603.842C1040.42 603.915 1039.38 604.632 1039.11 604.639C1038.14 604.647 1038.52 603.918 1038.24 603.852C1035.99 603.575 1033.02 604.997 1030.15 604.88C1027.29 604.764 1025.98 603.765 1023 603.521C1021.65 603.816 1023.01 604.314 1023.01 604.314C1023.02 607.036 1022.28 604.732 1021.22 605.942C1020.92 606.291 1021.25 606.913 1020.32 606.756C1020.16 607.409 1019.42 607.568 1019.44 608.362C1017.51 610.148 1012.55 609.333 1012.26 612.508C1011.53 612.333 1011.35 611.808 1010.48 611.767C1008 611.643 1009.18 612.977 1006.91 611.907C1006.91 611.907 1006.58 610.541 1006.01 611.128C1005.44 611.715 1006.14 612.873 1004.22 612.755C1003.47 612.738 1003.35 611.969 1002.44 612.013C1002.44 612.013 1002.04 612.797 1001.52 612.835C998.615 613.06 993.038 611.764 992.584 616.233C989.095 616.716 986.009 618.985 981.802 617.363C981.208 617.108 980.558 614.913 980.049 616.592C981.086 616.725 980.536 617.384 980.035 617.391C977.125 617.857 974.158 617.72 971.373 616.992C968.588 616.263 966.062 614.963 964.001 613.197C963.559 613.275 963.107 613.229 962.709 613.063C962.311 612.898 961.988 612.622 961.789 612.278C961.59 611.934 961.525 611.539 961.602 611.15C961.68 610.761 961.896 610.401 962.219 610.119C960.76 610.439 960.686 609.4 959.538 609.421C958.386 610.033 958.06 608.692 957.756 608.656C956.358 608.5 956.24 609.477 955.02 609.565C955.02 609.565 954.201 608.87 954.043 608.827C952.001 608.453 950.427 610.006 947.788 610.585C948.069 610.524 947.367 609.7 946.896 609.83C946.424 609.959 946.232 611.362 945.102 611.456C943.387 611.575 942.54 612.352 941.481 612.25C941.116 612.33 939.074 610.491 938.79 610.785C938.611 611.057 938.347 611.281 938.031 611.428C937.715 611.575 937.36 611.638 937.01 611.612C934.235 611.141 935.322 611.109 932.549 611.743C932.869 610.259 930.444 610.867 929.858 610.276C929.271 609.684 929.222 608.874 928.072 608.766C928.353 608.705 927.631 609.995 927.198 609.55C926.326 608.505 925.107 607.725 923.698 607.31C923.168 607.195 922.557 606.377 921.929 606.592C921.704 606.641 921.918 607.649 920.998 607.388C920.676 607.279 921.029 606.66 920.1 606.607C918.571 606.276 917.091 605.809 915.682 605.212C915.36 605.103 914.109 605.556 913.892 605.27C913.054 604.374 912.545 605.077 911.205 604.548C910.786 604.409 910.625 603.134 910.331 603.019C910.037 602.903 908.366 603.449 907.63 603.097C906.894 602.744 907.661 602.37 906.737 602.341C904.32 602.165 901.867 602.509 899.59 603.343C899.141 603.442 899.021 604.779 898.674 604.933C897.805 605.332 896.88 605.622 895.927 605.792C895.195 605.824 895.092 605.641 895.034 605.037C892.159 606.104 894.443 602.598 891.466 603.61C889.15 603.81 889.279 603.37 887.017 602.941C886.086 602.759 886.616 602.386 886.124 602.185C885.632 601.984 882.589 601.624 882.578 600.727C882.436 598.676 881.776 601.443 878.965 600.825C878.769 600.868 878.788 600.094 878.107 600.089C877.426 600.084 877.403 599.137 877.233 598.557C876.443 599.322 871.531 600.401 870.92 598.735C866.094 598.946 866.853 594.15 861.174 595.113C860.479 594.443 860.168 593.406 859.401 592.803C859.078 592.565 857.914 593.131 857.613 592.863C857.311 592.594 857.906 591.513 857.617 591.294C856.186 590.271 854.544 589.962 853.143 589.061C852.655 588.757 853.298 588.359 852.285 588.324C850.686 588.315 850.237 586.949 848.786 586.084C847.258 585.407 845.774 584.66 844.34 583.846C845.074 581.628 843.387 581.741 842.593 580.785C841.878 580.086 841.28 579.301 840.815 578.451C838.308 578.572 835.836 578.103 833.656 577.091C833.284 577.019 832.811 576.041 831.858 576.379C831.606 576.434 831.838 577.516 830.962 577.194C830.73 577.091 831.182 575.784 830.966 575.625C830.261 575.035 828.487 576.863 827.403 576.536C827.403 576.536 826.99 575.931 826.504 575.755C825.884 575.558 825.289 575.31 824.727 575.013C824.38 574.811 824.078 574.555 823.835 574.258C820.912 573.602 817.921 573.175 814.893 572.981C813.85 572.824 813.167 571.714 810.444 572.311C809.322 572.557 802.681 575.531 801.502 571.034C801.334 571.071 797.105 572.77 797.042 572.758C795.019 570.631 795.598 573.872 793.472 572.051C791.345 570.229 786.124 572.351 781.816 571.651C781.816 571.651 781.638 570.918 780.923 570.895C778.485 570.839 779.456 569.598 776.494 569.451C776.001 569.251 774.182 571.5 773.929 571.067C772.8 569.824 772.345 570.876 769.467 571.199C767.938 571.354 765.759 571.266 764.094 571.349C763.392 571.502 763.237 572.206 762.32 572.201C762.067 572.257 761.47 571.256 760.516 571.466C758.596 571.996 756.794 572.836 755.204 573.942C753.66 572.815 751.928 574.454 749.851 574.91C749.009 575.094 748.015 574.772 747.178 574.981C746.342 575.191 746.61 576.418 746.297 576.59C745.098 577.135 742.996 576.388 740.93 576.765C740.93 576.765 740.478 578.072 740.033 577.578C740.033 577.578 740.08 576.796 740.024 576.808C738.203 576.801 736.4 576.583 734.663 576.159C734.663 576.159 731.178 575.562 731.098 575.477C731.018 575.391 731.219 574.756 731.117 574.701C730.523 574.446 729.059 574.382 728.436 574.005C727.812 573.628 727.954 572.748 727.528 572.456C727.102 572.164 723.962 571.773 724.855 570.214C723.05 570.816 721.278 572.773 719.491 571.134C718.033 570.117 714.898 570.6 714.141 568.941C711.008 568.214 709.316 572.57 706.994 569.943C704.474 570.322 701.923 569.841 699.869 568.6C699.79 571.933 695.151 567.553 693.608 570.333C691.079 568.317 692.263 573.199 688.124 572.101C685.436 573.205 685.342 570.502 684.619 569.838C684.296 569.601 683.132 570.164 682.83 569.896C682.113 569.256 682.744 567.344 681.088 567.708C680.324 567.218 679.391 566.963 678.428 566.98C678.259 567.017 677.48 568.191 677.488 567.007C675.862 567.492 675.213 565.911 673.948 565.572C673.344 565.396 670.273 565.17 670.36 564.919C669.56 565.763 669.911 565.018 668.594 564.948C667.276 564.877 666.904 565.781 666.757 565.787C666.099 565.752 665.81 565.173 665.015 565.065C662.973 564.69 660.886 564.493 658.784 564.478C657.151 564.45 656.851 565.287 655.162 565.272C653.474 565.257 653.307 564.445 651.569 564.594C650.094 565.946 649.249 567.828 646.222 567.901C644.555 566.39 642 567.439 639.961 567.32C637.898 567.002 635.807 566.81 633.702 566.742C632.992 566.743 632.169 567.488 630.948 567.576C629.728 567.664 630.422 566.87 630.089 566.84C627.75 567.475 625.33 567.806 622.908 567.823C620.031 567.783 617.251 567.061 614.862 565.733C613.111 568.019 609.278 565.621 606.822 565.98C604.864 563.633 602.666 564.322 599.677 563.821C599.677 563.821 598.575 564.884 597.902 564.671C597.23 564.459 597.215 563.178 597.001 563.148C593.904 562.568 590.438 564.125 587.202 562.727C587.233 565.29 584.567 563.073 582.689 565.207C582.147 564.067 580.838 565.253 580.9 565.265C579.337 564.914 579.151 563.902 577.416 563.82C576.787 564.277 576.052 564.603 575.268 564.774C574.484 564.946 573.672 564.96 572.897 564.811C572.624 563.689 570.306 564.608 570.257 563.308C570.061 562.502 568.021 562.744 567.527 563.392C565.254 563.891 565.434 561.101 564.896 560.345C564.072 559.276 563.172 558.254 562.203 557.285C561.599 556.621 560.942 556.713 560.48 555.786C560.409 555.493 560.706 554.4 560.456 554.224C560.206 554.047 558.239 554.709 557.784 554.295C557.329 553.881 558.089 552.996 557.788 552.728C556.157 551.914 554.324 551.438 552.424 551.334C552.424 551.334 552.099 549.992 551.532 550.579C550.953 551.084 550.231 551.441 549.448 551.612C548.664 551.784 547.85 551.764 547.097 551.551C546.815 551.485 546.088 550.925 546.154 550.833C544.036 551.233 541.958 551.809 539.95 552.554C539.669 552.615 539.938 553.48 539.019 553.348C538.795 553.397 538.986 552.481 538.16 552.611C535.783 553.046 533.385 553.376 530.979 553.597C529.55 553.679 529.433 552.83 528.303 552.924C527.173 553.017 526.646 554.136 523.868 553.897C524.008 553.866 523.554 552.603 522.947 553.147C521.042 555.287 520.946 552.944 518.476 552.509C518.007 552.406 517.185 552.793 516.709 552.537C515.647 552.179 515.11 551.549 514.018 551.069C512.926 550.589 510.042 550.399 507.771 549.689C506.578 549.282 505.832 548.521 504.197 548.238C502.696 548.094 501.21 547.87 499.748 547.568C499.24 549.864 498.372 546.405 497.038 546.878C496.271 546.275 496.518 544.73 495.352 544.677C495.014 545.111 492.535 545.988 491.773 544.793C489.466 544.424 487.269 544.626 484.63 544.228C484.461 544.265 484.453 543.495 483.738 543.472C481.564 543.409 480.049 543.742 478.383 542.848C476.718 541.954 476.755 543.204 472.953 543.01C472.953 543.01 472.764 542.227 472.083 542.223C469.128 542.228 465.636 544.409 463.146 543.285C461.059 543.331 459.315 541.992 457.796 541.092C456.974 540.629 455.741 541.027 455.114 540.393C454.487 539.76 454.935 538.556 454.213 538.02C452.68 538.768 452.735 541.558 450.625 539.681C448.514 537.805 447.011 539.164 443.473 538.347C442.784 538.19 441.991 536.873 441.709 536.806C440.644 536.68 437.905 539.286 434.558 539.378C435.25 536.99 432.664 538.635 432.76 538.665C427.337 538.004 421.121 535.899 415.804 536.037C415.243 536.16 414.632 534.006 414.025 534.551C412.242 536.098 413.126 534.748 411.336 533.83C410.145 533.063 408.092 535.081 407.743 534.618C406.905 533.722 405.048 534.72 404.178 533.934C403.21 533.119 401.958 532.61 400.604 532.482C400.604 532.482 400.285 531.164 399.711 531.726C398.289 533.298 396.715 531.562 394.357 531.102C393.681 530.994 391.228 531.608 390.785 531.243C390.342 530.877 390.894 530.474 390.77 530.45C388.554 530.018 386.442 529.283 384.508 528.275C384.283 528.324 382.509 529.664 381.759 529.135C380.463 528.057 380.502 528.947 378.187 529.275C377.485 529.429 377.28 530.168 376.407 530.103C375.534 530.037 374.436 529.045 371.945 530.234C369.118 527.23 363.437 529.529 360.321 528.259C357.898 528.996 358.756 526.803 356.769 526.776C355.581 526.754 356.515 525.728 355.868 525.253C355.22 524.778 352.921 524.562 353.166 525.331C352.196 524.385 351.325 523.364 350.564 522.277C349.648 521.424 348.177 521.334 347.858 520.016C346.555 519.274 345.341 520.851 345.111 520.876C344.465 521.018 343.739 520.1 342.519 520.187C342.715 520.144 341.779 520.914 341.588 520.981C339.68 521.4 339.212 520.449 337.989 520.281C336.159 519.961 334.372 519.492 332.653 518.88C331.705 518.626 329.847 519.496 329.041 518.978C328.236 518.461 329.305 517.019 328.196 517.443C326.734 516.17 322.91 516.983 320.112 516.903C319.911 516.073 318.367 516.409 318.361 515.408C317.925 514.707 317.545 513.995 316.576 513.899C316.352 511.146 313.229 515.945 313.004 513.192C311.092 512.377 309.44 512.509 307.641 511.798C307.053 511.567 306.354 510.511 305.856 510.286C305.358 510.061 304.311 510.624 304.066 510.344C303.103 509.296 304.105 508.433 302.295 508.162C301.113 508.108 299.925 508.139 298.74 508.25C298.74 508.25 298.695 507.334 297.847 507.494C297.651 507.537 297.806 508.3 296.951 508.307C296.095 508.315 295.352 508.299 295.153 507.597C292.729 505.893 289.263 505.135 287.152 503.131C286.113 503.359 286.409 504.579 286.223 505.519C285.481 504.995 284.535 504.736 283.564 504.792C282.583 504.647 282.976 503.223 281.806 503.274C282.791 505.629 275.82 502.968 274.631 504.283C274.025 504.956 273.594 506.594 271.941 506.725C270.945 506.763 270.144 508.944 269.221 509.892C268.298 510.84 267.169 511.551 266.553 512.303C266.062 514.544 265.398 513.146 263.811 513.186C262.602 513.395 261.403 513.658 260.219 513.974C259.854 514.054 259.074 514.74 259.232 514.782C257.218 514.89 257.32 512.991 255.72 513.341C255.131 513.471 255.116 515.119 253.926 514.968C252.847 514.295 251.636 513.795 250.346 513.491C250.627 513.43 249.917 514.281 249.45 514.307C248.983 514.332 248.473 513.57 248.557 513.551C246.715 513.949 244.92 514.522 243.208 515.264C243.61 516.923 238.137 514.345 236.065 514.697C236.065 514.697 235.843 515.491 235.174 515.535C231.892 515.917 228.588 516.013 225.31 515.822C223.591 515.557 224.116 515.287 220.826 515.983C220.545 516.045 219.255 515.84 219.06 516.012C217.782 517.448 218.32 515.402 217.283 515.27C216.246 515.138 215.774 517.092 214.585 516.942C214.585 516.942 212.603 515.475 211.925 516.215C211.247 516.955 209.473 517.318 206.544 517.189C204.157 517.096 202.68 517.831 201.205 517.357C200.493 517.102 200.082 515.29 199.434 515.175C197.602 514.446 194.861 514.971 193.2 512.996C190.416 512.733 190.777 515.197 188.721 515.494C189.07 516.934 185.814 515.694 185.129 516.282C184.443 516.869 183.845 517.206 181.512 517.949C181.512 517.949 181.157 519.288 180.616 518.764C180.075 518.24 179.721 517.752 178.84 518.023C178.391 518.121 178.249 519.487 177.952 519.604C177.011 519.99 175.57 518.56 175.276 518.933C174.293 519.997 174.467 518.518 172.598 518.979C170.582 519.742 168.341 519.821 166.325 519.2C164.491 518.831 164.875 518.952 161.829 519.312C158.783 519.672 155.748 518.615 152.031 518.891C149.262 517.956 150.91 521.706 148.457 521.345C148.457 521.345 148.161 520.124 147.565 520.589C147.319 520.797 148.917 522.144 147.57 522.928C147.184 523.167 146.201 522.893 145.78 522.986C145.359 523.078 145.13 523.719 144.855 523.805C143.48 524.107 141.876 521.761 142.114 524.69C140.049 524.418 137.931 524.482 135.863 524.879C135.182 524.874 134.889 523.909 134.065 524.167C133.812 524.222 134.074 524.936 133.168 524.98C132.262 525.025 130.656 525.225 130.509 524.255C127.797 524.284 128.069 526.383 125.209 526.779C122.801 526.701 120.404 526.505 118.031 526.194C117.378 526.183 115.497 527.933 115.353 526.242C114.27 527.019 112.857 527.046 111.804 527.945C111.537 528.184 112.13 529.288 111.8 529.514C111.025 530.096 109.51 529.579 110.007 531.141C108.92 531.045 108.407 531.492 108.171 531.981C106.5 530.574 104.718 532.739 102.813 532.925C100.907 533.112 100.524 532.142 99.2532 532.267C97.9825 532.391 97.2814 533.522 95.6932 533.921C94.1051 534.321 93.173 534.012 92.0726 534.716C90.3985 538.784 86.2735 540.794 82.2113 542.816C79.4424 542.37 80.4666 542.326 77.7497 542.948C77.6018 542.338 76.8567 542.191 76.8475 541.422C76.8385 540.653 75.9534 541.028 75.9639 541.436C75.4382 542.194 73.4973 542.722 75.0546 543.049C75.5808 543.756 77.5724 544.168 75.9562 544.574C73.7986 542.991 74.0751 543.522 70.6018 543.95C68.2422 543.362 68.9878 545.46 67.0199 545.634C66.683 545.708 63.4732 547.466 63.4246 548.12C63.3497 549.396 63.3427 550.708 62.5332 551.272C62.1684 551.352 60.9713 551.049 60.7379 551.306C60.5046 551.563 60.8976 551.963 60.6908 552.086C60.4841 552.208 59.2478 551.864 58.9022 552.146C58.5566 552.427 59.6461 553.14 59.8233 552.895C58.3037 554.796 59.002 552.56 56.2439 553.01C56.2439 553.01 56.0389 553.75 55.3534 553.849C54.668 553.948 51.4937 554.875 51.7696 553.941C48.3293 555.724 49.9501 552.413 45.5313 553.331C42.4876 552.97 41.5914 554.759 40.2251 555.83C39.5381 555.801 39.3712 554.99 38.4552 555.114C38.2405 555.171 38.0439 555.275 37.8865 555.418C37.7292 555.561 37.6164 555.737 37.5587 555.927C36.5852 555.935 37.0328 555.221 36.6605 555.148C35.6854 555.028 35.1601 556.763 34.1022 556.79C32.1328 556.836 30.8488 553.493 26.962 554.654C25.6708 554.937 25.2819 555.408 23.3742 554.001C22.4027 556.091 19.5848 554.833 18.0621 556.478C17.4447 557.101 17.3523 558.793 16.2221 558.886C15.0919 558.98 15.9507 561.181 14.4438 561.306C12.9368 561.431 14.1419 562.376 13.5629 562.914C12.9839 563.452 11.995 562.665 11.7675 562.946C11.0675 563.717 11.7626 563.9 10.8468 564.512C10.5232 564.763 9.32457 564.332 9.0632 564.595C8.80173 564.858 9.07576 566.597 7.27019 566.222C6.00086 565.498 4.78136 567.049 4.5287 567.105C3.76347 567.118 3.15939 566.094 1.84017 566.384C1.41915 566.476 -0.41026 569.295 -3.63734 568.177C-6.1898 569.843 -6.41495 573.182 -10.8458 573.074C-10.0857 575.478 -13.1776 574.794 -13.5658 576.242C-13.9538 577.689 -17.775 576.316 -18.0315 577.94C-20.0255 579.714 -21.6598 581.024 -23.4115 582.822C-24.5516 583.971 -24.8281 583.441 -26.0789 585.232C-25.8028 584.786 -24.8908 585.743 -25.1863 585.988C-25.8893 586.502 -26.9176 586.65 -27.0355 587.627C-30.2148 588.17 -32.4127 587.88 -36.8551 588.701C-36.8754 589.836 -33.1119 591.094 -36.8438 591.065C-40.2071 589.386 -39.8691 593.707 -41.3699 594.344C-41.7068 594.418 -42.9259 594.146 -43.1371 594.373C-43.3482 594.599 -42.651 596.374 -43.1473 596.766C-43.6436 597.157 -44.7436 596.523 -44.915 596.792C-45.6475 597.672 -45.0726 599.191 -46.7555 599.201C-49.9341 600.364 -53.2248 601.251 -56.579 601.846C-56.9995 603.403 -59.5634 601.729 -61.0748 601.958C-62.5861 602.187 -63.2932 603.292 -64.6508 603.667C-67.0059 603.464 -66.9551 605.381 -67.3712 606.835C-70.5273 606.01 -71.3203 608.471 -72.6777 609.334C-73.2701 609.695 -73.517 609.289 -73.5742 610.149C-73.7124 612.262 -77.5959 609.41 -77.1413 612.626C-78.673 613.991 -80.0665 612.754 -81.6371 612.739C-82.5826 612.74 -82.1973 612.013 -82.5017 611.977C-83.669 611.796 -84.6552 614.069 -86.097 614.462C-89.1162 614.964 -92.1061 615.62 -95.0512 616.426C-97.3318 617.503 -99.7319 618.358 -102.208 618.974C-103.076 621.735 -105.531 622.093 -107.574 623.055C-108.024 623.153 -108.734 624.003 -109.383 623.888C-110.031 623.774 -109.372 622.834 -110.275 623.135C-110.668 623.221 -110.844 624.57 -111.157 624.741C-112.815 625.465 -116.966 625.168 -120.127 625.784C-121.992 626.63 -122.388 627.797 -124.578 628.277C-127.637 628.948 -131.481 627.606 -133.515 629.337C-134.234 629.906 -134.497 631.994 -137.144 631.803C-137.719 631.75 -138.105 630.884 -138.897 631.032C-140.497 631.383 -142.331 631.502 -144.278 632.007C-146.225 632.511 -147.058 633.466 -148.744 633.707C-150.815 633.921 -152.898 633.981 -154.967 633.888C-154.967 633.888 -155.214 634.818 -155.863 634.703C-156.094 634.397 -156.399 634.139 -156.756 633.948C-157.671 633.711 -158.51 634.151 -158.554 633.235C-160.147 633.25 -160.133 634.893 -161.278 635.658C-161.836 636.038 -163.33 635.364 -163.95 635.732C-164.57 636.099 -163.742 637.689 -164.838 637.313C-167.637 636.256 -169.791 637.732 -172.032 639.097C-172.656 639.697 -176.397 641.211 -175.592 638.439C-177.17 638.271 -177.406 639.247 -176.488 639.252C-176.553 640.448 -177.478 639.316 -177.394 639.297C-178.072 639.382 -178.704 639.676 -179.174 640.125C-179.688 640.443 -179.003 640.831 -180.065 640.961C-181.576 641.127 -183.066 641.454 -184.501 641.934C-184.942 643.162 -187.307 642.551 -186.331 645.113C-187.121 645.877 -188.366 645.867 -189.924 645.901C-189.672 645.845 -190.406 644.644 -190.816 645.145C-192.233 646.741 -193.677 645.541 -196.184 645.32C-196.437 645.375 -197.657 646.44 -197.964 646.147C-198.272 645.855 -197.836 644.603 -197.96 644.578C-200 644.332 -201.414 646.185 -204.209 646.362C-206.132 646.475 -206.576 645.622 -207.78 645.655C-208.454 645.802 -208.748 646.662 -209.583 646.511C-209.835 646.567 -209.531 645.626 -210.475 645.756C-211.419 645.886 -211.898 646.839 -213.223 646.615C-214.924 645.087 -218.67 645.241 -221.24 644.519C-225.969 643.912 -223.473 649.456 -228.424 648.666C-228.924 649.293 -229.616 649.784 -230.415 650.083C-231.213 650.381 -232.085 650.474 -232.923 650.347C-235.456 649.9 -235.898 651.976 -237.396 652.87C-237.817 652.962 -238.714 652.799 -239.163 652.898C-240.202 653.126 -239.495 653.356 -240.059 653.711C-240.624 654.066 -241.361 655.05 -241.852 655.338C-243.145 655.981 -244.79 655.416 -246.344 656.323C-246.624 656.384 -246.025 657.641 -246.348 657.892C-247.106 658.546 -249.909 657.466 -248.917 659.485C-252.441 659.461 -248.627 660.681 -250.729 661.887C-253.522 662.783 -256.219 663.917 -258.778 665.272C-259.819 662.929 -259.747 666.513 -257.884 666.027C-258.258 669.117 -264.904 666.95 -265.068 670.174C-268.914 670.04 -268.547 673.506 -271.347 674.274C-273.446 673.784 -275.873 675.114 -278.509 674.484C-277.634 674.677 -283.122 671.306 -284.756 673.104C-284.756 673.104 -284.573 673.861 -284.747 673.874C-285.393 674.015 -285.78 673.149 -285.64 673.118C-286.98 673.384 -288.22 673.977 -289.216 674.827C-289.92 675.213 -291.988 675.588 -291.927 676.449C-291.866 677.31 -293.698 676.58 -295.52 677.237C-296.617 677.709 -297.001 678.565 -298.077 678.878C-298.849 681.181 -300.296 677.901 -302.54 679.01C-303.321 679.567 -303.075 681.312 -304.352 681.412C-306.848 681.6 -305.657 682.366 -307.041 683.852C-308.334 685.589 -309.836 687.204 -311.52 688.665C-312.647 689.338 -313.847 689.911 -315.097 690.375C-315.519 690.467 -314.932 691.058 -315.994 691.188C-319.424 691.426 -322.611 692.306 -323.168 696.104C-324.553 696.105 -325.917 696.503 -327.051 697.24C-328.186 697.976 -329.03 699.01 -329.452 700.182C-332.483 700.846 -335.977 700.944 -337.677 702.833C-340.013 702.343 -339.374 704.491 -340.345 705.244C-341.342 704.666 -342.468 706.609 -343.081 706.152C-343.081 706.152 -345.034 704.68 -345.791 705.462C-345.987 705.505 -345.435 706.927 -345.795 707.031C-346.889 707.271 -348.273 706.804 -349.35 707.117C-350.427 707.43 -350.971 708.114 -351.139 707.175C-353.221 707.246 -353.783 705.904 -356.493 706.55C-357.706 707.767 -359.132 707.129 -360.985 707.535C-361.181 707.579 -361.049 708.243 -361.881 708.349C-362.769 708.275 -363.668 708.292 -364.56 708.397C-364.56 708.397 -364.382 709.129 -364.545 709.19C-367.464 709.716 -370.445 709.795 -373.356 709.426C-374.986 709.167 -378.906 709.461 -378.688 706.457C-379.705 706.166 -381.27 707.024 -382.266 706.575C-382.662 706.404 -382.846 705.158 -383.168 705.049C-383.49 704.94 -384.375 705.315 -384.957 705.109C-384.957 705.109 -387.576 704.424 -387.616 704.381C-387.656 704.339 -387.524 703.666 -387.632 703.586C-388.266 703.288 -388.833 702.412 -389.417 702.077C-390 701.742 -392.273 701.391 -393.875 700.637C-394.339 700.431 -393.732 699.888 -394.767 699.884C-395.943 699.778 -397.137 699.823 -398.311 700.018C-398.676 700.098 -399.417 700.826 -399.248 700.789C-399.922 700.937 -400.096 699.971 -401.018 700.071C-401.94 700.17 -402.442 701.514 -405.506 701.8C-406.689 701.765 -407.877 701.796 -409.062 701.888C-408.922 701.858 -409.474 703.238 -409.959 702.702C-411.116 701.465 -411.176 702.684 -412.626 702.797C-413.358 702.828 -413.574 703.521 -414.462 703.638C-417.137 703.938 -419.828 704.02 -422.502 703.885C-424.799 703.798 -425.958 702.431 -428.74 703.273C-430.364 702.061 -428.077 700.764 -430.496 699.444C-431.567 700.088 -432.857 700.371 -434.117 700.238C-433.691 701.995 -435.809 701.43 -435.895 702.657C-438.583 702.913 -441.207 705.135 -445.728 704.533C-446.566 704.228 -447.476 704.086 -448.396 704.116C-449.316 704.145 -450.227 704.344 -451.067 704.701C-451.236 704.738 -451.409 705.366 -452.026 705.502C-454.806 705.582 -457.548 705.133 -460.062 704.182C-461.655 703.708 -462.427 704.185 -463.628 703.498C-464.252 703.12 -464.193 701.898 -465.357 701.974C-467.708 701.179 -469.673 701.122 -471.604 700.594C-472.834 700.456 -474.044 700.233 -475.226 699.925C-475.576 699.821 -476.694 698.499 -476.949 698.426C-480.221 698.314 -483.508 698.408 -486.784 698.707C-485.864 696.526 -489.452 698.187 -490.352 697.279C-491.252 696.371 -489.954 695.752 -491.232 695.724C-492.51 695.696 -492.87 695.312 -493.92 695.003C-496.812 694.172 -500.9 694.991 -502.849 692.925C-504.561 693.669 -506.352 694.251 -508.192 694.662C-508.568 694.858 -508.878 695.14 -509.089 695.476C-510.043 695.685 -511.464 694.455 -511.832 694.767C-512.867 695.739 -512.538 696.002 -514.391 696.408C-516.243 696.814 -519.062 697.021 -521.539 697.41C-522.129 697.54 -522.574 698.384 -523.313 698.263C-524.051 698.142 -523.273 697.329 -524.205 697.507C-525.137 697.686 -525.54 698.34 -526.953 698.367C-528.365 698.394 -528.924 697.797 -530.541 697.715C-533.829 697.887 -537.114 697.746 -540.34 697.294C-541.361 696.13 -542.883 695.461 -544.022 694.298C-545.746 694.81 -547.532 695.115 -549.331 695.205C-549.366 695.058 -549.79 694.406 -550.273 694.487C-550.756 694.567 -551.143 697.118 -553.884 696.177C-554.847 696.158 -555.776 695.909 -556.571 695.456C-558.042 694.75 -557.674 694.44 -560.11 694.023C-561.007 693.86 -560.523 693.419 -561.003 693.267C-562.818 692.902 -564.6 692.434 -566.338 691.867C-566.734 691.697 -567.842 690.422 -568.124 690.356C-568.406 690.289 -572.825 691.207 -573.491 690.531C-574.415 689.525 -574.811 690.332 -577.959 690.637C-579.454 690.811 -580.914 690.642 -582.415 690.791C-583.387 694.218 -587.366 693.293 -589.6 693.346C-591.087 693.561 -592.59 693.621 -594.079 693.53C-594.108 693.408 -593.976 692.736 -594.044 692.699C-594.112 692.663 -595.615 693.045 -595.832 692.759C-596.049 692.472 -595.739 692.045 -595.847 691.966C-595.955 691.887 -597.419 692.311 -597.63 692.049C-597.842 691.786 -597.516 691.302 -597.646 691.254C-597.776 691.205 -599.161 691.587 -599.435 691.313C-600.022 690.722 -599.036 689.785 -600.308 689.782C-601.269 689.752 -602.196 689.504 -602.996 689.06C-603.642 688.714 -603.842 687.524 -604.748 687.568C-605.654 687.613 -606.17 688.652 -607.496 688.428C-608.026 688.313 -608.332 687.659 -608.366 687.641C-610.468 687.574 -612.556 687.389 -614.62 687.085C-615.016 686.915 -614.539 686.322 -615.54 686.336C-616.615 686.131 -617.594 685.67 -618.371 685.003C-619.147 684.335 -619.693 683.485 -619.948 682.547C-620.501 682.225 -621.108 681.979 -621.751 681.814C-622.045 681.698 -623.324 682.157 -623.519 681.84C-624.106 681.249 -624.733 680.977 -625.304 680.331C-626.986 678.515 -628.43 681.582 -631.564 679.75C-633.076 677.049 -633.386 681.744 -635.146 681.436C-635.329 680.68 -639.099 680.247 -640.481 680.036C-644.625 679.462 -648.888 679.602 -653.034 680.45C-654.523 680.648 -654.97 681.363 -656.626 681.238C-657.403 681.202 -657.992 680.483 -659.247 680.553C-659.247 680.553 -659.682 681.317 -660.177 681.349C-662.943 681.285 -665.664 680.84 -668.241 680.033C-667.96 679.971 -668.661 681.229 -669.116 680.815C-669.571 680.4 -668.855 679.575 -669.112 679.246C-669.619 679.717 -670.238 679.725 -670.886 680.098C-671.741 680.529 -672.668 680.827 -673.628 680.981C-674.47 681.166 -674.227 681.68 -674.523 681.797C-677.412 682.889 -680.625 682.987 -683.504 682.07C-683.854 681.967 -683.401 681.276 -684.396 681.314C-685.392 681.353 -686.513 683.193 -687.918 681.419C-688.403 680.883 -687.652 679.714 -688.82 679.894C-691.06 678.946 -692.53 682.275 -693.316 680.006C-695.103 679.832 -695.057 677.946 -696.815 677.766C-698.364 677.876 -699.892 678.211 -701.335 678.757C-702.036 678.911 -702.175 679.56 -703.092 679.555C-704.01 679.551 -703.929 678.787 -704.857 678.862C-704.66 678.819 -705.343 680.15 -705.788 679.657C-706.997 678.328 -709.868 679.165 -713.809 679.129C-714.127 679.411 -714.533 679.602 -714.971 679.675C-715.41 679.748 -715.857 679.699 -716.251 679.536C-716.646 679.374 -716.968 679.105 -717.172 678.767C-717.376 678.429 -717.452 678.039 -717.389 677.652C-721.107 681.218 -726.812 680.003 -731.697 680.458C-733.497 680.596 -734.002 681.195 -735.262 681.24C-735.309 681.045 -735.838 680.081 -736.21 680.497C-736.21 680.497 -736.045 681.18 -736.196 681.29C-736.414 681.257 -736.617 681.172 -736.783 681.046C-736.949 680.92 -737.071 680.757 -737.138 680.572C-739.622 680.936 -741.169 681.995 -743.343 682.292C-744.357 682.257 -948.252 633.27 -949.127 633.076L-761.498 14.7244L1518.3 0.137602Z" fill="#FBEBE8"/>
</svg>
