<svg width="1920" height="1691" viewBox="0 0 1920 1691" fill="none" xmlns="http://www.w3.org/2000/svg">
<rect x="-18.9999" y="174" width="1978" height="712" fill="#FBEBE8"/>
<path d="M2009.5 231.5L2356.77 938.219L2352.88 939.928C2352.88 939.928 2350.76 938.926 2349.55 939.019C2347.78 939.428 2347.66 937.949 2346.26 938.071C2344.86 938.193 2345.15 939.132 2344.06 939.182C2342.97 939.232 2342.92 938.206 2341.83 938.224C2340.73 938.242 2340.72 939.316 2339.62 939.302C2334.71 939.296 2327.58 936.624 2321.87 938.877C2321.21 939.03 2320.67 940.524 2319.68 940.955C2318.68 941.386 2317.52 941.454 2316.28 942.108C2315.69 942.412 2316.49 943.03 2315.17 943.168C2313.84 943.305 2313.99 942.169 2312.94 942.243C2311.89 942.316 2307.97 943.89 2305.15 944.508C2304.87 944.572 2303.17 944.328 2302.93 944.582C2301.35 946.454 2300.5 942.464 2298.53 944.694C2297.03 946.447 2295.15 944.335 2291.86 945.963C2290.93 944.47 2290.21 942.763 2287.52 943.015C2286.55 940.258 2283.65 944.176 2281.99 944.29C2280.46 947.188 2277.41 940.324 2275.35 943.477C2273.95 941.858 2273.41 943.29 2270.94 942.619C2270.55 942.477 2270.97 941.639 2269.83 941.602C2266.89 941.544 2266.97 938.546 2264.3 938.727C2264.09 938.775 2263.21 940.05 2262.1 939.837C2261.85 939.894 2261.88 938.882 2260.98 938.82C2256.88 938.512 2252.82 937.963 2248.81 937.175C2247.74 938.012 2246.5 938.647 2245.18 939.039C2243.85 939.431 2242.46 939.573 2241.1 939.457C2239.56 939.434 2238.05 939.145 2236.65 938.607C2236.65 938.607 2236.75 937.582 2236.63 937.574C2234.99 936.949 2232.89 937.231 2231.12 936.702C2230.88 936.758 2230.73 935.015 2230.01 934.715C2228.53 934.185 2225.78 936.091 2225.55 935.741C2224.86 934.963 2224.74 933.789 2223.33 933.712C2222.4 930.812 2220.55 935.157 2217.81 933.914C2217.08 931.872 2212.6 933.407 2212.27 931.039C2210.91 930.349 2210.42 932.068 2210.07 932.116C2207.43 932.726 2207.94 930.999 2205.63 930.192C2205.28 930.273 2203.68 930.641 2203.42 930.267C2202.69 929.498 2201.56 929.993 2199.01 929.409C2197.89 929.165 2196.59 927.993 2194.59 928.521C2193.74 928.6 2192.91 928.835 2192.15 929.212C2191.38 929.589 2190.7 930.099 2190.15 930.715C2188.86 931.648 2188.09 933.034 2186.78 933.904C2186.4 933.992 2185.32 932.8 2184.58 932.905C2182.21 933.45 2184.09 937.136 2180.16 937.271C2177.35 938.724 2174.69 937.06 2172.43 936.476C2172.05 936.398 2172.22 935.554 2171.33 935.492C2171.05 935.556 2170.46 935.692 2170.21 935.549C2165.51 934.612 2160.65 934.41 2155.82 934.949C2154.13 935.103 2153.79 936.154 2152.43 936.132C2151.07 936.111 2151.34 935.077 2150.23 935.166C2145.77 935.324 2141.31 935.815 2136.91 936.633C2136.07 936.733 2135.28 937.106 2134.69 937.68C2134.69 937.68 2134.23 939.462 2133.58 938.74C2132.01 936.993 2133.44 939.209 2132.47 939.799C2131.51 940.389 2129.99 939.534 2129.17 939.925C2128.34 940.317 2129.38 940.847 2128.06 940.985C2126.73 941.122 2126.52 942.879 2125.77 943.119C2125.02 943.359 2123.32 941.407 2122.47 942.172C2122.47 942.172 2122.5 943.103 2122.48 943.174C2116.17 943.895 2112.29 943.917 2109.18 940.584C2107.96 940.864 2108.25 942.438 2108.1 943.679L2103.66 943.799C2102.54 940.708 2102.54 946.735 2101.41 946.928C2099.51 945.357 2094.57 946.665 2093.73 944.115C2090.17 944.567 2090.7 944.811 2088.13 944.299C2086.3 944.089 2084.44 944.148 2082.6 944.47C2082.03 945.004 2082.98 946.893 2082.61 947.514C2082.24 948.135 2080.22 949.874 2080.35 951.687C2076.1 951.997 2075.97 956.043 2072.61 957.02C2070.45 955.911 2068.32 958.444 2067.08 958.295C2066.43 958.177 2065.98 956.539 2064.86 956.327C2062.79 955.902 2061.39 957.129 2059.3 957.61C2058.14 957.914 2057.01 958.312 2055.91 958.796C2055.02 959.235 2054.35 960.595 2053.69 960.915C2053.03 961.234 2052.92 959.954 2052.58 959.93C2052.25 959.907 2051.3 962.94 2049.4 962.005C2045.31 962.53 2041.18 962.347 2037.23 961.465C2036.28 962.15 2036.1 962.928 2034.96 963.558C2034.54 963.655 2033.08 963.324 2032.75 963.666C2032.43 964.009 2032.96 964.589 2032.76 964.669C2031.54 965.22 2027.18 963.479 2028.32 966.832C2021.96 967.203 2015.62 966.714 2009.49 965.383C2007.04 964.942 2005.11 964.016 2002.88 963.559C1999.56 962.818 1995.75 963.461 1990.74 963.01C1987.1 962.219 1983.26 962.342 1979.61 963.366C1979.02 963.502 1977.83 965.319 1977.39 965.487C1976.04 965.8 1974.37 965.246 1972.99 965.599C1973 964.557 1971.59 964.948 1970.79 964.663C1969.99 964.379 1968.21 964.257 1966.34 963.783C1964.47 963.31 1962.26 961.977 1960.82 961.908C1960.82 961.908 1958.42 963.902 1957.42 963.061C1957.42 963.061 1957.52 962.066 1957.41 962.058C1954.81 961.966 1952.23 961.702 1949.68 961.264C1949.07 961.138 1948.58 960.28 1948.58 960.28C1945.17 959.793 1941.08 960.635 1938.6 959.598C1938.04 959.361 1938.77 958.59 1937.5 958.616C1936.87 958.572 1936.27 958.395 1935.75 958.099C1935.22 957.803 1934.78 957.395 1934.46 956.908C1934.13 956.422 1933.94 955.869 1933.89 955.293C1933.85 954.717 1933.94 954.136 1934.18 953.59C1931.92 952.411 1930.04 950.714 1928.72 948.655C1924.61 946.723 1923.28 951.279 1918.73 949.014C1916.32 947.173 1913.73 945.532 1911 944.102C1904.55 944.62 1898.11 943.817 1892.15 941.754C1888.19 943.471 1891.36 938.318 1888.82 938.768C1885.57 937.997 1882.12 938.111 1878.86 939.092C1877.44 939.027 1876.11 938.499 1875.11 937.603C1874.1 936.707 1873.49 935.5 1873.37 934.195C1869.03 936.637 1870.56 932.771 1867.83 931.29C1867.54 932.395 1865.29 931.874 1864.44 932.44C1863.17 933.635 1863.57 932.036 1861.12 932.534C1861.12 932.534 1860.57 933.467 1860.01 933.596C1859.46 933.724 1858.52 933.471 1857.8 933.671C1857.07 933.871 1856.89 934.65 1856.69 934.73C1855.82 934.931 1855.48 933.77 1855.58 933.746C1853.95 934.123 1853.64 934.394 1852.18 934.866C1851.79 934.954 1852.28 936.114 1851.07 935.925C1850.89 935.965 1850.99 934.47 1849.96 934.941C1848.01 935.918 1846.44 937.458 1845.51 939.315C1843.14 939.741 1840.85 940.51 1838.71 941.588C1838.29 941.902 1837.9 942.26 1837.56 942.656C1833.38 943.888 1828.99 943.093 1824.32 944.136C1822.06 947.202 1818.1 948.92 1812.09 948.598C1810.73 945.563 1805.87 951.337 1805.48 946.774C1803.08 946.524 1802.77 943.449 1799.96 942.858C1798.5 942.558 1796.76 943.595 1796.6 941.957C1796.44 940.319 1792.74 939.5 1791.14 939.066C1789.54 938.632 1787.13 939.322 1787.76 937.134C1786.54 936.143 1782.72 939.902 1782.23 939.346C1782.03 938.99 1781.71 938.709 1781.31 938.541C1780.92 938.372 1780.47 938.328 1780.04 938.413C1780.04 938.413 1778.58 941.159 1777.81 940.532C1777.44 940.093 1776.92 939.77 1776.34 939.601C1775.75 939.433 1775.12 939.427 1774.52 939.585C1772.83 940.654 1770.94 941.418 1768.96 941.838C1768.96 941.838 1767.77 940.472 1766.76 940.872C1766.31 940.976 1766.81 941.865 1765.65 941.931C1764.49 941.997 1763.19 940.96 1761.23 941.043C1761.23 941.043 1760.8 942.045 1760.12 942.102C1759.44 942.159 1759.04 941.881 1759.01 941.118C1754.78 941.492 1753.6 944.477 1750.13 945.478C1745.83 946.202 1745.64 943.163 1742.37 942.645C1738.89 941.371 1735.68 945.394 1734.63 942.891C1729.3 942.334 1724.1 941.138 1719.16 939.329C1717.34 939.412 1715.51 939.398 1713.63 939.497C1712.51 940.191 1712.49 941.869 1710.45 941.602C1708.16 940.724 1706.12 939.656 1703.82 938.746C1701.24 941.351 1698.29 938.749 1696.08 938.992C1695.24 939.184 1694.9 941.172 1692.69 941.145C1691.86 941.337 1690.98 939.766 1689.37 940.238C1685.55 940.651 1691.39 944.726 1688.27 944.374C1687.23 944.205 1686.15 944.321 1685.16 944.71C1684.17 945.099 1683.32 945.745 1682.7 946.564C1678.49 947.232 1681.02 953.915 1677.3 954.908C1675.54 957.154 1672.7 956.269 1670.72 958.133C1670.26 958.539 1668.03 960.461 1667.55 960.271C1667.06 960.081 1667.53 958.935 1666.44 959.287C1665.88 959.415 1666.96 961.543 1665.35 961.379C1665.35 961.379 1664.99 959.821 1664.24 960.395C1663.82 960.491 1663.32 963.689 1661.97 964.535C1661.37 964.91 1659.94 963.194 1658.66 964.628C1658.4 964.923 1659.97 966.003 1659.78 966.615C1659.59 967.228 1657.64 967.342 1657.56 968.734C1657.48 970.126 1656.18 969.587 1655.28 969.828C1649.41 970.412 1647.6 968.253 1644.22 971.241C1640.66 972.632 1643.49 968.062 1639.82 969.309C1638.15 965.075 1633.43 971.287 1627.64 969.708C1627.06 968.135 1626.5 969.67 1626.53 970.768C1623.41 970.75 1624.75 972.418 1622.1 970.92C1621.3 970.431 1620.4 970.101 1619.44 969.952C1618.49 969.803 1617.5 969.839 1616.55 970.056C1615.54 970.288 1614.6 971.746 1614.34 970.164C1611.41 971.609 1610.93 973.63 1612.1 976.34C1611.35 976.109 1610.53 976.082 1609.74 976.263C1608.95 976.445 1608.23 976.828 1607.65 977.366C1607.17 977.812 1606.98 980.165 1606.49 980.444C1604.6 981.784 1600.46 981.3 1598.74 983.808C1597.96 985.861 1596.65 983.651 1595.42 983.868C1593.12 984.398 1593.74 985.194 1592.24 985.976C1589.73 987.404 1587.48 989.2 1585.59 991.291C1584.41 992.295 1583.28 993.36 1582.22 994.479C1581.94 994.845 1582.63 996.225 1582.22 996.52C1581.81 996.815 1579.78 996.28 1580.02 997.631C1578.26 997.3 1578.09 998.781 1576.62 998.784C1576.02 998.721 1575.1 997.394 1574.42 997.785C1573.11 998.487 1572.1 999.794 1572.17 1002.96C1568.81 1002.36 1568.16 1004.15 1565.53 1004.19C1564.23 1002.55 1563.16 1004.73 1562.13 1005.34C1561.79 1005.62 1561.34 1007.3 1561 1007.41C1558.81 1008.42 1558 1007.26 1556.55 1008.6C1555.1 1009.94 1554.15 1009.16 1552.1 1009.63C1550.04 1010.1 1544.49 1011.12 1541.07 1012.17C1540.59 1012.28 1539.73 1013.18 1539.93 1013.24C1537.05 1013.3 1537.96 1009.14 1534.41 1011.4C1533.25 1012.13 1531.89 1012.54 1530.51 1012.58C1529.13 1012.62 1527.78 1012.29 1526.62 1011.62C1525.36 1011.38 1526.09 1013.28 1525.53 1013.71C1524.97 1014.14 1523.77 1013.38 1523.34 1013.75C1522.36 1014.55 1523.73 1015.43 1522.22 1015.85C1521.66 1015.98 1520.48 1015.62 1520 1015.93C1519.52 1016.24 1519.23 1017.81 1518.9 1017.99C1515.66 1019.33 1512.32 1020.46 1508.91 1021.36C1507.93 1020.78 1506.92 1020.18 1506.69 1021.44C1504.75 1022.34 1502.9 1023.42 1501.17 1024.66C1497.76 1025.74 1497.49 1022.66 1493.35 1023.95C1493.04 1024.02 1492 1024.89 1492.26 1024.93C1489.94 1025.03 1489.39 1024.06 1487.82 1024.08C1486.25 1024.11 1485.54 1025.48 1483.37 1025.11C1483.37 1025.11 1483.14 1024.13 1482.25 1024.1C1480.34 1024.35 1478.4 1024.06 1476.72 1023.26C1474.3 1021.77 1471.72 1020.49 1469.02 1019.44C1467.39 1018.88 1466.12 1019.25 1464.56 1018.53C1464.08 1018.34 1462.74 1016.68 1462.39 1016.56C1460.7 1016.21 1458.56 1016.94 1456.87 1016.76C1455.18 1016.58 1454.86 1015.85 1453.54 1015.82C1452.21 1015.79 1448.76 1018.46 1446.89 1016.08C1446.64 1016.4 1444.5 1019.98 1442.44 1020.26C1440.38 1020.53 1442 1023.3 1440.23 1023.41C1439.86 1023.38 1439.48 1023.4 1439.11 1023.47C1438.73 1023.55 1434.9 1026.48 1434.59 1024.51C1429.81 1026.01 1430.62 1022.08 1427.96 1021.65C1427.41 1023.22 1426.84 1021.71 1426.93 1020.65C1425.67 1020.94 1426.15 1022.67 1424.63 1022.79C1420.12 1022.92 1420.7 1018.57 1416.98 1017.86C1417.44 1017.95 1416.15 1018.88 1415.83 1018.89C1414.62 1018.9 1415.1 1017.95 1414.75 1017.87C1411.95 1017.51 1408.28 1019.36 1404.73 1019.21C1401.18 1019.06 1399.56 1017.76 1395.86 1017.44C1394.19 1017.82 1395.88 1018.47 1395.88 1018.47C1395.89 1022.02 1394.98 1019.01 1393.66 1020.59C1393.28 1021.04 1393.69 1021.85 1392.54 1021.65C1392.34 1022.5 1391.43 1022.71 1391.45 1023.74C1389.06 1026.07 1382.92 1025.01 1382.55 1029.14C1381.66 1028.91 1381.43 1028.23 1380.35 1028.18C1377.27 1028.02 1378.74 1029.75 1375.93 1028.36C1375.93 1028.36 1375.52 1026.58 1374.81 1027.35C1374.11 1028.11 1374.97 1029.62 1372.59 1029.46C1371.67 1029.44 1371.51 1028.44 1370.39 1028.5C1370.39 1028.5 1369.89 1029.52 1369.25 1029.57C1365.65 1029.86 1358.74 1028.17 1358.18 1034C1353.86 1034.62 1350.03 1037.58 1344.82 1035.47C1344.09 1035.13 1343.28 1032.27 1342.65 1034.46C1343.93 1034.64 1343.25 1035.49 1342.63 1035.5C1339.03 1036.11 1335.35 1035.93 1331.9 1034.98C1328.45 1034.03 1325.32 1032.34 1322.77 1030.04C1322.22 1030.14 1321.66 1030.08 1321.17 1029.87C1320.67 1029.65 1320.27 1029.29 1320.03 1028.84C1319.78 1028.39 1319.7 1027.88 1319.8 1027.37C1319.89 1026.87 1320.16 1026.4 1320.56 1026.03C1318.75 1026.45 1318.66 1025.09 1317.24 1025.12C1315.81 1025.92 1315.41 1024.17 1315.03 1024.13C1313.3 1023.92 1313.15 1025.19 1311.64 1025.31C1311.64 1025.31 1310.63 1024.4 1310.43 1024.35C1307.9 1023.86 1305.95 1025.88 1302.68 1026.64C1303.03 1026.56 1302.16 1025.49 1301.58 1025.65C1300.99 1025.82 1300.75 1027.65 1299.35 1027.77C1297.23 1027.93 1296.18 1028.94 1294.87 1028.81C1294.41 1028.91 1291.88 1026.52 1291.53 1026.9C1291.31 1027.25 1290.98 1027.54 1290.59 1027.74C1290.2 1027.93 1289.76 1028.01 1289.33 1027.98C1285.89 1027.36 1287.24 1027.32 1283.8 1028.15C1284.2 1026.21 1281.19 1027 1280.47 1026.23C1279.74 1025.46 1279.68 1024.41 1278.25 1024.27C1278.6 1024.19 1277.71 1025.87 1277.17 1025.29C1276.09 1023.93 1274.58 1022.91 1272.84 1022.37C1272.18 1022.22 1271.42 1021.16 1270.64 1021.44C1270.36 1021.5 1270.63 1022.81 1269.49 1022.47C1269.09 1022.33 1269.53 1021.53 1268.38 1021.46C1266.48 1021.03 1264.65 1020.42 1262.9 1019.64C1262.5 1019.5 1260.96 1020.09 1260.69 1019.71C1259.65 1018.55 1259.02 1019.46 1257.36 1018.77C1256.84 1018.59 1256.64 1016.93 1256.27 1016.78C1255.91 1016.63 1253.84 1017.34 1252.93 1016.88C1252.02 1016.42 1252.97 1015.94 1251.82 1015.9C1248.83 1015.67 1245.79 1016.12 1242.97 1017.21C1242.41 1017.33 1242.26 1019.08 1241.83 1019.28C1240.76 1019.8 1239.61 1020.17 1238.43 1020.4C1237.52 1020.44 1237.39 1020.2 1237.32 1019.41C1233.76 1020.8 1236.59 1016.23 1232.9 1017.55C1230.03 1017.81 1230.19 1017.24 1227.39 1016.68C1226.24 1016.44 1226.89 1015.96 1226.28 1015.7C1225.67 1015.44 1221.9 1014.97 1221.89 1013.8C1221.71 1011.13 1220.9 1014.73 1217.41 1013.93C1217.17 1013.98 1217.19 1012.97 1216.35 1012.97C1215.51 1012.96 1215.48 1011.73 1215.27 1010.97C1214.29 1011.97 1208.2 1013.37 1207.45 1011.2C1201.47 1011.48 1202.41 1005.23 1195.37 1006.49C1194.51 1005.61 1194.13 1004.26 1193.18 1003.48C1192.78 1003.17 1191.33 1003.9 1190.96 1003.55C1190.59 1003.2 1191.32 1001.8 1190.96 1001.51C1189.19 1000.18 1187.16 999.775 1185.42 998.602C1184.82 998.206 1185.61 997.688 1184.36 997.642C1182.38 997.63 1181.82 995.85 1180.02 994.725C1178.13 993.843 1176.29 992.869 1174.52 991.809C1175.43 988.921 1173.34 989.068 1172.35 987.821C1171.47 986.911 1170.73 985.889 1170.15 984.782C1167.04 984.94 1163.98 984.329 1161.28 983.011C1160.82 982.916 1160.23 981.643 1159.05 982.083C1158.74 982.155 1159.03 983.564 1157.94 983.145C1157.65 983.01 1158.21 981.308 1157.95 981.101C1157.07 980.332 1154.88 982.714 1153.53 982.287C1153.53 982.287 1153.02 981.499 1152.42 981.27C1151.65 981.013 1150.91 980.69 1150.22 980.304C1149.79 980.04 1149.41 979.707 1149.11 979.32C1145.49 978.466 1141.78 977.91 1138.03 977.656C1136.74 977.452 1135.9 976.006 1132.52 976.784C1131.13 977.105 1122.9 980.978 1121.44 975.121C1121.23 975.169 1115.99 977.382 1115.92 977.366C1113.41 974.596 1114.13 978.817 1111.49 976.445C1108.86 974.073 1102.39 976.836 1097.05 975.924C1097.05 975.924 1096.83 974.97 1095.95 974.94C1092.93 974.866 1094.13 973.251 1090.46 973.059C1089.85 972.798 1087.6 975.728 1087.28 975.164C1085.88 973.545 1085.32 974.915 1081.75 975.336C1079.86 975.538 1077.16 975.423 1075.1 975.53C1074.23 975.731 1074.04 976.647 1072.9 976.641C1072.59 976.713 1071.85 975.411 1070.66 975.683C1068.29 976.373 1066.05 977.467 1064.08 978.908C1062.17 977.441 1060.02 979.576 1057.45 980.169C1056.41 980.41 1055.18 979.99 1054.14 980.262C1053.1 980.535 1053.44 982.134 1053.05 982.358C1051.56 983.068 1048.96 982.095 1046.4 982.585C1046.4 982.585 1045.84 984.288 1045.29 983.645C1045.29 983.645 1045.35 982.626 1045.28 982.642C1043.02 982.633 1040.79 982.348 1038.63 981.796C1038.63 981.796 1034.32 981.019 1034.22 980.908C1034.12 980.797 1034.37 979.968 1034.24 979.897C1033.51 979.564 1031.69 979.482 1030.92 978.99C1030.15 978.499 1030.32 977.354 1029.79 976.973C1029.27 976.593 1025.38 976.083 1026.48 974.053C1024.25 974.837 1022.05 977.385 1019.84 975.251C1018.03 973.927 1014.15 974.555 1013.21 972.394C1009.33 971.448 1007.23 977.121 1004.35 973.7C1001.23 974.194 998.072 973.567 995.527 971.951C995.43 976.292 989.682 970.586 987.77 974.208C984.637 971.582 986.104 977.94 980.976 976.511C977.645 977.949 977.529 974.428 976.634 973.563C976.233 973.254 974.791 973.987 974.417 973.638C973.529 972.805 974.31 970.315 972.258 970.788C971.312 970.151 970.157 969.819 968.963 969.84C968.754 969.889 967.788 971.418 967.799 969.875C965.784 970.507 964.98 968.448 963.413 968.006C962.664 967.777 958.86 967.482 958.968 967.156C957.976 968.256 958.412 967.285 956.779 967.193C955.146 967.101 954.685 968.278 954.504 968.287C953.688 968.241 953.331 967.487 952.346 967.346C949.815 966.858 947.23 966.601 944.625 966.581C942.602 966.545 942.231 967.635 940.139 967.616C938.047 967.596 937.84 966.538 935.687 966.733C933.859 968.494 932.813 970.945 929.062 971.04C926.997 969.072 923.832 970.438 921.306 970.284C918.749 969.869 916.158 969.619 913.551 969.53C912.672 969.531 911.651 970.503 910.139 970.617C908.627 970.731 909.487 969.697 909.075 969.658C906.177 970.485 903.178 970.916 900.177 970.938C896.614 970.886 893.17 969.946 890.21 968.216C888.04 971.194 883.291 968.07 880.249 968.537C877.823 965.481 875.1 966.378 871.396 965.725C871.396 965.725 870.031 967.11 869.198 966.833C868.365 966.556 868.347 964.888 868.081 964.849C864.245 964.093 859.951 966.121 855.941 964.3C855.979 967.64 852.676 964.751 850.35 967.531C849.678 966.045 848.057 967.59 848.134 967.606C846.197 967.149 845.966 965.831 843.817 965.724C843.038 966.32 842.127 966.743 841.156 966.967C840.185 967.191 839.179 967.21 838.218 967.015C837.88 965.553 835.008 966.75 834.947 965.057C834.705 964.008 832.177 964.322 831.565 965.166C828.749 965.816 828.972 962.182 828.306 961.198C827.284 959.805 826.17 958.474 824.969 957.212C824.22 956.347 823.406 956.467 822.835 955.26C822.747 954.878 823.114 953.454 822.804 953.224C822.495 952.995 820.058 953.857 819.494 953.318C818.93 952.778 819.872 951.626 819.499 951.277C817.478 950.216 815.208 949.596 812.854 949.461C812.854 949.461 812.451 947.712 811.748 948.477C811.03 949.134 810.137 949.599 809.166 949.823C808.195 950.047 807.187 950.021 806.254 949.744C805.904 949.657 805.004 948.928 805.086 948.808C802.461 949.329 799.887 950.079 797.399 951.049C797.051 951.129 797.385 952.256 796.246 952.084C795.968 952.148 796.205 950.955 795.182 951.124C792.236 951.691 789.266 952.12 786.285 952.408C784.514 952.515 784.369 951.409 782.969 951.531C781.569 951.653 780.916 953.11 777.475 952.798C777.649 952.758 777.086 951.113 776.334 951.822C773.974 954.61 773.854 951.557 770.794 950.991C770.214 950.857 769.195 951.36 768.605 951.028C767.289 950.561 766.624 949.741 765.271 949.116C763.918 948.49 760.345 948.243 757.531 947.318C756.054 946.788 755.13 945.797 753.103 945.427C751.244 945.241 749.404 944.949 747.592 944.555C746.963 947.546 745.887 943.041 744.234 943.656C743.284 942.871 743.59 940.858 742.146 940.79C741.727 941.355 738.656 942.496 737.711 940.94C734.853 940.461 732.131 940.723 728.861 940.204C728.653 940.253 728.642 939.25 727.756 939.22C725.064 939.138 723.186 939.572 721.123 938.407C719.059 937.242 719.105 938.871 714.395 938.618C714.395 938.618 714.16 937.599 713.316 937.593C709.656 937.6 705.33 940.441 702.245 938.976C699.658 939.037 697.498 937.292 695.616 936.119C694.598 935.517 693.07 936.035 692.294 935.21C691.517 934.384 692.071 932.817 691.178 932.119C689.278 933.093 689.346 936.726 686.731 934.282C684.117 931.839 682.255 933.609 677.871 932.544C677.018 932.339 676.036 930.624 675.686 930.538C674.366 930.373 670.973 933.767 666.826 933.887C667.683 930.776 664.479 932.919 664.598 932.959C657.88 932.098 650.179 929.355 643.591 929.535C642.896 929.696 642.139 926.89 641.387 927.6C639.178 929.616 640.273 927.857 638.056 926.66C636.58 925.661 634.037 928.29 633.605 927.687C632.566 926.52 630.266 927.82 629.187 926.796C627.989 925.735 626.437 925.072 624.76 924.905C624.76 924.905 624.364 923.188 623.654 923.921C621.892 925.968 619.942 923.706 617.02 923.108C616.182 922.966 613.144 923.767 612.595 923.29C612.045 922.814 612.729 922.289 612.575 922.258C609.83 921.695 607.214 920.738 604.817 919.424C604.539 919.489 602.341 921.235 601.412 920.545C599.807 919.141 599.854 920.301 596.986 920.728C596.117 920.928 595.863 921.891 594.781 921.806C593.699 921.72 592.339 920.428 589.253 921.977C585.75 918.064 578.713 921.059 574.852 919.404C571.85 920.364 572.913 917.507 570.451 917.473C568.98 917.444 570.137 916.107 569.335 915.488C568.533 914.87 565.684 914.589 565.988 915.59C564.785 914.358 563.707 913.028 562.764 911.613C561.629 910.502 559.807 910.385 559.411 908.668C557.796 907.701 556.293 909.756 556.007 909.788C555.208 909.972 554.308 908.776 552.796 908.891C553.039 908.834 551.88 909.837 551.643 909.925C549.279 910.47 548.7 909.232 547.184 909.012C544.916 908.595 542.703 907.985 540.574 907.188C539.398 906.856 537.096 907.99 536.098 907.316C535.101 906.642 536.426 904.764 535.051 905.315C533.241 903.657 528.503 904.716 525.036 904.612C524.787 903.531 522.874 903.969 522.866 902.665C522.326 901.752 521.855 900.824 520.655 900.7C520.377 897.114 516.508 903.364 516.23 899.779C513.861 898.718 511.813 898.888 509.586 897.962C508.857 897.662 507.99 896.287 507.374 895.994C506.757 895.701 505.46 896.434 505.156 896.069C503.962 894.704 505.205 893.58 502.962 893.227C501.497 893.157 500.025 893.197 498.558 893.341C498.558 893.341 498.502 892.148 497.451 892.357C497.208 892.413 497.4 893.406 496.34 893.416C495.281 893.426 494.36 893.405 494.113 892.491C491.11 890.271 486.817 889.285 484.2 886.674C482.914 886.971 483.28 888.56 483.05 889.785C482.131 889.102 480.959 888.764 479.755 888.837C478.54 888.649 479.027 886.794 477.578 886.861C478.798 889.927 470.161 886.462 468.688 888.174C467.938 889.05 467.404 891.184 465.356 891.355C464.122 891.405 463.129 894.246 461.985 895.481C460.842 896.715 459.444 897.641 458.681 898.62C458.072 901.54 457.249 899.719 455.283 899.771C453.785 900.043 452.299 900.386 450.833 900.797C450.381 900.901 449.414 901.795 449.61 901.85C447.115 901.99 447.241 899.516 445.259 899.973C444.529 900.142 444.51 902.288 443.037 902.092C441.7 901.215 440.199 900.564 438.601 900.169C438.949 900.088 438.069 901.198 437.491 901.231C436.912 901.263 436.28 900.271 436.384 900.247C434.102 900.764 431.879 901.511 429.757 902.477C430.256 904.639 423.475 901.28 420.907 901.739C420.907 901.739 420.633 902.773 419.804 902.831C415.738 903.328 411.644 903.454 407.584 903.205C405.453 902.859 406.104 902.508 402.028 903.415C401.68 903.495 400.081 903.228 399.839 903.451C398.257 905.323 398.923 902.658 397.638 902.486C396.353 902.313 395.769 904.859 394.295 904.663C394.295 904.663 391.84 902.752 391 903.716C390.16 904.68 387.962 905.152 384.334 904.985C381.376 904.863 379.546 905.821 377.719 905.204C376.837 904.872 376.328 902.512 375.524 902.362C373.254 901.413 369.859 902.096 367.801 899.524C364.353 899.181 364.8 902.39 362.252 902.777C362.684 904.652 358.65 903.038 357.801 903.803C356.952 904.568 356.211 905.007 353.321 905.975C353.321 905.975 352.88 907.719 352.21 907.037C351.54 906.354 351.101 905.719 350.01 906.071C349.454 906.199 349.277 907.979 348.909 908.13C347.744 908.634 345.959 906.771 345.595 907.257C344.376 908.643 344.592 906.716 342.277 907.317C339.779 908.31 337.003 908.414 334.504 907.604C332.233 907.124 332.709 907.282 328.935 907.75C325.161 908.219 321.4 906.843 316.795 907.202C313.364 905.984 315.406 910.869 312.368 910.398C312.368 910.398 312.002 908.808 311.262 909.414C310.958 909.685 312.938 911.439 311.269 912.46C310.791 912.771 309.573 912.415 309.051 912.535C308.53 912.656 308.246 913.491 307.906 913.603C306.202 913.996 304.215 910.94 304.509 914.756C301.951 914.401 299.327 914.485 296.765 915.002C295.921 914.996 295.558 913.738 294.537 914.074C294.224 914.146 294.548 915.076 293.426 915.134C292.304 915.191 290.314 915.453 290.132 914.189C286.771 914.227 287.109 916.961 283.565 917.477C280.582 917.375 277.612 917.119 274.672 916.714C273.863 916.7 271.532 918.979 271.354 916.777C270.013 917.79 268.262 917.824 266.957 918.996C266.626 919.307 267.361 920.745 266.953 921.04C265.992 921.797 264.116 921.124 264.732 923.158C263.384 923.033 262.749 923.615 262.457 924.252C260.386 922.419 258.179 925.239 255.818 925.482C253.456 925.726 252.982 924.462 251.408 924.625C249.834 924.787 248.965 926.259 246.997 926.78C245.03 927.301 243.875 926.897 242.512 927.814C240.438 933.114 235.327 935.732 230.294 938.366C226.864 937.784 228.133 937.727 224.767 938.537C224.583 937.742 223.66 937.552 223.649 936.55C223.638 935.548 222.541 936.036 222.554 936.569C221.903 937.556 219.498 938.243 221.428 938.669C222.079 939.59 224.547 940.127 222.545 940.656C219.871 938.594 220.214 939.286 215.911 939.843C212.987 939.077 213.911 941.809 211.473 942.036C211.056 942.132 207.079 944.423 207.019 945.274C206.926 946.936 206.917 948.646 205.914 949.379C205.462 949.483 203.979 949.09 203.69 949.424C203.401 949.759 203.888 950.28 203.632 950.44C203.376 950.6 201.844 950.151 201.416 950.518C200.988 950.884 202.338 951.812 202.557 951.494C200.674 953.971 201.54 951.057 198.122 951.644C198.122 951.644 197.868 952.607 197.019 952.736C196.17 952.865 192.237 954.073 192.579 952.856C188.317 955.178 190.325 950.866 184.85 952.062C181.08 951.592 179.969 953.922 178.276 955.317C177.425 955.279 177.218 954.223 176.084 954.384C175.817 954.458 175.574 954.594 175.379 954.78C175.184 954.967 175.044 955.196 174.973 955.443C173.767 955.454 174.321 954.523 173.86 954.429C172.652 954.272 172.001 956.532 170.691 956.567C168.251 956.627 166.66 952.273 161.844 953.785C160.245 954.154 159.763 954.767 157.399 952.935C156.196 955.657 152.705 954.018 150.818 956.16C150.053 956.973 149.939 959.176 148.538 959.298C147.138 959.42 148.202 962.287 146.335 962.449C144.468 962.612 145.961 963.843 145.244 964.544C144.527 965.245 143.301 964.22 143.02 964.586C142.152 965.59 143.013 965.828 141.879 966.626C141.478 966.953 139.993 966.391 139.669 966.734C139.345 967.076 139.684 969.341 137.448 968.853C135.875 967.91 134.364 969.931 134.051 970.003C133.103 970.021 132.355 968.687 130.72 969.063C130.198 969.184 127.932 972.855 123.934 971.4C120.772 973.569 120.493 977.919 115.003 977.779C115.945 980.91 112.114 980.018 111.633 981.904C111.152 983.789 106.418 982 106.101 984.116C103.63 986.427 101.605 988.133 99.4352 990.475C98.0225 991.973 97.6801 991.282 96.1305 993.615C96.4725 993.034 97.6024 994.28 97.2365 994.599C96.3654 995.269 95.0914 995.461 94.9454 996.734C91.0066 997.441 88.2833 997.064 82.7796 998.132C82.7544 999.611 87.4173 1001.25 82.7935 1001.21C78.6268 999.025 79.0454 1004.65 77.186 1005.48C76.7687 1005.58 75.2584 1005.23 74.9967 1005.52C74.7349 1005.82 75.5989 1008.13 74.984 1008.64C74.369 1009.15 73.0061 1008.32 72.794 1008.67C71.8864 1009.82 72.5986 1011.8 70.5138 1011.81C66.5756 1013.32 62.4989 1014.48 58.3432 1015.25C57.8221 1017.28 54.6457 1015.1 52.7731 1015.4C50.9006 1015.7 50.0248 1017.14 48.3428 1017.63C45.425 1017.36 45.4879 1019.86 44.9723 1021.75C41.0621 1020.68 40.0799 1023.88 38.398 1025.01C37.6641 1025.48 37.3583 1024.95 37.2872 1026.07C37.116 1028.82 32.3047 1025.11 32.868 1029.3C30.9704 1031.07 29.2438 1029.46 27.2979 1029.44C26.1264 1029.45 26.6039 1028.5 26.2267 1028.45C24.7806 1028.22 23.5587 1031.18 21.7725 1031.69C18.0321 1032.34 14.3276 1033.2 10.6789 1034.25C7.85339 1035.65 4.87979 1036.76 1.81219 1037.57C0.737098 1041.16 -2.30544 1041.63 -4.83656 1042.88C-5.393 1043.01 -6.27297 1044.12 -7.07663 1043.97C-7.88028 1043.82 -7.06363 1042.59 -8.18192 1042.98C-8.66889 1043.1 -8.88737 1044.85 -9.27531 1045.08C-11.3287 1046.02 -16.4718 1045.63 -20.3886 1046.44C-22.6984 1047.54 -23.1899 1049.06 -25.9024 1049.68C-29.693 1050.56 -34.4546 1048.81 -36.9744 1051.06C-37.8656 1051.8 -38.1911 1054.52 -41.4713 1054.28C-42.1833 1054.21 -42.6619 1053.08 -43.6429 1053.27C-45.6251 1053.73 -47.8976 1053.88 -50.31 1054.54C-52.7224 1055.2 -53.7537 1056.44 -55.8422 1056.76C-58.4088 1057.03 -60.9887 1057.11 -63.5527 1056.99C-63.5527 1056.99 -63.8588 1058.2 -64.6625 1058.05C-64.9482 1057.65 -65.3263 1057.32 -65.7694 1057.07C-66.9025 1056.76 -67.9415 1057.33 -67.9968 1056.14C-69.9701 1056.16 -69.9532 1058.3 -71.3714 1059.3C-72.0632 1059.79 -73.9133 1058.91 -74.6819 1059.39C-75.4504 1059.87 -74.4238 1061.94 -75.7821 1061.45C-79.2495 1060.08 -81.9188 1062 -84.6951 1063.78C-85.4673 1064.56 -90.1032 1066.53 -89.1049 1062.92C-91.0598 1062.7 -91.3524 1063.97 -90.2156 1063.98C-90.2956 1065.54 -91.4423 1064.06 -91.3379 1064.04C-92.1782 1064.15 -92.9602 1064.53 -93.5434 1065.12C-94.1804 1065.53 -93.331 1066.03 -94.6471 1066.2C-96.5191 1066.42 -98.3649 1066.85 -100.142 1067.47C-100.689 1069.07 -103.619 1068.27 -102.41 1071.61C-103.389 1072.61 -104.931 1072.59 -106.862 1072.64C-106.549 1072.57 -107.459 1071 -107.967 1071.65C-109.722 1073.73 -111.512 1072.17 -114.618 1071.88C-114.931 1071.95 -116.442 1073.34 -116.823 1072.96C-117.204 1072.58 -116.664 1070.95 -116.818 1070.92C-119.345 1070.59 -121.096 1073.01 -124.559 1073.24C-126.943 1073.39 -127.493 1072.28 -128.984 1072.32C-129.819 1072.51 -130.183 1073.63 -131.217 1073.43C-131.53 1073.51 -131.154 1072.28 -132.323 1072.45C-133.493 1072.62 -134.085 1073.86 -135.727 1073.57C-137.835 1071.58 -142.476 1071.78 -145.66 1070.84C-151.519 1070.05 -148.426 1077.27 -154.56 1076.24C-155.18 1077.06 -156.037 1077.7 -157.026 1078.09C-158.016 1078.47 -159.096 1078.59 -160.134 1078.43C-163.272 1077.85 -163.82 1080.55 -165.676 1081.72C-166.198 1081.84 -167.309 1081.62 -167.865 1081.75C-169.152 1082.05 -168.277 1082.35 -168.976 1082.81C-169.675 1083.27 -170.588 1084.56 -171.197 1084.93C-172.799 1085.77 -174.836 1085.03 -176.762 1086.21C-177.109 1086.29 -176.366 1087.93 -176.767 1088.26C-177.706 1089.11 -181.179 1087.7 -179.95 1090.33C-184.316 1090.3 -179.59 1091.89 -182.195 1093.46C-185.656 1094.63 -188.996 1096.1 -192.166 1097.87C-193.456 1094.82 -193.367 1099.49 -191.059 1098.85C-191.523 1102.88 -199.756 1100.06 -199.96 1104.26C-204.725 1104.08 -204.27 1108.6 -207.738 1109.6C-210.34 1108.96 -213.346 1110.69 -216.612 1109.87C-215.528 1110.12 -222.328 1105.73 -224.351 1108.07C-224.351 1108.07 -224.124 1109.06 -224.34 1109.07C-225.14 1109.26 -225.621 1108.13 -225.447 1108.09C-227.107 1108.44 -228.643 1109.21 -229.877 1110.32C-230.75 1110.82 -233.311 1111.31 -233.236 1112.43C-233.16 1113.55 -235.43 1112.6 -237.687 1113.46C-239.047 1114.07 -239.522 1115.19 -240.856 1115.59C-241.812 1118.59 -243.604 1114.32 -246.384 1115.76C-247.352 1116.49 -247.048 1118.76 -248.629 1118.89C-251.723 1119.14 -250.247 1120.14 -251.961 1122.07C-253.563 1124.33 -255.424 1126.44 -257.511 1128.34C-258.907 1129.22 -260.393 1129.96 -261.942 1130.57C-262.464 1130.69 -261.737 1131.46 -263.053 1131.63C-267.303 1131.94 -271.251 1133.08 -271.941 1138.03C-273.657 1138.03 -275.347 1138.55 -276.753 1139.51C-278.158 1140.47 -279.203 1141.82 -279.726 1143.34C-283.482 1144.21 -287.811 1144.33 -289.917 1146.8C-292.811 1146.16 -292.02 1148.95 -293.222 1149.94C-294.458 1149.18 -295.852 1151.71 -296.612 1151.12C-296.612 1151.12 -299.032 1149.2 -299.969 1150.22C-300.212 1150.28 -299.529 1152.13 -299.974 1152.26C-301.33 1152.58 -303.045 1151.97 -304.379 1152.38C-305.713 1152.78 -306.387 1153.67 -306.596 1152.45C-309.175 1152.54 -309.87 1150.8 -313.229 1151.64C-314.731 1153.22 -316.498 1152.39 -318.793 1152.92C-319.037 1152.98 -318.874 1153.84 -319.904 1153.98C-321.004 1153.88 -322.118 1153.91 -323.223 1154.04C-323.223 1154.04 -323.003 1155 -323.204 1155.08C-326.821 1155.76 -330.515 1155.86 -334.121 1155.38C-336.14 1155.05 -340.997 1155.43 -340.727 1151.52C-341.986 1151.14 -343.926 1152.26 -345.159 1151.67C-345.65 1151.45 -345.878 1149.82 -346.277 1149.68C-346.676 1149.54 -347.772 1150.03 -348.493 1149.76C-348.493 1149.76 -351.738 1148.87 -351.788 1148.81C-351.837 1148.76 -351.674 1147.88 -351.808 1147.78C-352.593 1147.39 -353.295 1146.25 -354.018 1145.81C-354.741 1145.37 -357.557 1144.92 -359.542 1143.94C-360.117 1143.67 -359.365 1142.96 -360.648 1142.95C-362.104 1142.82 -363.583 1142.87 -365.038 1143.13C-365.49 1143.23 -366.408 1144.18 -366.199 1144.13C-367.034 1144.33 -367.25 1143.07 -368.392 1143.2C-369.534 1143.33 -370.156 1145.08 -373.952 1145.45C-375.418 1145.4 -376.89 1145.44 -378.358 1145.57C-378.184 1145.52 -378.868 1147.32 -379.469 1146.62C-380.902 1145.01 -380.976 1146.6 -382.774 1146.75C-383.68 1146.79 -383.948 1147.69 -385.048 1147.84C-388.362 1148.23 -391.696 1148.34 -395.008 1148.17C-397.855 1148.05 -399.291 1146.27 -402.738 1147.37C-404.75 1145.79 -401.916 1144.1 -404.913 1142.38C-406.24 1143.22 -407.838 1143.59 -409.399 1143.42C-408.871 1145.7 -411.495 1144.97 -411.602 1146.57C-414.932 1146.9 -418.183 1149.79 -423.784 1149.01C-424.823 1148.61 -425.95 1148.43 -427.09 1148.47C-428.23 1148.5 -429.358 1148.76 -430.399 1149.23C-430.608 1149.28 -430.822 1150.1 -431.587 1150.27C-435.031 1150.38 -438.428 1149.79 -441.543 1148.55C-443.517 1147.94 -444.473 1148.56 -445.961 1147.66C-446.734 1147.17 -446.661 1145.58 -448.103 1145.68C-451.015 1144.64 -453.45 1144.57 -455.843 1143.88C-457.366 1143.7 -458.866 1143.41 -460.33 1143.01C-460.763 1142.87 -462.149 1141.15 -462.464 1141.06C-466.519 1140.91 -470.591 1141.03 -474.65 1141.42C-473.51 1138.58 -477.955 1140.74 -479.07 1139.56C-480.185 1138.38 -478.577 1137.57 -480.161 1137.54C-481.744 1137.5 -482.189 1137 -483.491 1136.6C-487.073 1135.51 -492.138 1136.58 -494.553 1133.89C-496.674 1134.86 -498.893 1135.62 -501.173 1136.15C-501.638 1136.41 -502.023 1136.77 -502.284 1137.21C-503.466 1137.48 -505.227 1135.88 -505.682 1136.29C-506.965 1137.56 -506.557 1137.9 -508.852 1138.43C-511.147 1138.96 -514.639 1139.23 -517.709 1139.73C-518.439 1139.9 -518.99 1141 -519.906 1140.84C-520.821 1140.69 -519.857 1139.63 -521.012 1139.86C-522.167 1140.09 -522.666 1140.94 -524.416 1140.98C-526.165 1141.01 -526.858 1140.24 -528.861 1140.13C-532.934 1140.35 -537.005 1140.17 -541.001 1139.58C-542.267 1138.06 -544.152 1137.19 -545.563 1135.68C-547.699 1136.34 -549.912 1136.74 -552.14 1136.86C-552.184 1136.67 -552.709 1135.82 -553.307 1135.92C-553.906 1136.03 -554.385 1139.35 -557.781 1138.13C-558.975 1138.1 -560.125 1137.78 -561.11 1137.19C-562.934 1136.27 -562.477 1135.86 -565.496 1135.32C-566.607 1135.11 -566.007 1134.53 -566.602 1134.34C-568.85 1133.86 -571.058 1133.25 -573.211 1132.51C-573.702 1132.29 -575.074 1130.63 -575.424 1130.54C-575.774 1130.46 -581.247 1131.65 -582.073 1130.77C-583.218 1129.46 -583.708 1130.51 -587.609 1130.91C-589.461 1131.14 -591.27 1130.92 -593.129 1131.11C-594.334 1135.57 -599.264 1134.37 -602.031 1134.44C-603.873 1134.72 -605.735 1134.8 -607.58 1134.68C-607.617 1134.52 -607.452 1133.64 -607.536 1133.6C-607.62 1133.55 -609.483 1134.05 -609.752 1133.67C-610.022 1133.3 -609.637 1132.74 -609.771 1132.64C-609.905 1132.54 -611.718 1133.09 -611.98 1132.75C-612.242 1132.41 -611.838 1131.78 -611.999 1131.71C-612.16 1131.65 -613.877 1132.15 -614.216 1131.79C-614.943 1131.02 -613.722 1129.8 -615.298 1129.8C-616.489 1129.76 -617.636 1129.43 -618.628 1128.86C-619.428 1128.4 -619.676 1126.85 -620.798 1126.91C-621.92 1126.97 -622.56 1128.32 -624.203 1128.03C-624.86 1127.88 -625.239 1127.03 -625.281 1127.01C-627.885 1126.92 -630.472 1126.68 -633.029 1126.28C-633.519 1126.06 -632.928 1125.29 -634.169 1125.31C-635.501 1125.04 -636.713 1124.44 -637.676 1123.57C-638.638 1122.7 -639.314 1121.59 -639.63 1120.37C-640.316 1119.95 -641.068 1119.63 -641.864 1119.42C-642.228 1119.27 -643.812 1119.86 -644.054 1119.45C-644.781 1118.68 -645.558 1118.33 -646.265 1117.49C-648.349 1115.12 -650.138 1119.11 -654.021 1116.73C-655.895 1113.21 -656.278 1119.33 -658.459 1118.93C-658.686 1117.94 -663.357 1117.38 -665.069 1117.1C-670.202 1116.35 -675.484 1116.54 -680.621 1117.64C-682.466 1117.9 -683.02 1118.83 -685.072 1118.67C-686.035 1118.62 -686.764 1117.68 -688.318 1117.77C-688.318 1117.77 -688.858 1118.77 -689.471 1118.81C-692.898 1118.73 -696.269 1118.15 -699.462 1117.1C-699.114 1117.02 -699.982 1118.66 -700.546 1118.12C-701.11 1117.58 -700.222 1116.5 -700.541 1116.07C-701.168 1116.69 -701.935 1116.7 -702.739 1117.18C-703.797 1117.74 -704.947 1118.13 -706.135 1118.33C-707.178 1118.57 -706.877 1119.24 -707.245 1119.39C-710.824 1120.82 -714.805 1120.94 -718.371 1119.75C-718.805 1119.62 -718.243 1118.72 -719.477 1118.77C-720.711 1118.82 -722.099 1121.21 -723.84 1118.9C-724.441 1118.2 -723.51 1116.68 -724.958 1116.92C-727.733 1115.68 -729.554 1120.02 -730.528 1117.06C-732.741 1116.84 -732.685 1114.38 -734.863 1114.14C-736.782 1114.29 -738.675 1114.72 -740.462 1115.44C-741.332 1115.64 -741.503 1116.48 -742.64 1116.48C-743.777 1116.47 -743.676 1115.47 -744.826 1115.57C-744.582 1115.52 -745.428 1117.25 -745.979 1116.61C-747.477 1114.88 -751.035 1115.97 -755.917 1115.92C-756.31 1116.29 -756.814 1116.54 -757.357 1116.63C-757.9 1116.73 -758.454 1116.66 -758.943 1116.45C-759.432 1116.24 -759.831 1115.89 -760.084 1115.45C-760.337 1115.01 -760.431 1114.5 -760.352 1114C-764.958 1118.64 -772.026 1117.06 -778.079 1117.65C-780.309 1117.83 -780.934 1118.61 -782.496 1118.67C-782.554 1118.42 -783.209 1117.16 -783.67 1117.7C-783.67 1117.7 -783.466 1118.59 -783.652 1118.73C-783.924 1118.69 -784.175 1118.58 -784.38 1118.42C-784.585 1118.25 -784.737 1118.04 -784.82 1117.8C-787.897 1118.27 -789.813 1119.65 -792.508 1120.04C-793.763 1119.99 -1046.37 1056.19 -1047.46 1055.93L-815.001 250.5L2009.5 231.5Z" fill="#FBEBE8"/>
</svg>
