<svg width="1280" height="1272" viewBox="0 0 1280 1272" fill="none" xmlns="http://www.w3.org/2000/svg">
<path fill-rule="evenodd" clip-rule="evenodd" d="M-703.621 17.6206L-720.263 243.117L-185.499 256.867H-265.685V1027.47L-394.067 1027.41L-386.656 1215.47L-384.29 1216.12C-384.29 1216.12 -383.119 1215.68 -382.411 1215.7C-381.83 1215.78 -381.574 1215.64 -381.324 1215.49C-381.12 1215.38 -380.92 1215.26 -380.55 1215.27C-380.117 1215.29 -379.943 1215.41 -379.783 1215.51C-379.639 1215.61 -379.506 1215.7 -379.205 1215.7C-378.885 1215.71 -378.733 1215.6 -378.581 1215.49C-378.43 1215.39 -378.278 1215.29 -377.961 1215.28C-377.645 1215.28 -377.468 1215.39 -377.293 1215.49C-377.114 1215.6 -376.936 1215.71 -376.613 1215.7C-375.67 1215.67 -374.604 1215.53 -373.474 1215.38C-371.18 1215.07 -368.623 1214.73 -366.309 1215.3C-366.122 1215.33 -365.934 1215.48 -365.723 1215.64C-365.489 1215.83 -365.227 1216.04 -364.908 1216.12C-364.654 1216.19 -364.389 1216.24 -364.11 1216.28C-363.721 1216.34 -363.306 1216.41 -362.862 1216.55C-362.72 1216.6 -362.701 1216.67 -362.682 1216.74C-362.652 1216.84 -362.623 1216.95 -362.153 1216.97C-361.738 1217 -361.587 1216.87 -361.443 1216.76C-361.317 1216.66 -361.197 1216.56 -360.912 1216.57C-360.616 1216.58 -359.908 1216.72 -359.066 1216.89C-358.165 1217.07 -357.111 1217.29 -356.242 1217.4C-356.184 1217.41 -356.024 1217.4 -355.835 1217.38C-355.489 1217.36 -355.046 1217.34 -354.948 1217.4C-354.457 1217.76 -354.141 1217.57 -353.808 1217.37C-353.44 1217.16 -353.05 1216.93 -352.378 1217.39C-351.892 1217.74 -351.409 1217.69 -350.8 1217.64C-350.182 1217.58 -349.434 1217.51 -348.422 1217.83C-348.379 1217.77 -348.336 1217.71 -348.294 1217.65C-347.897 1217.08 -347.499 1216.5 -346.071 1216.57C-345.815 1215.83 -344.924 1216.22 -344.063 1216.6C-343.589 1216.81 -343.123 1217.01 -342.778 1217.02C-342.267 1217.58 -341.686 1217.21 -341.066 1216.82C-340.398 1216.4 -339.684 1215.95 -338.966 1216.6C-338.555 1216.21 -338.247 1216.24 -337.798 1216.27C-337.462 1216.3 -337.047 1216.33 -336.451 1216.2C-336.37 1216.18 -336.358 1216.12 -336.343 1216.05C-336.318 1215.93 -336.287 1215.79 -335.864 1215.77C-335.005 1215.74 -334.634 1215.41 -334.279 1215.1C-333.928 1214.79 -333.593 1214.5 -332.814 1214.52C-332.801 1214.52 -332.781 1214.53 -332.757 1214.54C-332.725 1214.56 -332.684 1214.58 -332.635 1214.61C-332.387 1214.76 -331.941 1215.02 -331.469 1214.95C-331.417 1214.96 -331.393 1214.91 -331.36 1214.84C-331.301 1214.72 -331.213 1214.54 -330.882 1214.52C-328.513 1214.34 -326.18 1214.06 -323.896 1213.69C-323.223 1214.02 -322.466 1214.27 -321.671 1214.41C-320.876 1214.55 -320.059 1214.6 -319.271 1214.53C-318.378 1214.5 -317.518 1214.36 -316.736 1214.13C-316.736 1214.13 -316.851 1213.71 -316.786 1213.7C-316.299 1213.56 -315.723 1213.51 -315.14 1213.47C-314.623 1213.43 -314.101 1213.39 -313.631 1213.28C-313.574 1213.29 -313.543 1213.18 -313.501 1213.04C-313.436 1212.83 -313.346 1212.53 -313.099 1212.45C-312.588 1212.3 -311.739 1212.53 -311.139 1212.7C-310.767 1212.8 -310.49 1212.87 -310.448 1212.81C-310.343 1212.72 -310.269 1212.61 -310.196 1212.5C-310.02 1212.24 -309.85 1211.99 -309.273 1211.96C-309.083 1211.33 -308.629 1211.51 -308.022 1211.74C-307.464 1211.96 -306.777 1212.23 -306.049 1211.97C-305.905 1211.57 -305.213 1211.49 -304.525 1211.41C-303.773 1211.32 -303.025 1211.23 -303 1210.72C-302.466 1210.51 -302.118 1210.8 -301.885 1210.99C-301.789 1211.07 -301.713 1211.13 -301.652 1211.14C-300.717 1211.27 -300.48 1211.07 -300.17 1210.82C-299.958 1210.64 -299.712 1210.44 -299.185 1210.29C-298.978 1210.32 -298.025 1210.45 -297.891 1210.3C-297.678 1210.11 -297.366 1210.09 -296.875 1210.06H-296.874C-296.494 1210.04 -296.007 1210.01 -295.376 1209.89C-295.187 1209.86 -294.994 1209.79 -294.785 1209.72C-294.289 1209.54 -293.7 1209.34 -292.859 1209.47C-292.359 1209.49 -291.862 1209.58 -291.396 1209.72C-290.93 1209.87 -290.504 1210.07 -290.145 1210.31C-289.758 1210.49 -289.433 1210.71 -289.11 1210.93C-288.762 1211.17 -288.416 1211.4 -287.996 1211.58C-287.898 1211.59 -287.739 1211.51 -287.554 1211.41C-287.31 1211.28 -287.021 1211.12 -286.77 1211.14C-286.165 1211.23 -285.981 1211.56 -285.785 1211.91C-285.527 1212.37 -285.248 1212.87 -283.942 1212.88C-282.611 1213.31 -281.446 1212.98 -280.396 1212.69C-280.085 1212.6 -279.784 1212.51 -279.492 1212.45C-279.407 1212.44 -279.377 1212.38 -279.343 1212.31C-279.289 1212.2 -279.223 1212.06 -278.907 1212.04C-278.741 1212.06 -278.389 1212.11 -278.25 1212.05C-275.574 1211.6 -272.757 1211.46 -269.915 1211.62C-269.417 1211.64 -269.103 1211.76 -268.813 1211.87C-268.527 1211.98 -268.264 1212.08 -267.872 1212.06C-267.466 1212.05 -267.327 1211.93 -267.199 1211.82C-267.078 1211.72 -266.967 1211.63 -266.649 1211.64C-266.328 1211.64 -266.006 1211.64 -265.685 1211.65V1250.58H1109.14C1110.1 1250.69 1110.92 1250.91 1111.06 1251.59C1112.64 1251.51 1113.32 1252.08 1114 1252.66C1114.51 1253.09 1115.02 1253.52 1115.91 1253.68C1116.6 1253.54 1117.38 1253.61 1118.2 1253.69H1118.2C1119.13 1253.78 1120.11 1253.88 1121.09 1253.68C1120.47 1253.79 1124.17 1251.91 1125.49 1252.85C1125.49 1252.85 1125.41 1253.25 1125.54 1253.26C1126.02 1253.32 1126.23 1252.85 1126.12 1252.84C1127.11 1252.96 1128.05 1253.26 1128.84 1253.7C1128.99 1253.75 1129.22 1253.8 1129.47 1253.86C1130.12 1254.01 1130.9 1254.19 1130.92 1254.52C1130.93 1254.77 1131.3 1254.76 1131.85 1254.75C1132.32 1254.74 1132.94 1254.73 1133.57 1254.88C1133.95 1254.99 1134.23 1255.15 1134.51 1255.3C1134.81 1255.47 1135.11 1255.64 1135.54 1255.72C1135.92 1256.35 1136.32 1256.18 1136.85 1255.94C1137.34 1255.72 1137.95 1255.45 1138.77 1255.72C1139.01 1255.84 1139.15 1256.06 1139.29 1256.29C1139.5 1256.62 1139.71 1256.96 1140.26 1256.98C1141.39 1257.01 1141.51 1257.2 1141.7 1257.51C1141.82 1257.71 1141.97 1257.95 1142.39 1258.24C1143.45 1259.14 1144.66 1259.98 1145.99 1260.73C1146.86 1261.08 1147.76 1261.36 1148.7 1261.59C1148.82 1261.61 1148.84 1261.67 1148.86 1261.73C1148.88 1261.79 1148.9 1261.85 1148.97 1261.9C1149.05 1261.95 1149.18 1261.99 1149.41 1262.01C1151.9 1262.08 1154.27 1262.51 1154.97 1264.52C1155.96 1264.5 1156.98 1264.69 1157.85 1265.07C1158.73 1265.44 1159.42 1265.98 1159.81 1266.6C1160.01 1266.63 1160.21 1266.65 1160.41 1266.68C1160.75 1266.72 1161.09 1266.75 1161.42 1266.78C1163.18 1266.96 1164.9 1267.14 1165.95 1267.89C1167.02 1267.7 1167.27 1268.12 1167.52 1268.54C1167.66 1268.77 1167.79 1269 1168.06 1269.13C1168.43 1268.96 1168.88 1269.18 1169.28 1269.38C1169.62 1269.54 1169.92 1269.69 1170.1 1269.58C1170.1 1269.58 1171.4 1268.76 1172 1269.17C1172.15 1269.19 1171.86 1269.95 1172.13 1270C1172.32 1270.03 1172.52 1270.03 1172.72 1270.03C1172.93 1270.02 1173.14 1270.01 1173.35 1269.99C1173.81 1269.95 1174.28 1269.92 1174.7 1269.99C1174.94 1270.04 1175.14 1270.1 1175.32 1270.16C1175.73 1270.28 1175.96 1270.35 1175.99 1270C1176.62 1270 1177.04 1269.88 1177.45 1269.75C1178.04 1269.58 1178.63 1269.4 1179.8 1269.58C1180.43 1269.99 1181.05 1269.98 1181.78 1269.98C1182.01 1269.97 1182.26 1269.97 1182.51 1269.98C1182.71 1269.99 1182.91 1270.01 1183.12 1270.04C1183.17 1270.04 1183.19 1270.09 1183.23 1270.14C1183.3 1270.26 1183.42 1270.43 1183.83 1270.46C1184.14 1270.43 1184.45 1270.42 1184.77 1270.41C1185.1 1270.41 1185.43 1270.42 1185.76 1270.44C1185.76 1270.44 1185.69 1270.84 1185.81 1270.87C1187.96 1271.1 1190.11 1271.1 1192.18 1270.86C1192.38 1270.83 1192.62 1270.81 1192.89 1270.78C1194.21 1270.68 1196.12 1270.52 1195.8 1269.19C1196.13 1269.11 1196.56 1269.16 1197 1269.21C1197.51 1269.27 1198.02 1269.33 1198.39 1269.2C1198.53 1269.15 1198.61 1268.94 1198.68 1268.75C1198.75 1268.57 1198.81 1268.4 1198.92 1268.37C1199.01 1268.34 1199.19 1268.36 1199.39 1268.38C1199.55 1268.4 1199.73 1268.42 1199.89 1268.41C1200.01 1268.41 1200.12 1268.4 1200.21 1268.37C1200.21 1268.37 1202.05 1267.97 1202.07 1267.94C1202.08 1267.93 1202.07 1267.88 1202.05 1267.81C1202.02 1267.69 1201.98 1267.55 1202.02 1267.52C1202.26 1267.43 1202.46 1267.25 1202.66 1267.07C1202.84 1266.92 1203.01 1266.77 1203.19 1266.69C1203.36 1266.61 1203.74 1266.52 1204.22 1266.42L1204.22 1266.42C1204.86 1266.27 1205.66 1266.09 1206.29 1265.85C1206.42 1265.8 1206.42 1265.73 1206.42 1265.66C1206.43 1265.55 1206.43 1265.44 1206.88 1265.43C1207.72 1265.36 1208.58 1265.36 1209.45 1265.45C1209.71 1265.49 1210.31 1265.86 1210.18 1265.85C1210.42 1265.88 1210.55 1265.78 1210.7 1265.67C1210.78 1265.61 1210.86 1265.55 1210.96 1265.51C1211.07 1265.46 1211.21 1265.43 1211.4 1265.44C1211.64 1265.45 1211.85 1265.55 1212.12 1265.67C1212.62 1265.9 1213.32 1266.22 1214.77 1266.29C1215.62 1266.25 1216.48 1266.25 1217.34 1266.28C1217.24 1266.27 1217.74 1267 1218.05 1266.7C1218.51 1266.28 1218.73 1266.37 1219.09 1266.51C1219.31 1266.59 1219.58 1266.7 1219.98 1266.71C1220.24 1266.71 1220.43 1266.8 1220.62 1266.9C1220.69 1266.93 1220.76 1266.97 1220.83 1267C1220.98 1267.06 1221.15 1267.12 1221.37 1267.13C1223.32 1267.25 1225.27 1267.25 1227.19 1267.14C1227.81 1267.11 1228.3 1266.98 1228.78 1266.86C1229.57 1266.66 1230.34 1266.46 1231.64 1266.72C1232.12 1266.41 1232.03 1266.11 1231.94 1265.8C1231.82 1265.43 1231.71 1265.05 1232.6 1264.65C1233.43 1264.97 1234.38 1265.1 1235.28 1265.01C1235.18 1265.54 1235.61 1265.67 1236.03 1265.8C1236.35 1265.89 1236.68 1265.99 1236.75 1266.28C1237.45 1266.31 1238.18 1266.48 1238.96 1266.67C1240.35 1267 1241.93 1267.38 1243.98 1267.13C1244.56 1266.95 1245.21 1266.86 1245.87 1266.86C1246.54 1266.86 1247.21 1266.96 1247.84 1267.13C1247.86 1267.14 1247.88 1267.14 1247.9 1267.16C1247.93 1267.18 1247.96 1267.21 1248 1267.24C1248.12 1267.35 1248.3 1267.5 1248.6 1267.55C1250.61 1267.55 1252.55 1267.26 1254.29 1266.72C1254.78 1266.59 1255.17 1266.57 1255.53 1266.55C1255.97 1266.53 1256.35 1266.51 1256.81 1266.3C1256.96 1266.22 1257.04 1266.08 1257.12 1265.94C1257.26 1265.7 1257.4 1265.44 1257.93 1265.46C1258.89 1265.19 1259.77 1265.06 1260.61 1264.93L1260.61 1264.93C1261.2 1264.84 1261.77 1264.75 1262.33 1264.62C1263.21 1264.53 1264.06 1264.39 1264.89 1264.21C1265.02 1264.18 1265.29 1263.95 1265.53 1263.75C1265.74 1263.57 1265.93 1263.41 1266.02 1263.39C1268.37 1263.28 1270.74 1263.27 1273.13 1263.38C1272.63 1262.7 1273.4 1262.72 1274.22 1262.74C1274.78 1262.75 1275.36 1262.77 1275.59 1262.57C1275.87 1262.33 1275.79 1262.13 1275.73 1261.99C1275.66 1261.83 1275.62 1261.74 1276.1 1261.72C1276.72 1261.7 1277.03 1261.6 1277.39 1261.48C1277.44 1261.46 1277.49 1261.44 1277.54 1261.43C1277.67 1261.38 1277.81 1261.34 1277.99 1261.3C1278.72 1261.12 1279.58 1261.06 1280.45 1260.99H1280.45C1281.96 1260.88 1283.47 1260.77 1284.26 1260.05C1285.55 1260.42 1286.89 1260.7 1288.25 1260.89C1288.54 1260.99 1288.78 1261.14 1288.96 1261.31C1289.34 1261.37 1289.78 1261.19 1290.16 1261.05C1290.48 1260.92 1290.75 1260.82 1290.88 1260.89C1291.1 1261.03 1291.25 1261.14 1291.37 1261.23C1291.7 1261.48 1291.85 1261.59 1292.85 1261.73C1293.65 1261.84 1294.69 1261.91 1295.77 1261.98L1295.78 1261.98C1296.55 1262.03 1297.34 1262.08 1298.09 1262.15C1298.26 1262.18 1298.43 1262.27 1298.61 1262.36C1298.71 1262.41 1298.82 1262.47 1298.92 1262.51C1299.08 1262.57 1299.25 1262.61 1299.43 1262.58C1299.67 1262.55 1299.67 1262.44 1299.66 1262.33C1299.66 1262.22 1299.65 1262.12 1300.01 1262.16C1300.29 1262.2 1300.5 1262.27 1300.73 1262.35L1300.73 1262.35C1301.08 1262.46 1301.45 1262.59 1302.06 1262.58C1302.59 1262.58 1302.94 1262.49 1303.31 1262.39C1303.66 1262.31 1304.04 1262.21 1304.6 1262.18C1306.98 1262.22 1309.34 1262.09 1311.63 1261.8C1311.8 1261.64 1312 1261.49 1312.21 1261.35C1312.42 1261.2 1312.65 1261.07 1312.88 1260.94C1313.29 1260.69 1313.71 1260.45 1314.05 1260.15C1315.33 1260.39 1316.65 1260.53 1317.95 1260.55C1317.96 1260.47 1318.22 1260.12 1318.57 1260.15C1318.67 1260.16 1318.77 1260.26 1318.91 1260.4C1319.28 1260.77 1319.91 1261.4 1321.31 1261C1322 1260.97 1322.65 1260.82 1323.19 1260.57C1323.51 1260.44 1323.7 1260.34 1323.86 1260.25C1324.22 1260.06 1324.46 1259.93 1325.63 1259.75C1326.26 1259.65 1325.88 1259.42 1326.22 1259.33C1327.5 1259.11 1328.74 1258.83 1329.95 1258.5C1330.09 1258.46 1330.34 1258.25 1330.57 1258.06C1330.8 1257.87 1331.02 1257.69 1331.12 1257.67C1331.18 1257.66 1331.45 1257.68 1331.83 1257.71L1331.84 1257.71C1332.88 1257.8 1334.69 1257.95 1335.01 1257.68C1335.38 1257.33 1335.65 1257.37 1336.38 1257.48C1336.58 1257.51 1336.81 1257.54 1337.09 1257.57C1337.41 1257.61 1337.78 1257.65 1338.24 1257.67C1338.8 1257.7 1339.35 1257.69 1339.91 1257.68C1340.42 1257.67 1340.93 1257.66 1341.46 1257.68C1342.26 1259.18 1344.3 1259.06 1345.9 1258.97C1346.1 1258.96 1346.3 1258.95 1346.48 1258.94C1346.61 1258.94 1346.73 1258.93 1346.84 1258.93C1347.93 1259.03 1349.02 1259.03 1350.08 1258.96C1350.09 1258.93 1350.06 1258.85 1350.04 1258.76C1350 1258.65 1349.97 1258.53 1349.99 1258.52C1350.01 1258.51 1350.1 1258.52 1350.23 1258.54C1350.58 1258.57 1351.19 1258.64 1351.29 1258.52C1351.37 1258.43 1351.31 1258.31 1351.26 1258.22C1351.23 1258.16 1351.21 1258.12 1351.24 1258.1C1351.26 1258.09 1351.42 1258.1 1351.62 1258.12L1351.62 1258.12C1351.97 1258.16 1352.44 1258.21 1352.53 1258.12C1352.6 1258.03 1352.54 1257.91 1352.5 1257.82C1352.46 1257.76 1352.44 1257.7 1352.48 1257.69C1352.51 1257.68 1352.63 1257.7 1352.79 1257.71C1352.91 1257.73 1353.05 1257.74 1353.19 1257.75C1353.45 1257.77 1353.69 1257.76 1353.77 1257.7C1353.93 1257.56 1353.88 1257.4 1353.85 1257.26C1353.79 1257.05 1353.75 1256.88 1354.28 1256.87C1354.97 1256.84 1355.62 1256.69 1356.16 1256.44C1356.34 1256.36 1356.45 1256.22 1356.57 1256.07C1356.74 1255.84 1356.92 1255.61 1357.31 1255.62C1357.58 1255.62 1357.82 1255.72 1358.07 1255.82C1358.42 1255.96 1358.81 1256.12 1359.36 1256.03C1359.73 1255.96 1359.9 1255.61 1359.93 1255.6C1361.44 1255.53 1362.93 1255.4 1364.39 1255.21C1364.49 1255.17 1364.5 1255.1 1364.51 1255.04C1364.52 1254.99 1364.53 1254.93 1364.57 1254.89C1364.63 1254.84 1364.74 1254.8 1365 1254.79C1365.76 1254.67 1366.43 1254.41 1366.93 1254.04C1367.44 1253.67 1367.77 1253.21 1367.88 1252.7C1368.25 1252.52 1368.67 1252.38 1369.12 1252.28C1369.21 1252.26 1369.41 1252.28 1369.64 1252.3C1369.97 1252.34 1370.33 1252.37 1370.4 1252.27C1370.78 1251.95 1371.21 1251.79 1371.57 1251.44C1372.08 1250.96 1372.64 1251.08 1373.31 1251.23C1374.05 1251.38 1374.93 1251.57 1376.04 1251.03C1376.2 1250.75 1376.36 1250.62 1376.51 1250.58H1376.7C1376.93 1250.63 1377.16 1250.87 1377.4 1251.13C1377.78 1251.52 1378.2 1251.96 1378.75 1251.88C1378.81 1251.52 1380.88 1251.25 1382.05 1251.1C1382.22 1251.08 1382.37 1251.06 1382.49 1251.05C1385.43 1250.68 1388.52 1250.69 1391.57 1251.07C1391.77 1251.09 1391.95 1251.11 1392.11 1251.14C1392.31 1251.18 1392.49 1251.23 1392.66 1251.27C1393.11 1251.39 1393.53 1251.49 1394.22 1251.44C1394.45 1251.43 1394.65 1251.35 1394.87 1251.27C1395.18 1251.15 1395.52 1251.02 1396.06 1251.03C1396.06 1251.03 1396.43 1251.43 1396.79 1251.44C1398.76 1251.37 1400.68 1251.09 1402.46 1250.63C1402.41 1250.71 1402.93 1251.23 1403.19 1251.02C1403.24 1250.98 1403.27 1250.94 1403.28 1250.89C1403.29 1250.8 1403.24 1250.69 1403.18 1250.58H1404.33C1404.36 1250.59 1404.39 1250.6 1404.41 1250.61C1405.06 1250.83 1405.76 1250.97 1406.46 1251.04C1406.85 1251.09 1406.94 1251.23 1407.01 1251.33C1407.05 1251.39 1407.09 1251.44 1407.17 1251.46C1409.34 1252 1411.66 1252 1413.66 1251.47C1413.91 1251.41 1413.53 1251.04 1414.25 1251.05C1414.47 1251.05 1414.72 1251.15 1414.99 1251.25C1415.56 1251.47 1416.19 1251.72 1416.8 1251.05C1416.92 1250.94 1416.89 1250.77 1416.87 1250.62L1416.87 1250.58H1419.68C1419.95 1250.67 1420.17 1250.7 1420.34 1250.58H1456.14C1456.36 1250.61 1456.59 1250.64 1456.82 1250.66C1456.83 1250.66 1456.84 1250.63 1456.84 1250.58H1474.53V264.658C1486.02 192.533 1511.33 33.243 1510.66 33.1936C1509.72 33.2425 1508.89 33.414 1508.04 33.5916C1507.14 33.777 1506.21 33.9692 1505.09 34.0358C1505.06 33.9151 1504.97 33.8059 1504.84 33.7186C1504.71 33.6312 1504.55 33.569 1504.36 33.5388C1504.22 33.6029 1504.28 34.0454 1504.28 34.0454C1503.91 34.2954 1503.57 33.6585 1503.55 33.532C1503.03 33.5211 1502.65 33.5963 1502.22 33.6801C1501.74 33.7732 1501.2 33.8769 1500.38 33.8842C1499.27 33.9072 1498.13 33.8566 1496.98 33.8058C1493.7 33.6602 1490.37 33.5128 1487.68 35.0854C1487.78 34.8412 1487.76 34.5893 1487.62 34.3653C1487.48 34.1413 1487.24 33.9566 1486.91 33.8365C1486.59 33.7164 1486.21 33.6669 1485.82 33.6955C1485.44 33.7241 1485.06 33.8291 1484.75 33.9957C1483.68 33.9376 1482.7 33.9389 1481.81 33.94C1479.9 33.9425 1478.49 33.9443 1477.88 33.3292C1477.56 33.0037 1476.84 33.7792 1476.97 33.7977C1476.56 33.8003 1476.4 33.6763 1476.24 33.549C1476.08 33.4273 1475.92 33.3025 1475.54 33.2827C1475.08 33.2594 1474.82 33.3842 1474.57 33.5077C1474.38 33.5992 1474.19 33.6901 1473.92 33.7196C1472.61 34.0089 1471.25 34.1598 1469.9 34.166C1469.16 34.0729 1468.84 33.7288 1468.53 33.3837C1468.22 33.0351 1467.9 32.6855 1467.13 32.5929C1466.91 31.8172 1466.36 32.0148 1465.61 32.2782C1464.93 32.5176 1464.1 32.8113 1463.23 32.4795C1462.61 32.5198 1462.65 32.2711 1462.7 31.9886C1462.73 31.8068 1462.77 31.6109 1462.63 31.4691C1461.94 30.6529 1461.16 30.9279 1460.46 31.1755C1460.15 31.2887 1459.84 31.3963 1459.57 31.3911C1459.02 31.3807 1459.01 31.2067 1459 31.0605C1459 30.9764 1458.99 30.9015 1458.89 30.8723C1456.5 30.1689 1453.71 30.099 1451.09 30.6769C1450.99 30.6995 1450.95 30.7586 1450.9 30.8287C1450.81 30.9512 1450.7 31.1073 1450.22 31.1602C1449.37 31.2194 1448.54 31.3714 1447.75 31.6107C1447.5 31.6984 1447.26 31.7463 1447.03 31.7922C1446.71 31.857 1446.4 31.9179 1446.12 32.0817C1446.03 31.9847 1446.13 31.8343 1446.23 31.6721C1446.35 31.4653 1446.49 31.2395 1446.3 31.0809C1445.99 30.8257 1445.35 31.4293 1445.41 31.5303C1443.28 30.9166 1441 30.5256 1438.63 30.372C1438.2 30.3717 1437.73 30.8417 1437.73 30.8417C1437.09 30.8375 1436.68 30.6695 1436.32 30.5204C1436.06 30.4152 1435.82 30.3194 1435.55 30.2969C1434.72 30.21 1434.21 30.3249 1433.67 30.4479C1433.29 30.5344 1432.89 30.6248 1432.35 30.6517C1428.67 31.0218 1424.96 30.9356 1421.45 30.3989C1421.3 30.3752 1421.13 30.3477 1420.93 30.3169C1419.53 30.0995 1417.06 29.7154 1416.99 29.286C1416.34 29.1672 1415.81 29.6827 1415.35 30.1416C1414.76 30.7218 1414.26 31.2113 1413.7 30.2143C1412.39 29.5351 1411.33 29.7313 1410.44 29.8963C1409.62 30.0466 1408.95 30.1712 1408.36 29.5861C1408.13 29.3492 1407.87 29.1822 1407.62 29.0146C1407.4 28.8739 1407.19 28.7328 1406.99 28.5497C1406.91 28.4251 1406.47 28.4586 1406.07 28.4888C1405.8 28.5095 1405.55 28.5287 1405.45 28.4937C1404.92 28.3619 1404.42 28.1801 1403.98 27.9516C1403.87 27.3426 1403.49 26.7782 1402.9 26.3202C1402.3 25.8621 1401.51 25.528 1400.61 25.3531C1400.06 25.3329 1400.05 25.185 1400.03 25.0464C1400.02 24.9634 1400.02 24.8838 1399.9 24.837C1398.15 24.5585 1396.36 24.3543 1394.55 24.2251C1394.55 24.2227 1394.54 24.2066 1394.52 24.1812C1394.45 24.0668 1394.25 23.765 1393.89 23.6871C1393.23 23.5713 1392.76 23.7451 1392.33 23.9063C1392.03 24.0194 1391.74 24.1263 1391.41 24.1227C1390.94 24.1173 1390.74 23.8366 1390.54 23.5601C1390.41 23.3777 1390.28 23.1971 1390.07 23.0986C1389.43 22.7829 1388.66 22.5862 1387.83 22.5278C1387.19 22.4958 1387.25 22.2917 1387.32 22.0475C1387.37 21.8743 1387.43 21.681 1387.25 21.5146C1387.11 21.3879 1386.49 21.4341 1386.08 21.465C1385.88 21.4795 1385.73 21.4907 1385.7 21.4791C1385.65 21.464 1385.68 21.4038 1385.73 21.326C1385.79 21.2171 1385.86 21.0738 1385.77 20.9712C1385.68 20.8593 1385.11 20.9037 1384.69 20.9367C1384.45 20.9555 1384.25 20.9707 1384.22 20.9507C1384.19 20.9288 1384.22 20.8744 1384.26 20.8048C1384.32 20.6996 1384.4 20.5595 1384.3 20.4442C1384.19 20.3058 1383.46 20.3622 1383.04 20.3945C1382.88 20.4069 1382.76 20.4158 1382.75 20.4085C1382.72 20.3939 1382.77 20.2532 1382.81 20.119C1382.85 20.0149 1382.88 19.9146 1382.88 19.8801C1381.6 19.7602 1380.29 19.7371 1378.98 19.8131C1378.64 19.8029 1378.26 19.7713 1377.85 19.7376C1375.94 19.5796 1373.49 19.3777 1372.47 21.1469C1371.84 21.1631 1371.22 21.1326 1370.61 21.1021C1369.94 21.0693 1369.28 21.0366 1368.6 21.0622C1367.58 21.0862 1366.88 21.1696 1366.36 21.2307C1365.49 21.3347 1365.16 21.3741 1364.73 20.946C1364.36 20.6115 1362.18 20.7352 1360.93 20.806C1360.46 20.8323 1360.13 20.8513 1360.06 20.8366C1359.95 20.8098 1359.69 20.5848 1359.42 20.3496C1359.14 20.111 1358.86 19.8619 1358.69 19.799C1357.26 19.3659 1355.77 18.994 1354.24 18.6859C1354.08 18.6373 1354.06 18.5634 1354.04 18.4835C1354.02 18.3721 1354 18.2492 1353.56 18.167C1352.15 17.9177 1351.87 17.7532 1351.46 17.5124C1351.26 17.3996 1351.04 17.2702 1350.66 17.1074C1350.03 16.7855 1349.25 16.5882 1348.42 16.5366C1346.76 16.0125 1345.98 16.7438 1345.51 17.181C1345.34 17.3387 1345.22 17.4581 1345.1 17.4664C1344.67 17.4978 1344.38 17.0643 1344.37 16.9694C1342.8 16.9527 1341.22 17.0738 1339.68 17.3297C1339.27 16.9554 1338.78 16.6486 1338.3 16.3459C1337.76 16.0101 1337.23 15.6793 1336.84 15.2666C1334.1 14.8453 1331.27 14.62 1328.41 14.5946C1327.74 14.5367 1327.29 14.4116 1326.87 14.2935C1326.43 14.1686 1326.01 14.0517 1325.38 14.0307C1324.64 14.006 1324.19 14.1429 1323.77 14.2716C1323.5 14.3557 1323.23 14.4364 1322.91 14.4663C1322.47 14.5065 1322.48 14.3876 1322.49 14.2512C1322.5 14.1312 1322.52 13.9977 1322.22 13.9474C1321.85 13.8839 1321.53 14.0396 1321.23 14.1895C1321.01 14.2934 1320.81 14.3945 1320.59 14.4183C1319.68 14.479 1318.73 14.5172 1317.81 14.5543C1316.5 14.6066 1315.26 14.6565 1314.29 14.7637C1313.09 14.8975 1312.9 15.0302 1312.49 15.3177C1312.34 15.4235 1312.16 15.5502 1311.89 15.7056C1311.73 15.7905 1311.41 15.6562 1311.03 15.4964C1310.58 15.3102 1310.06 15.0895 1309.6 15.1403C1309.38 15.3459 1309.08 15.5126 1308.73 15.6222C1307.09 15.8088 1305.48 16.1068 1303.91 16.5109C1302.99 15.621 1301.19 15.4409 1299.37 15.2602C1298.34 15.157 1297.3 15.0536 1296.43 14.8176C1296.14 14.7388 1295.92 14.658 1295.72 14.5824C1295.29 14.4272 1294.93 14.2943 1294.19 14.2468C1293.61 14.21 1293.66 14.0995 1293.75 13.9147C1293.82 13.7453 1293.93 13.5134 1293.61 13.2187C1293.33 12.9705 1292.64 12.9701 1291.97 12.9698C1290.98 12.9693 1290.06 12.9688 1290.69 12.1604C1287.82 12.2164 1284.96 12.1411 1282.15 11.9349C1282.05 11.9086 1281.82 11.705 1281.58 11.4854C1281.3 11.2291 1280.99 10.9511 1280.83 10.908C1279.84 10.6625 1278.82 10.4704 1277.78 10.3318C1277.11 10.1593 1276.43 10.0382 1275.72 9.91238C1274.72 9.73478 1273.67 9.54794 1272.53 9.19428C1271.89 9.19441 1271.73 8.88773 1271.58 8.59363C1271.49 8.41961 1271.4 8.25 1271.21 8.15097C1270.68 7.87961 1270.22 7.84332 1269.69 7.80145C1269.26 7.76802 1268.8 7.73103 1268.21 7.56787C1266.14 6.85767 1263.82 6.45806 1261.41 6.39481C1261.05 6.43488 1260.83 6.61845 1260.68 6.74441C1260.6 6.81018 1260.54 6.86024 1260.49 6.86595C1259.72 7.05937 1258.91 7.14916 1258.11 7.12984C1257.31 7.11051 1256.54 6.98248 1255.85 6.7538C1253.4 6.38984 1251.49 6.79187 1249.81 7.14384C1248.86 7.34322 1247.98 7.52654 1247.13 7.54545C1247.04 7.8871 1246.65 7.99296 1246.25 8.10004C1245.74 8.23722 1245.22 8.37639 1245.32 9.0159C1244.24 8.87899 1243.09 9.00642 1242.09 9.37361C1241.03 8.85852 1241.19 8.40577 1241.34 7.96383C1241.47 7.59772 1241.59 7.23902 1241.02 6.85846C1239.45 7.12219 1238.54 6.8628 1237.59 6.59415C1237.02 6.43253 1236.43 6.26756 1235.69 6.21113C1233.4 6.01507 1231.06 5.9567 1228.71 6.03746C1228.31 6.057 1228.05 6.17805 1227.8 6.29128C1227.56 6.40121 1227.34 6.50379 1227.03 6.49898C1226.54 6.50362 1226.21 6.61996 1225.95 6.71503C1225.52 6.86848 1225.24 6.96648 1224.71 6.44976C1224.35 6.08766 1223.72 6.94556 1223.84 6.9317C1222.8 6.94211 1221.77 6.91286 1220.75 6.84152C1219.01 6.87829 1218.16 7.24312 1217.55 7.50196C1217.22 7.64223 1216.96 7.75137 1216.67 7.76033C1216.25 7.77372 1216.04 7.60781 1215.84 7.45709C1215.67 7.32111 1215.51 7.19749 1215.23 7.22905C1215.38 7.21242 1214.65 7.6464 1214.33 7.68245C1213.29 7.75851 1212.25 7.73794 1211.25 7.62218C1210.71 7.59475 1210.71 7.46609 1210.71 7.33534C1210.71 7.25024 1210.71 7.16426 1210.56 7.10474C1209.82 6.78999 1208.86 6.55122 1208.1 6.35995C1207.53 6.21885 1207.07 6.1036 1206.87 6.00276C1206.66 5.89264 1206.46 5.70835 1206.25 5.52078C1206.02 5.30373 1205.78 5.08229 1205.5 4.96633C1205.45 4.93237 1205.5 4.75733 1205.55 4.62182C1205.57 4.53814 1205.59 4.46953 1205.58 4.45851C1205.55 4.42965 1203.37 3.88492 1203.37 3.88492C1203.09 3.79508 1202.7 3.82472 1202.37 3.84991C1202.13 3.86837 1201.92 3.88445 1201.81 3.84936C1201.68 3.80958 1201.61 3.60443 1201.54 3.38785C1201.46 3.15266 1201.38 2.904 1201.21 2.83899C1200.77 2.66367 1200.16 2.72007 1199.55 2.77582C1199.02 2.82437 1198.49 2.87243 1198.1 2.7665C1198.54 1.1821 1196.26 0.931936 1194.68 0.759343C1194.36 0.724152 1194.06 0.692186 1193.83 0.652793C1191.36 0.297425 1188.77 0.22558 1186.18 0.440736C1186.04 0.473187 1186.11 0.947249 1186.11 0.947249C1185.32 0.977915 1184.54 0.951669 1183.78 0.86799C1183.29 0.890307 1183.15 1.09435 1183.05 1.22988C1183.01 1.29457 1182.97 1.34366 1182.91 1.34993C1182.32 1.41543 1181.8 1.39781 1181.31 1.38148C1180.43 1.3522 1179.68 1.32709 1178.92 1.79361C1177.5 1.96943 1176.8 1.74174 1176.1 1.51434C1175.61 1.35294 1175.11 1.1917 1174.36 1.17495C1174.33 0.749434 1174.05 0.826223 1173.56 0.963677C1173.35 1.02215 1173.09 1.09159 1172.81 1.13802C1172.3 1.21969 1171.74 1.16057 1171.19 1.1016C1170.68 1.04823 1170.18 0.994977 1169.72 1.04635C1169.53 1.07625 1169.56 1.39778 1169.58 1.66851C1169.6 1.86744 1169.61 2.03894 1169.54 2.04716C1168.79 2.51545 1167.27 1.49552 1167.27 1.49552C1167.06 1.35179 1166.69 1.51929 1166.28 1.7067C1165.79 1.93211 1165.24 2.18632 1164.8 1.96254C1164.48 2.11658 1164.3 2.38772 1164.13 2.65763C1163.81 3.15914 1163.49 3.65645 1162.22 3.39067C1160.93 4.2586 1158.85 4.41528 1156.74 4.57466C1156.09 4.62379 1155.43 4.67319 1154.8 4.74375C1154.3 5.47394 1153.45 6.09877 1152.38 6.52185C1151.32 6.94494 1150.09 7.14315 1148.89 7.08661C1147.98 9.48679 1145.12 9.91689 1142.12 9.92779C1141.55 9.95198 1141.5 10.113 1141.45 10.243C1141.42 10.3244 1141.4 10.3937 1141.26 10.4097C1140.12 10.654 1139.02 10.97 1137.97 11.3532C1136.34 12.2163 1134.86 13.1844 1133.54 14.2394C1133.02 14.5731 1132.84 14.8571 1132.69 15.0829C1132.44 15.4602 1132.29 15.6746 1130.93 15.6852C1130.27 15.6919 1130 16.0892 1129.74 16.479C1129.56 16.7472 1129.39 17.0118 1129.09 17.1435C1128.09 17.4387 1127.38 17.0967 1126.8 16.8198C1126.17 16.5197 1125.7 16.296 1125.21 17.0437C1124.7 17.1267 1124.33 17.3161 1123.95 17.5138C1123.62 17.6868 1123.28 17.866 1122.81 17.9855C1122.05 18.1449 1121.31 18.1143 1120.74 18.0905C1120.08 18.063 1119.64 18.0445 1119.61 18.3405C1119.58 18.7354 1118.63 18.9266 1117.86 19.0831C1117.55 19.1451 1117.27 19.2017 1117.08 19.2634C1116.12 19.765 1114.98 20.092 1113.79 20.2068C1113.92 20.1929 1113.68 19.6241 1113.11 19.6879C1112.96 19.6887 1113.03 20.1795 1113.03 20.1795C1111.41 21.2592 1107.05 18.8823 1107.78 19.0419C1106.61 18.7714 1105.43 18.8546 1104.32 18.933C1103.33 19.0025 1102.39 19.0683 1101.57 18.8806C1100.49 19.0414 1099.86 19.5427 1099.23 20.0436C1098.39 20.7108 1097.55 21.3775 1095.66 21.2385C1095.4 22.2769 1093.87 22.3643 1092.32 22.4521C1090.82 22.5375 1089.31 22.6232 1088.97 23.5882C1090.64 23.355 1090.29 25.6442 1089.66 24.1071C1087.29 24.8662 1084.83 25.4785 1082.31 25.9351C1081.39 26.2569 1081.6 26.6347 1081.77 26.9275C1081.95 27.2563 1082.08 27.4781 1080.47 27.3933C1080.87 28.2454 1080.06 28.2201 1079.24 28.1942C1078.79 28.1797 1078.32 28.1651 1078.06 28.3037C1077.9 28.3816 1077.92 28.6513 1077.95 28.8911C1077.97 29.1029 1077.99 29.2916 1077.88 29.3046C1077.09 29.5851 1076.32 29.5853 1075.6 29.5855C1075 29.5857 1074.42 29.5858 1073.88 29.7482C1073.65 29.8293 1073.35 30.0169 1073.04 30.2104C1072.73 30.407 1072.41 30.6096 1072.14 30.7121C1071.92 30.7973 1071.89 30.8776 1071.87 30.9498C1071.84 31.05 1071.81 31.1344 1071.27 31.1941C1071.07 31.2166 1070.77 31.1914 1070.48 31.1666C1070.2 31.1426 1069.92 31.1189 1069.74 31.1394C1069.28 31.3057 1068.91 31.5574 1068.54 31.8071C1067.77 32.321 1067.02 32.8268 1065.58 32.5647C1064.87 32.4494 1064.11 32.4724 1063.38 32.63C1062.66 32.7875 1062 33.0728 1061.5 33.4521C1059.37 33.0927 1058.71 33.8533 1058.06 34.6134C1057.42 35.3512 1056.79 36.0886 1054.81 35.8018C1054.07 35.6061 1053.19 35.4714 1052.31 35.3357C1050.65 35.0788 1048.96 34.8185 1048.12 34.1344C1047.44 34.0153 1046.98 34.1832 1046.54 34.3444C1046.25 34.4499 1045.97 34.5526 1045.64 34.57C1045.09 34.599 1045.07 34.355 1045.05 34.1914C1045.04 34.1061 1045.03 34.0426 1044.96 34.0511C1044.54 33.9744 1044.25 34.1276 1043.96 34.2806C1043.75 34.3883 1043.55 34.496 1043.3 34.5235C1042.85 34.5111 1042.54 34.3986 1042.19 34.2745C1041.75 34.1119 1041.24 33.9293 1040.29 33.9254C1039.09 33.9241 1038.13 34.197 1037.26 34.4449C1036.36 34.6997 1035.56 34.9282 1034.68 34.8059C1034.64 34.7982 1034.69 34.684 1034.75 34.5336C1034.86 34.2822 1035.01 33.9297 1034.87 33.8051C1034.71 33.6705 1034.12 33.9138 1033.69 34.0936C1033.48 34.1799 1033.3 34.2515 1033.23 34.2596C1032.58 34.1848 1032.02 34.0554 1031.51 33.9395C1030.38 33.6774 1029.55 33.4846 1028.57 34.1503C1028.16 34.4533 1027.66 33.6564 1027.89 33.6314L1027.7 33.6256C1026.44 33.5845 1025.42 33.5516 1024.69 33.9864C1025.03 35.0475 1024.37 35.2406 1023.7 35.4343C1023.32 35.5463 1022.93 35.6585 1022.74 35.9389C1021.44 36.1863 1020.12 36.3334 1018.79 36.377C1018.23 36.4004 1018.2 36.5074 1018.17 36.6285C1018.14 36.7111 1018.12 36.8002 1017.92 36.874C1017.46 37.141 1016.88 37.3022 1016.29 37.3286C1016.36 37.3203 1015.69 36.5597 1015.5 37.3204C1016.29 37.361 1015.98 37.9745 1014.63 37.8024C1015.65 36.0664 1012.24 36.8789 1011.63 37.2356L1011.3 37.3593C1009.32 38.1 1007.38 38.8258 1005.2 38.0779C1004.69 37.9152 1004.64 38.1865 1004.58 38.4884C1004.54 38.7157 1004.5 38.9603 1004.25 39.0501C1003.96 39.1543 1003.52 39.0842 1003.07 39.0151C1002.63 38.9457 1002.2 38.8774 1001.93 38.9871C1001.51 39.1611 1001.22 39.4294 1000.95 39.6872C1000.53 40.0833 1000.13 40.4546 999.298 40.4208C999.343 40.0285 999.01 40.0091 998.556 39.9825C998.331 39.9694 998.078 39.9546 997.825 39.8923C997.538 39.7555 997.304 39.5785 997.14 39.3735C996.592 39.2736 996.271 39.8568 996.271 39.8568C994.492 39.7124 992.684 39.6645 990.868 39.716C990.08 39.7608 989.476 39.9437 988.823 40.1416C988.245 40.3167 987.629 40.5036 986.811 40.617C985.801 40.757 984.839 40.816 983.931 40.8717C983.273 40.912 982.643 40.9506 982.045 41.017C981.637 41.0529 981.387 40.876 981.153 40.7101C980.984 40.5908 980.824 40.4772 980.618 40.4529C978.959 40.2843 978.263 40.9464 977.74 41.4444C977.548 41.627 977.38 41.7875 977.195 41.877C976.016 42.4919 974.397 42.3683 972.701 42.2387C971.581 42.1532 970.428 42.0651 969.345 42.1853C968.2 42.3123 967.563 42.616 966.886 42.9387C966.41 43.1655 965.914 43.4018 965.209 43.5928C963.932 43.7126 962.5 43.7032 961.175 43.6945C959.589 43.684 958.158 43.6746 957.332 43.8889C957.199 43.9328 957.064 44.1333 956.922 44.3425C956.752 44.5931 956.574 44.8563 956.383 44.8775C955.936 44.9624 955.938 44.8284 955.941 44.6736C955.943 44.5464 955.946 44.4051 955.699 44.36C955.36 44.2982 954.958 44.4709 954.606 44.6221C954.389 44.7153 954.191 44.8004 954.039 44.8173C953.659 44.9244 953.268 45.0151 952.876 45.1058C951.331 45.4638 949.78 45.823 948.928 47.1998C946.716 47.4908 944.542 47.9378 942.446 48.5308C939.806 48.9243 937.144 49.2197 934.476 49.4154C933.867 49.5057 933.298 49.8663 932.762 50.2054C932.161 50.586 931.603 50.9395 931.08 50.853C930.987 50.8403 930.981 50.7743 930.974 50.6931C930.962 50.5484 930.945 50.3556 930.421 50.3314C929.98 50.3072 929.57 50.2016 929.167 50.0977C928.329 49.8817 927.52 49.673 926.52 50.218C926.532 51.3583 925.619 51.2704 924.735 51.1854C924.014 51.116 923.313 51.0485 923.15 51.6515C923.053 52.0075 922.948 52.0175 922.734 52.0379C922.62 52.0489 922.474 52.0629 922.28 52.1348C921.931 52.2706 921.605 52.4847 921.261 52.7105C920.35 53.3079 919.315 53.9868 917.403 53.5109C917.316 53.6614 917.239 53.8205 917.161 53.9802C916.767 54.7866 916.366 55.6088 914.686 55.4197C914.136 55.5025 913.684 55.6859 913.23 55.8699C912.68 56.0931 912.128 56.3171 911.397 56.363C910.892 56.3947 910.288 56.2463 909.704 56.1025C908.743 55.8664 907.833 55.6428 907.496 56.2496C904.527 56.4907 901.579 56.9213 898.696 57.5328C897.761 57.4921 897.559 57.8867 897.34 58.3151C897.218 58.5541 897.09 58.8035 896.827 58.9938C896.748 59.066 896.535 59.0198 896.28 58.9647C895.955 58.8942 895.561 58.809 895.295 58.9378C895.011 59.0754 895.04 59.5486 895.064 59.9344C895.08 60.1916 895.094 60.4099 895.011 60.4642C894.884 60.5463 894.46 60.4968 894.078 60.4523C893.829 60.4233 893.598 60.3964 893.479 60.4095C892.995 60.5313 892.656 60.9553 892.301 61.3997C891.65 62.2144 890.944 63.098 889.187 62.3155C887.186 62.2084 887.625 62.5369 888.211 62.9746C888.569 63.2419 888.981 63.5499 888.925 63.8243C886.733 64.0138 885.183 64.0125 883.755 64.0114C882.617 64.0105 881.556 64.0096 880.309 64.1052C880.157 64.5434 879.658 64.6972 879.142 64.856C878.93 64.9213 878.715 64.9875 878.521 65.0747C878.244 65.2154 878.885 65.8374 879.186 65.6107C878.428 66.2497 878.057 66.3852 877.645 66.5359C877.367 66.6377 877.07 66.7464 876.622 67.0216C875.386 67.7931 874.231 68.4068 872.965 69.0798C872.467 69.3445 871.951 69.6184 871.407 69.9148C871.196 70.4429 870.26 70.4251 869.332 70.4074C868.459 70.3907 867.593 70.3742 867.349 70.8144C867.143 71.1862 866.586 71.3111 866.026 71.4366C865.22 71.6174 864.407 71.7994 864.632 72.7231C862.131 72.5587 861.019 73.4118 859.876 74.289C859.273 74.7513 858.662 75.2203 857.834 75.5507C855.738 74.8848 854.11 75.812 853.33 76.2563C853.119 76.3761 852.97 76.4608 852.891 76.4697C852.182 76.5483 851.754 76.3324 851.38 76.1439C851.134 76.02 850.912 75.908 850.649 75.899C850.598 75.9047 850.494 75.958 850.352 76.0309C849.872 76.2772 848.959 76.7463 848.176 76.3495C847.037 76.1142 846.773 76.6863 846.605 77.0529C846.548 77.1749 846.502 77.2742 846.438 77.3134C846.31 77.3922 845.997 77.3497 845.678 77.3064C845.362 77.2635 845.04 77.2198 844.886 77.2929C844.42 77.4836 844.375 77.6138 844.323 77.7663C844.279 77.8959 844.229 78.0415 843.91 78.2541C843.815 78.3242 843.63 78.2732 843.405 78.2114C843.085 78.1231 842.684 78.0129 842.353 78.2008C842.128 78.3288 842.143 78.5101 842.157 78.6827C842.177 78.9412 842.196 79.18 841.406 79.1906C840.7 79.2001 840.513 79.6179 840.339 80.0057C840.189 80.3415 840.048 80.6549 839.59 80.6611C838.96 80.6695 838.62 81.1088 838.3 81.523C838.117 81.759 837.941 81.9868 837.721 82.122C837.027 82.5768 836.166 82.6268 835.333 82.6752C834.359 82.7317 833.425 82.786 832.842 83.4831C831.591 82.6625 831.116 82.733 830.313 82.852C830.161 82.8746 829.997 82.8988 829.815 82.9191C827.642 83.2802 826.539 82.5719 825.606 81.9721C825.038 81.6071 824.532 81.2823 823.886 81.2628C823.433 81.2496 823.044 81.5078 822.666 81.7584C822.279 82.0151 821.904 82.2638 821.485 82.2046C821.366 82.1814 821.359 82.1047 821.351 82.0163C821.338 81.8704 821.322 81.6926 820.798 81.6708C820.726 81.7897 820.608 81.8973 820.455 81.9819C820.303 82.0666 820.121 82.1251 819.929 82.1527C819.476 82.1759 819.261 82.0207 819.055 81.8718C818.895 81.7557 818.74 81.6434 818.481 81.6229C818.197 81.759 817.929 81.9176 817.657 82.0789C816.674 82.6606 815.632 83.2771 813.604 82.9989C811.644 83.2004 811.106 82.7918 810.664 82.4557C810.22 82.1184 809.873 81.8541 808.28 82.3529C808.557 81.8849 806.785 82.0868 805.757 82.2039C805.501 82.2331 805.29 82.2571 805.17 82.2641C804.565 82.299 804.303 82.7624 804.303 82.7624C803.143 82.8453 802.73 82.5717 802.451 82.3865C802.144 82.1832 801.999 82.0863 801.201 82.6839C801.395 82.5511 802.232 83.0412 801.904 83.2047C801.706 83.3035 801.259 83.2467 800.89 83.1998C800.642 83.1682 800.428 83.1411 800.351 83.1692C800.26 83.2019 800.277 83.2792 800.296 83.368C800.318 83.4682 800.343 83.583 800.22 83.6648C800.08 83.7585 799.655 83.7059 799.271 83.6583C799.023 83.6275 798.791 83.5988 798.664 83.6129C797.958 83.9139 797.769 84.6507 797.578 85.4001L797.53 85.5873C797.413 86.002 794.434 86.9916 794.134 87.0249C793.362 87.0386 793.017 87.3213 792.694 87.5865C792.296 87.9127 791.931 88.2123 790.843 87.9519C790.145 87.9816 789.617 88.0227 789.196 88.0555C787.774 88.1662 787.583 88.181 786.284 87.3332C785.352 87.4574 785.719 87.6452 786.197 87.8898C786.46 88.0243 786.756 88.1759 786.888 88.3436C787.731 88.5191 787.31 88.688 786.759 88.9094C786.454 89.0318 786.109 89.1703 785.916 89.3348C785.878 89.5962 785.07 89.7986 785.15 89.3075C785.196 89.0317 785.018 88.8718 784.843 88.7145C784.706 88.5917 784.571 88.4705 784.546 88.2972C783.325 88.4408 782.946 88.5156 782.57 88.5033C782.201 88.4913 781.834 88.3951 780.673 88.1974L780.525 88.2414C776.828 89.3496 773.103 90.4657 771.211 92.9596C770.586 93.2042 770.057 93.2141 769.421 93.2261C769.008 93.2338 768.549 93.2424 767.989 93.3173C767.297 93.4097 766.767 93.6216 766.277 93.8177C765.762 94.0239 765.29 94.2126 764.72 94.2265C764.219 94.2386 763.9 94.1172 763.548 93.9834C763.116 93.8196 762.637 93.6373 761.717 93.6597C761.105 93.6747 760.476 93.8602 759.862 94.0415C758.802 94.3541 757.787 94.6537 756.975 94.0419C756.714 94.3441 756.219 94.6079 755.29 94.5021C755.456 95.1795 754.957 95.2317 754.387 95.2913C754.102 95.3211 753.798 95.3528 753.552 95.466C753.39 95.5342 753.417 95.7649 753.444 95.9901C753.468 96.1969 753.492 96.3992 753.368 96.4668C752.825 96.7508 752.221 96.871 751.62 96.9906C751.099 97.0944 750.579 97.1978 750.103 97.4074C750.152 96.656 749.289 96.924 748.567 97.1483C748.247 97.2477 747.955 97.3385 747.782 97.3281C745.765 97.032 743.715 96.8082 741.641 96.659C740.413 96.7248 739.782 97.0798 739.185 97.4154C738.559 97.7678 737.97 98.099 736.767 98.0514C736.753 97.4856 735.595 97.4826 734.791 97.4805C734.706 97.4803 734.626 97.4801 734.551 97.4792C734.031 97.4733 733.917 97.6742 733.835 97.8187C733.793 97.8932 733.759 97.9527 733.682 97.9612C733.263 98.0349 733.035 97.8668 732.81 97.7008C732.637 97.5729 732.465 97.4463 732.209 97.4327C730.375 97.6009 728.536 97.5546 726.782 97.296C726.698 98.4904 726.216 98.294 725.562 98.0273C725.187 97.8744 724.755 97.6984 724.309 97.7479C724.201 97.7669 724.089 97.8534 723.965 97.9485C723.805 98.0717 723.626 98.2092 723.415 98.2327C723.262 98.2496 723.036 98.224 722.796 98.1968C722.449 98.1574 722.074 98.115 721.861 98.1958C720.995 98.5023 721.309 99.0372 721.51 99.38C721.601 99.5345 721.669 99.6501 721.596 99.6882C721.026 99.9603 720.911 99.1693 720.911 99.1693C719.917 99.0107 719.625 99.4903 719.341 99.9565C719.032 100.466 718.731 100.959 717.538 100.588C715.919 100.599 714.485 100.406 713.122 100.223C711.752 100.038 710.454 99.8636 709.113 99.9158C708.525 99.9386 708.082 99.961 707.732 99.9786C706.487 100.041 706.417 100.045 705.213 99.8023C703.54 99.3228 701.593 99.2813 699.762 99.6848C698.94 99.7919 698.601 99.6192 698.352 99.4925C698.095 99.3618 697.934 99.2801 697.44 99.6042C697.311 99.7027 697.032 99.5732 696.687 99.4131C696.242 99.2065 695.688 98.949 695.204 99.0661C695.085 99.0935 694.964 99.2766 694.832 99.4768C694.664 99.7313 694.477 100.013 694.254 100.038C693.544 100.16 693.27 99.9119 692.928 99.6028C692.887 99.5665 692.846 99.5294 692.804 99.492C692.396 99.1354 691.934 99.9754 691.934 99.9754C689.832 100.353 689.275 100.544 688.615 100.89C688.348 101.03 687.753 100.963 687.147 100.894C686.254 100.793 685.337 100.689 685.418 101.245C684.624 101.291 684.183 101.621 683.739 101.954C683.168 102.381 682.592 102.813 681.256 102.654C680.462 101.781 679.139 101.578 677.899 101.387C677.254 101.288 676.631 101.192 676.117 101.007C675.841 100.957 675.667 100.635 675.488 100.304C675.311 99.9756 675.128 99.6376 674.836 99.5421C674.154 99.3393 673.427 99.3775 672.561 99.4231C671.877 99.459 671.105 99.4995 670.2 99.4299C667.682 99.2272 666.106 99.3857 665.434 99.8299C664.763 100.274 663.218 99.2563 663.218 99.2563C662.695 99.1814 662.273 99.4734 661.866 99.7553C661.486 100.019 661.118 100.273 660.692 100.212C660.32 100.158 660.23 99.8988 660.154 99.6816C660.051 99.3842 659.975 99.1664 659.241 99.6659C659.128 99.7269 658.685 99.6844 658.297 99.647C658.042 99.6224 657.809 99.6001 657.71 99.6111C655.412 99.8536 655.219 99.8127 654.536 99.6675C654.349 99.6279 654.126 99.5806 653.814 99.5291C651.001 99.2724 648.133 99.1978 645.251 99.3064C644.667 99.3069 644.384 99.8048 644.384 99.8048C643.596 99.8646 642.328 99.5532 641.15 99.2641C639.587 98.8804 638.183 98.5359 638.272 99.1491C636.706 99.5515 635.088 99.8437 633.449 100.021C633.524 100.013 633.171 99.5057 632.764 99.5026C632.406 99.4999 631.812 99.8975 631.845 99.9742C630.784 99.7276 629.812 99.363 628.969 98.8962C628.354 98.8081 628.038 99.1624 627.767 99.4666C627.592 99.6624 627.436 99.8374 627.23 99.8602C626.533 99.9376 626.251 99.6874 625.938 99.4102C625.613 99.1215 625.255 98.8036 624.36 98.7963C624.492 98.8299 623.738 99.2356 623.413 99.2717C622.353 99.4245 621.286 99.5429 620.216 99.6265C619.764 99.6134 619.416 99.5057 619.128 99.4167C618.539 99.2341 618.202 99.1298 617.743 100.077C617.413 100.319 616.959 100.548 616.469 100.794C616.039 101.01 615.582 101.24 615.158 101.505C614.824 101.714 614.486 102.029 614.148 102.344C613.567 102.885 612.988 103.424 612.441 103.414C611.375 103.426 610.79 103.988 610.315 104.444C610.146 104.606 609.991 104.755 609.834 104.861C609.306 105.214 607.871 105.013 606.497 104.82C604.797 104.582 603.191 104.356 603.512 105.209C602.97 105.201 602.86 104.943 602.749 104.685C602.652 104.458 602.555 104.231 602.167 104.169C601.321 104.164 600.532 103.96 599.951 103.595C599.88 103.751 599.836 103.921 599.793 104.089C599.671 104.556 599.554 105.005 598.873 105.081C597.968 104.306 596.641 103.769 595.314 103.233C594.302 102.824 593.291 102.416 592.469 101.902C592.377 101.446 591.736 101.405 590.996 101.375C590.49 101.354 590.351 101.578 590.258 101.728C590.215 101.797 590.182 101.851 590.127 101.857C589.375 101.924 589.441 101.338 589.441 101.338C588.404 101.36 587.373 101.33 586.357 101.248C585.433 101.099 585.416 100.855 585.393 100.53C585.378 100.315 585.36 100.065 585.077 99.7826C584.987 99.6881 584.699 99.7199 584.384 99.7548C584.068 99.7897 583.725 99.8277 583.523 99.7457C583.334 99.6691 583.127 99.475 582.912 99.2724C582.667 99.0414 582.41 98.7994 582.153 98.708C581.452 98.457 580.758 98.329 580.054 98.1993C579.279 98.0564 578.493 97.9114 577.676 97.5978C577.737 96.7151 576.955 97.0069 576.172 97.2987C575.389 97.5905 574.607 97.8824 574.669 96.9997C573.892 96.9048 573.628 96.4848 573.353 96.0487L573.299 95.9633C573.358 95.622 572.993 95.5061 572.629 95.3903C572.311 95.2893 571.993 95.1883 571.957 94.9378C571.234 94.8879 570.423 94.8855 569.611 94.883C567.713 94.8772 565.811 94.8715 565.028 94.2605C564.494 94.3794 564.549 94.1894 564.624 93.9304C564.691 93.7007 564.774 93.4167 564.474 93.2459C564.121 93.0443 563.438 93.102 562.765 93.1588C562.225 93.2044 561.691 93.2495 561.339 93.1598C559.923 92.6989 558.433 92.3263 556.886 92.0469C556.516 91.9904 556.24 91.8743 555.96 91.7569C555.458 91.5457 554.947 91.3303 553.855 91.4515C553.689 91.4853 552.857 91.9024 552.942 91.9199C552.365 91.9196 551.947 91.7365 551.594 91.5815C551.303 91.4536 551.055 91.3449 550.796 91.3736C550.749 91.3751 550.647 91.428 550.504 91.5016C550.032 91.7446 549.121 92.2137 548.322 91.8091C548.243 91.2672 547.706 91.0216 547.147 90.7659C546.825 90.6186 546.495 90.4679 546.242 90.2553C545.709 89.531 545.074 88.8434 544.343 88.2002C544.467 88.7007 542.503 88.4684 541.998 88.1387C541.782 87.9976 541.828 87.8038 541.871 87.6235C541.928 87.3827 541.98 87.1658 541.394 87.1297C540.622 87.0853 540.399 86.7847 540.189 86.5012C539.931 86.1546 539.693 85.8334 538.493 86.0373C537.473 85.6613 536.03 85.6339 534.532 85.6053C532.291 85.5626 529.927 85.5176 528.669 84.2989C526.942 84.7935 526.042 84.5298 525.384 84.3367C525.169 84.2737 524.979 84.2182 524.795 84.1991C524.364 84.1543 524.094 84.2893 523.824 84.425C523.625 84.5245 523.425 84.6243 523.161 84.6537C522.411 84.6956 521.927 84.7991 521.566 84.8764C520.945 85.0094 520.685 85.0649 520.055 84.5963C519.602 84.3113 518.49 84.7137 517.916 84.9215C517.747 84.9826 517.625 85.0269 517.579 85.0319C516.023 84.309 514.281 83.7534 512.415 83.3864C512.382 83.38 512.411 83.3526 512.456 83.3102C512.554 83.2173 512.727 83.0526 512.493 82.88C512.29 82.7307 511.435 82.7727 510.653 82.8111C510.119 82.8374 509.62 82.8619 509.388 82.8225C508.73 82.6932 508.162 82.4782 507.647 82.2826C506.605 81.8878 505.773 81.5724 504.829 82.2038C504.269 82.5392 504.144 81.685 504.144 81.685C502.989 81.5475 501.964 81.1713 501.221 80.6116C500.9 80.3512 500.33 80.3486 499.757 80.3461C499.149 80.3434 498.537 80.3407 498.217 80.0285C498.116 79.9029 497.726 80.0259 497.235 80.1807C496.516 80.4079 495.579 80.7036 495.019 80.3835C494.458 80.1268 494.255 79.8451 494.114 79.6506C493.893 79.345 493.828 79.2543 492.777 79.8128C492.454 79.9901 492.223 79.6463 491.998 79.3103C491.815 79.0358 491.634 78.7665 491.41 78.7914C488.564 78.7108 485.521 78.0717 482.524 77.4423C480.662 77.0511 478.818 76.6638 477.05 76.4165C477.129 76.4399 474.703 77.3832 475.577 75.8881C473.803 75.8397 472.118 76.3981 470.868 76.8124C470.07 77.0769 469.449 77.2826 469.096 77.2341C469.004 77.2131 468.867 77.0679 468.7 76.8908C468.437 76.6132 468.101 76.2573 467.749 76.1787C466.543 75.9074 465.586 75.8795 464.768 75.8557C463.573 75.821 462.672 75.7947 461.718 75.0329C460.687 74.2104 460.204 74.6462 459.619 75.1745C459.291 75.4708 458.93 75.7962 458.423 75.945C458.129 75.7509 458.132 75.4538 458.136 75.153C458.138 74.8777 458.141 74.5994 457.917 74.3939C457.661 74.1586 457.211 74.1128 456.75 74.0658C456.367 74.0268 455.976 73.987 455.679 73.8381C455.489 73.7379 455.295 73.6306 455.096 73.5207C454.032 72.9313 452.83 72.266 451.304 72.2186C450.092 71.7274 448.432 71.9782 446.747 72.2329C445.619 72.4034 444.479 72.5757 443.454 72.5283C442.866 72.4972 442.792 71.9903 442.792 71.9903C441.204 71.8539 440.362 71.9729 439.762 72.0576C439.128 72.1471 438.764 72.1985 438.078 71.8701C437.073 71.3902 436.062 71.3554 434.828 71.3128C434.419 71.2987 433.985 71.2838 433.519 71.2515C433.113 71.2223 433.01 70.9981 432.944 70.854C432.91 70.7799 432.886 70.7269 432.835 70.7326C431.7 70.5486 430.646 70.4678 429.628 70.3897C428.639 70.314 427.684 70.2408 426.723 70.0783C426.201 69.2845 423.957 69.7416 423.614 70.0046C423.023 69.9564 422.917 69.5968 422.807 69.2245C422.731 68.9661 422.653 68.7016 422.41 68.5311C421.858 68.6437 421.485 68.2371 421.175 67.8997C420.807 67.4984 420.528 67.195 420.146 67.9795C418.916 67.7264 417.657 67.5223 416.376 67.369C415.524 67.2159 414.986 66.9611 414.468 66.7158C414.145 66.5631 413.83 66.4141 413.452 66.2957C412.49 66.0165 411.374 65.8173 410.394 65.6424C409.457 65.4751 408.644 65.33 408.209 65.1582C407.805 64.9986 407.504 64.824 407.213 64.6555C406.864 64.4531 406.53 64.2594 406.051 64.1109C405.831 64.0057 405.487 64.0317 405.16 64.0565C404.919 64.0747 404.687 64.0922 404.52 64.0562C403.711 63.9092 403.244 63.5937 402.865 63.3377C402.266 62.9334 401.886 62.677 400.726 63.465C400.139 63.7873 399.892 62.9627 400.017 62.9489C398.471 62.7752 397.684 63.0076 397.05 63.1947C396.71 63.295 396.414 63.3823 396.069 63.387C395.599 63.3933 395.352 63.2729 395.088 63.1443C394.797 63.0026 394.485 62.851 393.833 62.8476C391.726 62.8894 389.615 63.0011 387.509 63.1806C387.031 63.2126 386.983 62.9762 386.95 62.8156C386.933 62.7312 386.92 62.6677 386.851 62.6754C386.34 62.5952 386.221 62.8093 386.13 62.9743C386.082 63.061 386.041 63.1342 385.955 63.1437C384.132 63.5364 382.269 63.8182 380.391 63.9859C380.459 63.9301 379.895 63.5431 379.658 63.489C379.032 63.3223 378.33 63.2758 377.633 63.3532C376.936 63.4306 376.271 63.6287 375.712 63.927C375.154 64.2782 375.027 63.4082 375.027 63.4082C373.396 63.2641 371.866 62.8847 370.549 62.298C370.446 62.2158 370.542 62.0634 370.648 61.8948C370.778 61.6871 370.924 61.4548 370.733 61.2985C370.526 61.1288 369.803 61.1837 369.216 61.2284C368.824 61.2582 368.492 61.2834 368.414 61.2342C368.294 61.1585 368.392 60.8694 368.48 60.6142C368.534 60.4551 368.584 60.3091 368.573 60.2362C368.401 59.8763 368.129 59.7398 367.843 59.5963C367.644 59.4965 367.439 59.3934 367.256 59.2093C366.53 58.5512 365.869 57.8618 365.28 57.146C365.176 57.0079 365.137 56.7748 365.092 56.5136C364.975 55.8208 364.825 54.9306 363.355 55.0938C362.854 55.4869 361.062 55.557 360.985 55.0351C361.041 54.6016 360.494 54.5275 359.943 54.4529C359.437 54.3844 358.926 54.3154 358.876 53.9672C358.222 53.8401 357.518 53.8155 356.82 53.893C356.123 53.9704 355.45 54.1478 354.853 54.4136C354.028 54.345 353.646 54.1141 353.246 53.8728C352.925 53.6783 352.592 53.4771 352.006 53.3484C352.059 53.3587 350.791 54.0615 350.453 53.3115C349.568 53.9194 348.643 53.898 347.885 53.8804C347.042 53.8609 346.406 53.8461 346.264 54.7082C344.728 54.1111 343.009 54.1505 341.324 54.1891C340.118 54.2167 338.929 54.244 337.839 54.0362C337.772 54.0259 337.748 53.9092 337.717 53.7575C337.663 53.496 337.588 53.1304 337.235 53.0272C336.678 52.864 335.603 53.4968 335.603 53.4968C334.916 53.3764 334.269 53.3146 333.663 53.2566C332.04 53.1015 330.709 52.9741 329.672 51.8255C328.877 51.8724 327.964 51.6743 327.039 51.4737C325.446 51.128 323.816 50.7745 322.691 51.6518C320.778 50.7059 318.457 50.1311 315.975 49.9873C313.878 49.8986 311.747 50.01 309.651 50.3189C309.553 50.3077 309.571 50.2436 309.593 50.1647C309.635 50.0143 309.691 49.8099 308.993 49.8137C308.411 49.8168 307.908 49.9501 307.472 50.0657C307.11 50.1618 306.794 50.2458 306.515 50.2329C304.703 50.1027 302.916 49.8941 301.168 49.6061C300.624 49.5566 300.025 49.5769 299.418 49.5974C298.073 49.6429 296.695 49.6896 295.821 48.9779C293.786 48.9174 292.76 49.6035 291.734 50.2885C291.436 50.4877 291.138 50.6868 290.816 50.8674C290.009 50.8802 289.616 50.7382 289.207 50.5903C288.845 50.4596 288.471 50.3242 287.787 50.2871C287.054 50.2473 286.6 50.3589 286.151 50.4693C285.706 50.5788 285.265 50.687 284.564 50.6448C282.748 50.5484 280.965 50.3369 279.242 50.0137C278.902 49.9624 278.687 49.8399 278.484 49.7248C278.286 49.6118 278.099 49.5058 277.819 49.4812C277.788 49.4807 277.74 49.5132 277.668 49.5613C277.444 49.7121 276.992 50.0167 276.134 49.9413C275.658 49.8995 275.452 49.7937 275.313 49.7228C275.122 49.6252 275.061 49.5938 274.603 49.8866C274.668 49.79 273.687 49.6497 272.811 49.5242C272.269 49.4467 271.768 49.375 271.576 49.3226C271.177 49.221 270.875 49.0096 270.574 48.7992C270.079 48.4536 269.589 48.1107 268.68 48.2616C268.788 47.6957 268.36 47.9563 268.076 48.1295C267.981 48.1874 267.902 48.2356 267.864 48.2398C267.029 48.2108 266.252 48.0098 265.648 47.6662C264.717 47.7695 264.679 47.3319 264.64 46.8851C264.618 46.624 264.594 46.3598 264.393 46.1984C264.276 46.1048 263.939 46.14 263.605 46.1751C263.283 46.2087 262.963 46.2422 262.839 46.1615C262.694 46.0413 262.603 45.8315 262.503 45.5991C262.224 44.9549 261.871 44.1371 260.069 44.5734C258.24 44.1123 257.509 44.783 256.936 45.3092C256.427 45.7764 256.042 46.1297 255.123 45.4759C254.308 46.3182 253.044 46.0216 251.917 45.7571C250.755 45.4845 249.738 45.246 249.509 46.3237C247.875 45.4475 245.725 45.0354 243.503 45.1738C242.561 44.1955 241.54 44.5838 240.372 45.0277C239.425 45.3877 238.382 45.7843 237.206 45.519C236.934 44.8784 235.865 44.6762 234.798 44.4743C234.051 44.3328 233.304 44.1915 232.832 43.8995C231.85 43.0892 230.657 43.4818 229.455 43.8777C228.997 44.0286 228.537 44.1798 228.087 44.2652C228.82 43.529 227.41 43.135 226.567 42.8994C226.314 42.8287 226.112 42.7722 226.035 42.7251C225.885 42.6336 225.847 42.4715 225.806 42.2965C225.756 42.0813 225.702 41.8466 225.428 41.6997C225.145 41.5474 224.612 41.4492 224.117 41.358C223.746 41.2897 223.397 41.2254 223.19 41.1452C223.147 41.1248 223.193 41.007 223.24 40.8907C223.282 40.784 223.324 40.6786 223.295 40.6509C223.236 40.5932 220.291 40.0692 220.291 40.0692C218.837 39.7272 217.304 39.5135 215.73 39.4342C215.68 39.4397 215.811 38.9426 215.811 38.9426C215.483 38.6094 214.942 39.4246 214.942 39.4246C214.066 39.4987 213.214 39.4086 212.442 39.3271C211.6 39.2381 210.854 39.1593 210.28 39.3152C210.172 39.3512 210.117 39.4845 210.051 39.6425C209.94 39.9079 209.801 40.243 209.332 40.3051C208.95 40.3558 208.548 40.3159 208.146 40.2761C207.762 40.2381 207.379 40.2002 207.013 40.2408C206.4 40.3089 205.804 40.4616 205.239 40.6067C204.099 40.8991 203.078 41.1607 202.272 40.638C200.77 41.2783 199.115 41.7401 197.393 41.9991C196.833 42.0613 196.467 41.7935 196.219 41.6116C196.092 41.518 195.995 41.4471 195.918 41.4556C195.465 41.4324 195.2 41.5671 194.94 41.6997C194.746 41.7989 194.553 41.8969 194.286 41.9266C193.688 41.92 193.018 41.8913 192.343 41.8624C191.381 41.8212 190.409 41.7796 189.622 41.8009C188.694 41.833 188.037 41.9414 187.537 42.024C186.675 42.1663 186.275 42.2322 185.748 41.7011C185.663 41.5566 185.155 41.8307 184.621 42.119C184.095 42.4026 183.544 42.7 183.344 42.6265C182.021 42.5144 181.652 42.2575 181.306 42.0175C180.987 41.7959 180.689 41.5887 179.68 41.5232C179.064 41.479 178.995 41.0043 178.995 41.0043C177.427 40.7359 175.652 40.7937 174.01 40.8472C171.834 40.9181 169.89 40.9815 168.962 40.2696C168.159 39.6539 167.783 39.8493 167.428 40.0338C167.062 40.2237 166.719 40.4019 165.955 39.6714C165.928 39.666 164.844 39.9162 163.803 40.1565C162.87 40.3721 161.971 40.5796 161.9 40.5874C161.468 38.0717 156.883 38.9328 154.988 39.2888C154.686 39.3456 154.452 39.3895 154.314 39.4048C152.609 39.5941 151.875 39.2856 151.281 39.0363C151.031 38.9312 150.806 38.8367 150.544 38.7944C147.948 38.5456 145.41 38.1501 142.959 37.6117C142.783 37.412 142.551 37.2363 142.274 37.0928C141.822 36.8806 141.336 36.6977 140.823 36.5467C140.423 36.4143 140.136 36.0114 140.136 36.0114C139.694 35.887 139.049 36.0869 138.443 36.2749C137.813 36.47 137.225 36.6523 136.95 36.4455C136.866 36.391 136.957 36.1628 137.047 35.9375C137.138 35.7086 137.229 35.4827 137.134 35.4447C136.654 35.2841 136.528 35.5401 136.43 35.7368C136.381 35.8357 136.34 35.9196 136.265 35.928C135.677 36.048 135.352 35.7877 135.105 35.5902C134.99 35.4978 134.892 35.4191 134.792 35.3995C133.024 34.6643 130.94 34.2632 128.758 34.2375C128.454 33.6759 128.027 33.1508 127.489 32.6754C127.318 32.4838 127.066 32.3495 126.822 32.2187C126.246 31.9107 125.706 31.6224 126.331 30.6505C125.185 30.0722 123.988 29.5341 122.745 29.0392C122.313 28.8107 122.01 28.5432 121.728 28.294C121.256 27.8768 120.842 27.511 119.977 27.4661C119.456 27.4279 119.461 27.3315 119.467 27.2143C119.471 27.1354 119.475 27.047 119.319 26.9608C118.806 26.6679 118.234 26.4538 117.656 26.2377C116.986 25.9874 116.309 25.7342 115.708 25.3523C115.597 25.2777 115.696 25.0787 115.797 24.874C115.901 24.6625 116.009 24.4447 115.892 24.3515C115.775 24.258 115.439 24.2935 115.104 24.3289C114.782 24.3629 114.462 24.3967 114.339 24.316C114.016 24.0901 113.825 23.7881 113.634 23.4863C113.473 23.2319 113.312 22.9775 113.072 22.7689C110.385 22.9726 109.482 22.1999 108.579 21.4277C107.795 20.7571 107.012 20.0868 105.061 20.0569C104.725 18.9693 100.353 19.4555 99.5811 19.9108C99.5644 19.8324 99.5551 19.7441 99.5454 19.6532C99.5087 19.307 99.4679 18.9223 99.0019 18.8976C98.6259 18.8777 98.5334 18.6691 98.47 18.526C98.4342 18.4452 98.4077 18.3853 98.3445 18.3923C97.1187 18.1276 96.2898 18.4695 95.792 18.6748C95.3318 18.8647 95.1547 18.9377 95.2091 18.3063C95.2801 17.8742 93.8245 17.5661 92.9318 17.3772C92.6408 17.3156 92.4097 17.2667 92.3107 17.2302C92.1442 17.1689 92.1324 17.0958 92.1202 17.0204C92.1029 16.9135 92.0849 16.8017 91.6253 16.7114C90.9628 16.5839 90.5502 16.4675 90.2088 16.3711C89.5675 16.1901 89.1774 16.08 87.8552 16.101C86.5005 16.3646 86.4307 15.9523 86.3626 15.5496C86.2954 15.1524 86.2298 14.7646 84.9342 15.044C84.9538 14.6562 84.8854 14.5349 84.2493 14.5252C83.4054 14.595 82.5719 14.7418 81.7741 14.9607C81.6288 14.9989 81.4963 15.1967 81.3571 15.4046C81.1915 15.6516 81.0166 15.9129 80.7995 15.937C78.7338 16.3756 76.5728 16.494 74.5028 16.2822C74.0782 16.2521 74.0816 16.179 74.0863 16.0786C74.0905 15.9909 74.0955 15.8824 73.8179 15.7634C73.4427 15.6026 72.7056 15.654 72.151 15.6926C71.8251 15.7154 71.5622 15.7337 71.473 15.7019C71.3638 15.6631 71.3056 15.4736 71.2425 15.268C71.1663 15.0199 71.083 14.7483 70.894 14.6901C70.4151 14.519 70.0459 14.5038 69.7302 14.4909C69.322 14.4741 69.0034 14.461 68.653 14.1193C68.5628 14.0076 68.1398 14.0418 67.7501 14.0733C67.4714 14.0959 67.2096 14.1171 67.0987 14.0825C65.9489 13.6436 64.7227 13.2846 63.439 13.0105C62.9297 12.9644 62.8993 12.7927 62.8745 12.653C62.8606 12.5739 62.8483 12.5051 62.7522 12.4752C62.2294 12.3357 62.0956 12.5952 61.9998 12.781C61.9553 12.8674 61.919 12.9379 61.8555 12.9449C61.5051 13.0136 61.2055 12.8314 60.9227 12.6595C60.7473 12.5528 60.5784 12.4501 60.4078 12.4137C59.2373 12.0911 58.2733 11.5432 57.6398 10.8406C57.3377 10.5586 56.6425 11.2336 56.7571 11.3002C56.1037 11.2141 55.9236 10.9429 55.7309 10.6526C55.6451 10.5234 55.5568 10.3905 55.4232 10.2684C55.2609 10.1202 54.8629 10.066 54.4481 10.0095C53.7399 9.91299 52.9826 9.80984 53.265 9.22114C52.0107 9.36852 51.6362 9.44739 51.2647 9.43509C50.9043 9.42316 50.5468 9.32545 49.3921 9.12129C49.0929 9.09014 48.7783 9.11591 48.4879 9.19668C48.1975 9.27745 47.9436 9.4097 47.7572 9.57592C47.6044 9.67209 47.0692 9.33843 46.5628 9.0228C46.1446 8.76209 45.7462 8.51368 45.5993 8.52999C45.1493 8.47599 44.7199 8.5629 44.2177 8.66455C43.7103 8.76724 43.1286 8.88497 42.3762 8.88771C41.7608 8.89596 41.4015 9.24345 41.116 9.5196C40.9431 9.68683 40.7972 9.8279 40.6379 9.85164C40.2155 9.9146 39.7031 9.36051 39.953 9.33278C39.0056 9.43794 38.1897 9.65148 37.4402 9.84761C36.332 10.1376 35.3693 10.3896 34.3417 10.1969C34.2099 10.1633 33.5819 9.68631 33.5819 9.68631C33.1026 9.6889 32.7955 9.81548 32.4943 9.93965C32.1259 10.0915 31.7663 10.2397 31.1113 10.1533C31.0352 10.1428 30.9705 10.0605 30.8901 9.95811C30.6966 9.71185 30.4119 9.34953 29.6583 9.59209C29.2229 9.57713 28.9887 9.44129 28.7541 9.30527C28.4525 9.13038 28.1503 8.95518 27.4195 9.03629C27.7318 8.86983 27.9606 8.64852 28.0722 8.40363C28.1839 8.15874 28.1729 7.90418 28.0403 7.67639C27.9078 7.44861 27.6605 7.25937 27.3355 7.13755C27.0105 7.01573 26.6247 6.96745 26.234 6.99912C24.6547 5.78735 22.6204 4.85415 20.2957 4.27471C17.9711 3.69527 15.421 3.48559 12.8508 3.66305C12.4169 3.64693 11.8656 4.04522 12.7473 4.17235C12.3266 4.86985 12.0485 4.47527 11.7675 4.07639C11.6253 3.87442 11.4822 3.67134 11.3194 3.60838C8.94106 2.77588 6.81026 3.14434 4.70949 3.50761C3.76198 3.67145 2.82057 3.83424 1.86531 3.88532C1.14418 6.13721 -1.95695 5.93144 -4.47197 5.76456C-5.12065 5.72151 -5.73039 5.68106 -6.25023 5.68603C-6.70683 5.6885 -7.1436 6.17207 -7.1436 6.17207C-7.5659 6.16728 -7.76823 6.02276 -7.96361 5.88323C-8.13292 5.7623 -8.29698 5.64511 -8.59446 5.62589C-9.70811 5.52135 -9.85539 5.83818 -10.0064 6.16295C-10.0788 6.31859 -10.152 6.47605 -10.3328 6.58983C-10.8909 6.94105 -11.0199 6.05595 -11.0199 6.05595C-12.0273 5.6309 -12.2228 5.70845 -12.5439 5.83587C-12.8091 5.94111 -13.1601 6.08037 -14.1252 5.99847C-14.5503 5.96316 -14.7657 5.83659 -14.9846 5.70803C-15.1495 5.61119 -15.3163 5.51323 -15.576 5.4523C-15.9518 6.67166 -17.6376 6.88708 -19.3257 7.10279C-20.425 7.24326 -21.5253 7.38386 -22.2654 7.80192C-22.3097 8.08889 -22.5373 8.23633 -22.7663 8.38466C-22.9417 8.49833 -23.118 8.61252 -23.2132 8.79042C-23.7402 8.69723 -23.8155 8.8533 -23.9003 9.02925C-23.9413 9.11428 -23.9845 9.20394 -24.0821 9.27237C-24.5398 9.5865 -24.8692 9.48617 -25.1203 9.4097C-25.4516 9.30881 -25.6466 9.24943 -25.8202 10.2377C-25.8202 10.2377 -24.6994 10.6111 -25.8986 10.7442C-27.128 10.6099 -28.0008 10.3802 -28.8503 10.1566C-29.7655 9.91568 -30.6539 9.68187 -31.9324 9.58207C-33.1553 9.48662 -34.443 9.63171 -35.6645 9.76932C-36.9056 9.90914 -38.0782 10.0413 -39.0448 9.90556C-39.1263 9.88689 -39.1301 9.82123 -39.1347 9.74179C-39.1433 9.59097 -39.1548 9.39046 -39.707 9.36753C-39.9364 9.36086 -40.9168 9.77563 -40.6032 9.83725C-41.7519 9.62204 -42.218 9.06969 -42.6796 8.52266C-43.2354 7.86402 -43.7847 7.21309 -45.511 7.16766C-46.0791 7.17073 -46.2941 7.41779 -46.5074 7.6629C-46.6941 7.87746 -46.8794 8.09053 -47.2992 8.13712C-47.1459 7.6219 -47.4089 6.86337 -47.9344 7.61273C-48.6388 7.49811 -48.9335 7.14306 -49.2311 6.78436C-49.7026 6.21625 -50.1817 5.63897 -52.3086 5.99326C-52.3409 5.21962 -54.1907 5.88012 -55.0927 6.20219C-55.3284 6.28635 -55.4993 6.3474 -55.5563 6.35372C-55.8213 6.37135 -56.0859 6.36908 -56.3445 6.34552C-56.9443 6.34241 -57.0481 6.66838 -57.1583 7.0144C-57.2768 7.38648 -57.4027 7.78175 -58.1607 7.81591C-59.4472 7.8739 -61.0036 9.18066 -61.5005 9.59786C-61.5686 9.65504 -61.6169 9.6955 -61.6418 9.71376C-62.4113 8.84879 -63.9496 9.18387 -65.1147 9.43765C-65.6045 9.54435 -66.0284 9.63668 -66.3014 9.61941C-66.7593 9.59046 -67.0282 9.48507 -67.3251 9.36866C-67.6263 9.25058 -67.9565 9.12116 -68.5423 9.04861C-69.072 8.98301 -69.6835 9.0064 -70.3009 9.03002C-71.0397 9.05828 -71.787 9.08687 -72.4134 8.96381C-72.5264 8.9307 -72.7619 8.72044 -73.0127 8.49662C-73.2915 8.24773 -73.5891 7.98208 -73.7579 7.92465C-74.3112 7.70793 -74.8344 7.64787 -75.3705 7.58633C-75.8255 7.53409 -76.2899 7.48079 -76.7898 7.32967C-78.5802 6.72902 -80.2649 6.01669 -81.8217 5.20356C-82.9302 4.75776 -84.2537 4.55157 -85.6145 4.61226C-86.2303 4.5681 -86.3017 4.07838 -86.3017 4.07838C-87.1653 3.93107 -87.7352 4.08861 -88.277 4.2384C-88.6661 4.34599 -89.0408 4.44958 -89.4995 4.43332C-89.9859 4.41607 -90.3158 4.30883 -90.6742 4.19231C-91.1244 4.04596 -91.6196 3.88498 -92.5265 3.86932C-92.3446 3.89736 -93.1501 4.29076 -93.375 4.31572C-94.9435 4.57383 -95.6692 4.28159 -96.3587 4.00392C-96.9881 3.75051 -97.5873 3.50922 -98.7695 3.70944C-100.084 4.25735 -101.47 4.72328 -102.908 5.10065C-103.175 5.7088 -103.832 5.38087 -104.462 5.06509C-106.919 5.39236 -109.349 5.8342 -111.733 6.38659C-111.845 6.42111 -111.978 6.60014 -112.125 6.7969C-112.297 7.02862 -112.488 7.28491 -112.683 7.35872C-112.894 7.43847 -113.252 7.39771 -113.594 7.3589C-113.836 7.33129 -114.07 7.30466 -114.236 7.3231C-114.835 7.40716 -114.843 7.58891 -114.851 7.79487C-114.858 7.96536 -114.865 8.15245 -115.209 8.3144C-115.367 8.39329 -115.625 8.34068 -115.899 8.28497C-116.198 8.22392 -116.516 8.15915 -116.74 8.25968C-116.909 8.33534 -116.958 8.52961 -117.009 8.72754C-117.086 9.03249 -117.166 9.34614 -117.688 9.24818C-118.432 8.88395 -119.345 8.67603 -120.314 8.6494C-121.283 8.62277 -122.266 8.77955 -123.143 9.09924C-124.668 9.66283 -124.997 9.25131 -125.373 8.78171C-125.655 8.42822 -125.964 8.04182 -126.83 8.01365C-126.698 8.04723 -127.374 8.45956 -127.724 8.49838C-129.524 8.79156 -132.108 9.03612 -133.953 9.21074C-134.649 9.27662 -135.24 9.33255 -135.643 9.37737C-136.191 9.43816 -136.617 9.4189 -136.994 9.40185C-137.633 9.37301 -138.131 9.35049 -138.841 9.73231C-139.447 10.058 -139.862 10.0393 -140.366 10.0165C-140.801 9.99684 -141.303 9.97417 -142.052 10.1691C-142.185 10.1924 -142.38 10.4347 -142.573 10.6741C-142.74 10.8817 -142.906 11.0872 -143.027 11.1454C-143.241 11.2178 -143.467 11.3489 -143.698 11.4832C-144.306 11.836 -144.951 12.2102 -145.5 11.596C-146.278 11.5667 -146.835 11.7029 -147.394 11.8392C-148.156 12.0252 -148.919 12.2115 -150.243 11.9781C-150.473 13.5305 -151.299 14.1365 -152.271 14.4372C-152.576 14.5388 -152.89 14.3329 -153.182 14.1417C-153.375 14.015 -153.559 13.8947 -153.723 13.8746C-154.182 13.8534 -154.486 13.9867 -154.789 14.1202C-155.162 14.284 -155.535 14.4479 -156.196 14.3265C-156.164 14.7876 -156.802 14.775 -157.305 14.7651C-157.532 14.7606 -157.732 14.7567 -157.829 14.7975C-157.995 14.8675 -157.971 15.0994 -157.947 15.3261C-157.926 15.5239 -157.906 15.7177 -158.013 15.797C-158.85 16.3098 -159.728 16.7941 -160.645 17.2466C-162.151 18.208 -163.879 19.0128 -165.756 19.629C-166.21 19.7641 -166.419 19.912 -166.619 20.0522C-166.91 20.2578 -167.179 20.4471 -168.159 20.5559C-168.489 20.5804 -168.797 20.4372 -169.091 20.3005C-169.58 20.0728 -170.031 19.863 -170.481 20.4753C-171.343 21.1813 -172.72 21.3255 -173.993 21.4587C-174.831 21.5464 -175.623 21.6294 -176.194 21.865C-176.38 21.927 -176.561 22.2596 -176.744 22.5959C-176.917 22.9142 -177.092 23.2358 -177.275 23.3342C-177.726 23.5784 -178.265 23.7423 -178.831 23.8051C-179.397 23.8679 -179.966 23.8271 -180.473 23.6892C-179.893 25.0551 -180.411 26.0292 -182.581 26.6397C-182.607 26.1131 -182.972 26.249 -183.429 26.419C-183.651 26.5019 -183.895 26.5928 -184.133 26.6192C-184.818 26.6938 -185.509 26.6784 -186.161 26.5739C-186.814 26.4694 -187.416 26.2778 -187.928 26.0115C-188.888 25.5529 -189.067 25.6186 -189.416 25.7467C-189.692 25.8481 -190.075 25.9886 -191.036 25.939C-191.109 26.4775 -191.637 27.2109 -191.905 26.421C-193.739 25.9668 -195.56 26.365 -197.058 26.6923C-198.744 27.0609 -200.02 27.3396 -200.44 26.2118C-201.781 26.4575 -201.848 26.0388 -201.914 25.6325C-201.979 25.2298 -202.042 24.8393 -203.341 25.1194C-204.985 25.9673 -206.022 25.8433 -207.591 25.6556C-208.523 25.5441 -209.642 25.4102 -211.189 25.4441C-211.375 25.4693 -211.578 25.4621 -211.777 25.4549C-212.272 25.4372 -212.745 25.4202 -212.873 25.9042C-212.985 26.3232 -213.55 26.4802 -214.01 26.6081C-214.295 26.6875 -214.54 26.7556 -214.611 26.8681C-214.712 27.0273 -214.465 27.2707 -214.251 27.4819C-214.07 27.6607 -213.912 27.8164 -214.007 27.8786C-214.659 28.2999 -215.238 28.0902 -215.69 27.9262C-215.946 27.8334 -216.162 27.7553 -216.327 27.8143C-216.958 28.0444 -217.442 28.7318 -217.791 29.226C-218.002 29.5256 -218.163 29.7542 -218.276 29.7668C-218.848 30.0231 -218.961 29.2479 -218.961 29.2479C-219.659 29.1639 -219.696 29.5573 -219.727 29.8729C-219.745 30.0601 -219.76 30.2199 -219.909 30.2364C-220.4 30.3207 -220.422 30.1435 -220.445 29.9705C-220.458 29.864 -220.472 29.7591 -220.594 29.7175C-220.914 29.6085 -222.641 30.4754 -222.995 30.6594C-223.718 31.0538 -224.516 31.1502 -225.308 31.2456C-226.216 31.3552 -227.114 31.4636 -227.874 32.0204C-229.171 32.1953 -229.569 33.0667 -229.969 33.9431C-230.399 34.884 -230.832 35.8307 -232.382 35.9278C-232.885 36.3086 -233.54 36.5963 -234.266 36.754C-234.992 36.9117 -235.757 36.9326 -236.467 36.8152C-237.451 36.6887 -237.202 37.0804 -236.905 37.549C-236.553 38.1027 -236.133 38.7638 -237.599 38.8045C-238.287 38.9094 -238.734 38.6743 -239.108 38.4776C-239.367 38.3409 -239.591 38.2228 -239.837 38.2501C-240.826 38.1943 -241.351 38.5732 -241.76 38.868C-241.987 39.0311 -242.177 39.1685 -242.391 39.1922C-242.924 39.2077 -243.487 39.059 -244.078 38.9031C-245.224 38.6005 -246.475 38.2702 -247.818 39.0555C-248.542 38.8073 -249.223 38.5435 -249.901 38.2807C-250.649 37.9906 -251.395 37.7016 -252.193 37.436C-253.107 37.3065 -253.493 37.6123 -253.885 37.9243C-254.093 38.0896 -254.304 38.2567 -254.596 38.3615C-255.304 38.3541 -255.998 38.3312 -256.687 38.3086C-257.285 38.2889 -257.878 38.2694 -258.47 38.2604C-261.759 37.2103 -265.283 36.4515 -268.954 36.0017C-269.218 35.3552 -270.029 35.5301 -271.069 35.7544C-272.057 35.9675 -273.253 36.2252 -274.382 35.865C-275.307 35.7149 -275.826 35.3708 -276.334 35.0341C-277.053 34.5574 -277.749 34.0954 -279.546 34.2195C-280.626 34.3808 -281.442 34.736 -282.26 35.0918C-283.343 35.5632 -284.429 36.0357 -286.133 36.0599C-286.086 35.6851 -286.336 35.5358 -286.818 35.541C-287.299 35.5463 -287.687 36.023 -287.687 36.023C-288.458 36.0094 -289.053 35.83 -289.571 35.6739C-289.976 35.5518 -290.334 35.444 -290.691 35.4413C-291.195 35.4374 -291.283 35.6098 -291.355 35.7499C-291.399 35.8358 -291.437 35.9095 -291.56 35.9232C-292.298 36.0855 -293.011 35.377 -293.011 35.377C-294.43 35.5165 -295.815 35.8284 -297.091 36.2958C-297.525 36.3529 -297.966 36.329 -298.359 36.2272C-298.753 36.1253 -299.082 35.95 -299.307 35.7222C-299.787 35.3898 -301.045 36.6862 -301.045 36.6862C-301.357 36.7137 -301.665 36.6769 -301.926 36.5814C-302.187 36.486 -302.385 36.3373 -302.493 36.1563C-302.615 36.0374 -303.196 36.2587 -303.891 36.5231C-304.882 36.9003 -306.103 37.3652 -306.551 37.056C-306.092 36.2959 -306.876 36.2209 -307.753 36.1369C-308.088 36.1048 -308.438 36.0713 -308.736 35.9978C-308.83 35.9747 -308.934 35.9497 -309.047 35.9228C-310.233 35.6388 -312.326 35.1375 -312.295 34.4001C-312.272 33.869 -312.829 33.8819 -313.496 33.8974C-313.842 33.9054 -314.219 33.9142 -314.558 33.8474C-315.526 33.6534 -315.988 33.1681 -316.424 32.7103C-316.849 32.265 -317.248 31.8457 -318.064 31.746C-317.994 30.5402 -319.085 30.7483 -320.216 30.9642C-321.193 31.1508 -322.201 31.3432 -322.516 30.6331C-326.681 30.2757 -329.599 30.9854 -331.447 32.4119C-333.032 32.5802 -334.538 32.5491 -336.005 32.5187C-337.64 32.4849 -339.228 32.452 -340.824 32.697C-341.094 32.8795 -341.394 33.0422 -341.719 33.1817C-343.306 33.6391 -344.975 33.9391 -346.666 34.0692C-347.48 34.9479 -348.709 35.6502 -350.158 36.0639C-350.699 36.2043 -350.753 35.873 -350.785 35.6768C-350.798 35.5981 -350.808 35.5411 -350.843 35.5451C-351.382 35.4591 -351.472 35.6741 -351.544 35.8444C-351.582 35.937 -351.616 36.0163 -351.712 36.0271C-352.115 36.096 -352.399 36.1565 -352.66 36.212C-353.09 36.3034 -353.457 36.3816 -354.188 36.4627C-354.113 36.4543 -354.248 35.8744 -354.872 35.9438C-354.922 35.9546 -354.977 36.0039 -355.048 36.0675C-355.189 36.1938 -355.394 36.3765 -355.741 36.4257C-356.029 36.4665 -356.35 36.4377 -356.648 36.411C-356.89 36.3892 -357.116 36.3689 -357.296 36.3888C-357.695 36.4332 -358.165 36.8722 -358.165 36.8722C-359.031 36.9525 -359.367 36.8049 -359.603 36.7008C-359.846 36.5942 -359.985 36.533 -360.484 36.8079C-360.745 36.908 -361.147 36.9144 -361.554 36.9209C-362.159 36.9307 -362.776 36.9405 -362.957 37.2585C-363.626 36.95 -363.841 36.4946 -364.025 36.1045C-364.328 35.4628 -364.548 34.9973 -366.568 35.6513C-366.533 35.0083 -366.856 34.3967 -367.477 33.9246C-368.099 33.4525 -368.98 33.1495 -369.965 33.0707C-372.325 33.4428 -374.747 33.3837 -376.946 32.8984C-377.75 32.959 -377.669 32.5151 -377.588 32.0653C-377.486 31.5028 -377.382 30.9311 -379.003 31.3254C-382.985 30.1165 -387.408 29.5096 -391.956 29.5486C-393.735 28.7578 -395.393 27.8679 -396.914 26.886C-398.451 26.2348 -399.55 26.5037 -400.624 26.7666C-401.63 27.0127 -402.614 27.2537 -403.918 26.7301C-404.659 25.6778 -405.82 24.7841 -407.293 24.1317C-407.081 23.872 -406.961 23.5904 -406.944 23.3067C-406.927 23.0231 -407.013 22.7457 -407.194 22.4969C-407.375 22.248 -407.647 22.0335 -407.989 21.871C-408.331 21.7085 -408.734 21.6016 -409.165 21.5592C-409.707 21.5413 -409.705 21.4046 -409.704 21.2695C-409.703 21.1819 -409.703 21.0949 -409.85 21.0417C-410.805 20.697 -412.203 20.648 -413.666 20.5967C-414.706 20.5603 -415.78 20.5227 -416.751 20.3766C-416.751 20.3766 -417.018 19.9399 -417.436 19.8577C-419.173 19.5586 -420.953 19.3432 -422.76 19.2118C-422.837 19.2043 -422.679 18.7203 -422.679 18.7203C-423.303 18.2752 -425.152 19.1723 -425.152 19.1723C-425.722 19.1258 -426.428 18.871 -427.164 18.6056C-427.722 18.4043 -428.297 18.197 -428.841 18.0702C-429.488 17.9195 -430.129 17.8147 -430.671 17.726C-431.186 17.6418 -431.612 17.5721 -431.871 17.4913C-432.041 17.4384 -432.26 17.417 -432.477 17.3959C-432.939 17.3509 -433.39 17.3071 -433.319 16.9601C-433.83 17.025 -434.371 16.971 -434.908 16.9175C-435.42 16.8664 -435.929 16.8157 -436.404 16.8685C-436.545 16.8983 -436.817 17.0797 -437.112 17.2776C-437.488 17.5292 -437.904 17.8074 -438.142 17.8337C-440.779 18.2142 -443.469 18.1467 -445.939 17.6383C-447.476 17.4661 -448.866 17.4077 -450.134 17.3544C-451.719 17.2878 -453.113 17.2292 -454.364 16.9663C-455.069 16.8279 -455.72 16.642 -456.382 16.4528C-457.145 16.2347 -457.924 16.0123 -458.817 15.8534C-462.978 14.9974 -467.363 14.5474 -471.832 14.5177C-471.486 15.6842 -472.771 15.5601 -473.893 15.4519C-474.387 15.4042 -474.849 15.3595 -475.126 15.4296C-475.188 15.4431 -475.167 15.5036 -475.141 15.5809C-475.105 15.6889 -475.058 15.8297 -475.207 15.9212C-475.368 16.0198 -475.821 15.9732 -476.21 15.9332C-476.44 15.9096 -476.647 15.8882 -476.758 15.9006C-477.237 16.0533 -477.509 16.239 -477.784 16.4265C-477.997 16.5717 -478.211 16.718 -478.524 16.8509C-481.207 16.2873 -484.073 16.0603 -486.974 16.1817C-487.878 15.803 -488.617 16.4682 -489.042 16.8508C-489.201 16.9944 -489.317 17.0982 -489.38 17.0921C-489.47 17.0834 -489.519 16.9838 -489.575 16.8726C-489.663 16.6962 -489.765 16.4908 -490.065 16.5733C-490.292 16.6358 -490.541 16.8082 -490.808 16.9935C-491.117 17.207 -491.45 17.4377 -491.803 17.5371C-492.61 17.7377 -493.436 17.8953 -494.273 18.0054C-494.793 18.0631 -495.263 18.1675 -495.715 18.2676C-496.565 18.4563 -497.349 18.6302 -498.271 18.4491C-498.699 18.3693 -498.939 18.0732 -499.147 17.8166C-499.307 17.6196 -499.448 17.446 -499.641 17.4115C-499.961 17.3686 -500.402 17.5068 -500.903 17.6635C-501.735 17.9242 -502.732 18.2364 -503.613 17.8523C-504.695 18.0154 -505.385 18.4969 -506.08 18.9823C-506.949 19.5887 -507.827 20.2013 -509.489 20.2073C-509.545 20.8874 -510.466 21.5052 -511.039 21.8898C-511.217 22.0097 -511.362 22.1069 -511.437 22.1762C-511.58 22.3105 -511.554 22.5853 -511.526 22.8667C-511.494 23.197 -511.46 23.5363 -511.702 23.6672C-513.01 23.7641 -514.316 23.7308 -515.575 23.5674C-516.865 23.3196 -517.014 23.3291 -518.014 23.3925C-518.371 23.4152 -518.835 23.4446 -519.499 23.4718C-519.707 22.74 -520.965 22.5838 -522.224 22.4275C-523.164 22.3109 -524.104 22.1941 -524.611 21.8386C-524.96 21.8634 -525.258 22.4335 -525.525 22.9441C-525.873 23.61 -526.169 24.1745 -526.455 23.2967L-529.565 23.2079C-529.614 23.3443 -529.649 23.4898 -529.683 23.6344C-529.801 24.1288 -529.917 24.6129 -530.593 24.6879C-532.471 22.9518 -535.179 22.834 -539.652 22.9769C-539.672 23.0113 -539.733 23.4684 -539.733 23.4684C-540.113 23.668 -540.61 23.4165 -541.067 23.1851C-541.403 23.0149 -541.718 22.8556 -541.949 22.8948C-542.173 22.9329 -542.356 23.0994 -542.56 23.284C-542.852 23.5486 -543.185 23.8504 -543.737 23.8643C-544.26 23.8774 -544.279 23.9752 -544.301 24.0876C-544.318 24.1762 -544.337 24.2739 -544.606 24.3463C-544.884 24.4211 -545.24 24.3643 -545.613 24.3047C-546.058 24.2336 -546.529 24.1584 -546.923 24.2983C-547.257 24.4171 -547.267 24.7224 -547.273 24.9274C-547.281 25.1663 -547.284 25.2688 -547.792 24.7803C-548.177 24.4052 -548.661 25.2623 -548.661 25.2623C-549.124 25.5242 -549.704 25.6804 -550.298 25.7019C-553.445 25.9562 -556.598 26.0487 -559.727 25.9774C-560.109 25.9808 -560.239 25.8648 -560.38 25.7384C-560.529 25.6049 -560.691 25.4597 -561.178 25.4312C-561.649 25.4036 -561.968 25.514 -562.316 25.6344C-562.668 25.7563 -563.05 25.8883 -563.648 25.8982C-567.067 26.002 -570.442 25.7412 -573.636 25.1265C-573.8 25.0483 -574.225 25.0948 -574.425 25.117C-574.803 25.0803 -574.877 24.9136 -574.937 24.7779C-574.976 24.6917 -575.008 24.6181 -575.11 24.5981C-575.458 24.5156 -575.816 24.4048 -576.186 24.2903C-577.435 23.9038 -578.819 23.4753 -580.434 23.9521C-582.002 23.9155 -582.357 24.5068 -582.687 25.0569C-582.936 25.4717 -583.17 25.863 -583.901 25.9441C-584.202 25.9592 -584.543 25.7645 -584.831 25.5999C-585.048 25.4756 -585.236 25.3684 -585.354 25.3815C-585.865 25.58 -586.29 25.8514 -586.718 26.1245C-587.115 26.3776 -587.514 26.6322 -587.985 26.8315C-588.427 27.1146 -588.946 27.3421 -589.512 27.5014C-590.077 27.6608 -590.677 27.748 -591.278 27.7585C-592.294 27.8938 -592.991 27.6285 -593.58 27.4046C-593.828 27.3103 -594.057 27.2232 -594.282 27.1767C-595.036 27.0153 -595.619 26.9631 -596.074 26.9224C-596.663 26.8698 -597.036 26.8364 -597.284 26.61C-597.439 26.4182 -598.588 26.5453 -598.838 26.5731C-599.464 26.3815 -599.751 26.1311 -599.998 25.9153C-600.36 25.5997 -600.637 25.3583 -601.764 25.4834C-601.838 25.4869 -601.932 25.56 -602.05 25.6521C-602.337 25.8749 -602.767 26.209 -603.399 25.938C-603.409 25.3264 -604.303 25.1987 -605.202 25.0704C-606.025 24.9531 -606.851 24.8352 -607.008 24.3458C-607.871 24.0105 -608.707 24.3103 -609.386 24.5539C-610.123 24.8187 -610.676 25.017 -610.879 24.2611C-611.569 24.2014 -611.763 23.8945 -611.964 23.577C-612.047 23.4453 -612.131 23.3118 -612.253 23.1934C-612.302 23.125 -612.637 23.206 -613.087 23.3148C-613.815 23.4905 -614.843 23.7389 -615.451 23.5483C-615.744 23.4439 -615.839 23.0848 -615.909 22.8243C-615.953 22.657 -615.987 22.5303 -616.055 22.5379C-616.614 22.3883 -617.24 22.3242 -617.859 22.2607C-618.556 22.1892 -619.246 22.1185 -619.825 21.9274C-619.902 21.9199 -619.747 21.4209 -619.747 21.4209C-620.677 21.1107 -621.703 20.9194 -622.774 20.8569C-623.717 20.7546 -624.699 20.7781 -625.659 20.9261C-626.619 21.0741 -627.538 21.3438 -628.36 21.7182C-631.086 21.1992 -633.875 20.7954 -636.711 20.5082C-637.108 20.4697 -637.206 20.252 -637.272 20.1062C-637.309 20.0249 -637.336 19.966 -637.398 19.973C-637.961 19.8681 -638.507 20.1706 -638.812 20.3394C-638.916 20.3975 -638.993 20.4397 -639.031 20.444C-639.966 20.4438 -640.356 20.0807 -640.765 19.7004C-641.178 19.3165 -641.61 18.9151 -642.64 18.8517C-643.147 18.8157 -643.178 18.6412 -643.204 18.4982C-643.218 18.4173 -643.231 18.3465 -643.327 18.3165C-644.037 18.1409 -644.536 18.1655 -644.94 18.1854C-645.481 18.212 -645.852 18.2302 -646.329 17.7498C-647.219 18.5157 -648.056 17.9515 -648.841 17.4227C-649.568 16.9326 -650.251 16.4729 -650.887 17.1311C-651.302 17.1315 -651.87 17.3618 -652.448 17.5966C-653.497 18.0226 -654.583 18.4633 -654.86 17.572C-656.575 17.6027 -657.03 16.9037 -657.483 16.2064C-657.531 16.1319 -657.58 16.0574 -657.63 15.9838C-658.857 16.3304 -659.752 16.2245 -660.491 16.137C-661.22 16.0507 -661.798 15.9823 -662.395 16.3837C-663.222 16.9219 -663.68 16.6333 -664.113 16.3612C-664.505 16.1143 -664.876 15.881 -665.48 16.2921C-665.601 16.3679 -666.132 16.3209 -666.546 16.2843C-666.772 16.2643 -666.963 16.2474 -667.034 16.2552C-668.081 16.3631 -669.356 16.5864 -670.445 16.777C-671.462 16.9553 -672.318 17.1051 -672.673 17.1057C-673.017 17.1063 -673.157 16.9865 -673.303 16.8608C-673.471 16.7173 -673.647 16.5661 -674.146 16.5787C-674.712 16.5929 -674.751 16.7188 -674.791 16.8448C-674.816 16.9272 -674.842 17.0096 -675.015 17.0606C-675.553 17.2233 -676.054 17.2894 -676.523 17.3514C-676.86 17.3958 -677.181 17.4382 -677.488 17.5126C-677.875 17.6062 -678.198 17.8482 -678.487 18.0642C-678.747 18.2588 -678.979 18.4324 -679.204 18.4574C-682.006 19.0698 -685.06 18.5782 -687.801 18.137C-689.151 17.9196 -690.426 17.7145 -691.557 17.6596C-691.944 17.6378 -692.162 17.7607 -692.381 17.8844C-692.596 18.0058 -692.812 18.1279 -693.191 18.1142C-693.571 18.1006 -693.75 17.9693 -693.926 17.8391C-694.105 17.7073 -694.283 17.5767 -694.667 17.5708C-695.028 17.5653 -695.192 17.6676 -695.369 17.7783C-695.566 17.9014 -695.779 18.0348 -696.299 18.0418C-696.744 18.0478 -696.98 17.9034 -697.22 17.7557C-697.513 17.5755 -697.815 17.3905 -698.515 17.4682C-699.366 17.4737 -700.754 16.9126 -700.754 16.9126L-703.621 17.6206Z" fill="#FBEBE8"/>
</svg>
