<svg width="375" height="356" viewBox="0 0 375 356" fill="none" xmlns="http://www.w3.org/2000/svg">
<path d="M682.188 0.295931L822.988 267.353L821.41 268.046C821.41 268.046 820.553 267.64 820.063 267.677C819.344 267.843 819.295 267.244 818.727 267.293C818.159 267.343 818.277 267.723 817.836 267.743C817.395 267.764 817.373 267.348 816.93 267.355C816.486 267.362 816.482 267.798 816.036 267.792C814.045 267.789 811.152 266.706 808.838 267.62C808.57 267.682 808.354 268.287 807.948 268.462C807.543 268.637 807.074 268.665 806.571 268.93C806.332 269.053 806.658 269.304 806.121 269.359C805.584 269.415 805.641 268.955 805.218 268.984C804.794 269.014 803.204 269.652 802.058 269.903C801.946 269.929 801.255 269.83 801.16 269.933C800.518 270.692 800.175 269.074 799.374 269.978C798.765 270.689 798.003 269.833 796.671 270.493C796.293 269.887 796 269.195 794.91 269.298C794.519 268.18 793.341 269.768 792.668 269.815C792.048 270.989 790.812 268.207 789.978 269.485C789.411 268.828 789.189 269.409 788.191 269.137C788.029 269.079 788.203 268.74 787.739 268.725C786.546 268.701 786.577 267.486 785.495 267.559C785.411 267.578 785.055 268.095 784.604 268.009C784.505 268.032 784.515 267.622 784.153 267.597C782.49 267.472 780.841 267.249 779.217 266.93C778.783 267.269 778.282 267.527 777.744 267.686C777.206 267.845 776.643 267.902 776.09 267.855C775.466 267.846 774.855 267.729 774.287 267.51C774.287 267.51 774.325 267.095 774.28 267.092C773.613 266.838 772.763 266.952 772.045 266.738C771.946 266.761 771.887 266.054 771.592 265.932C770.993 265.717 769.879 266.49 769.787 266.348C769.507 266.033 769.456 265.557 768.885 265.526C768.509 264.35 767.758 266.111 766.646 265.607C766.352 264.78 764.535 265.402 764.403 264.442C763.848 264.162 763.652 264.859 763.508 264.879C762.437 265.126 762.647 264.426 761.71 264.099C761.569 264.131 760.92 264.28 760.811 264.129C760.516 263.817 760.058 264.018 759.023 263.781C758.57 263.682 758.044 263.207 757.232 263.421C756.888 263.453 756.551 263.548 756.242 263.701C755.933 263.854 755.658 264.061 755.433 264.311C754.911 264.689 754.595 265.251 754.068 265.603C753.913 265.639 753.475 265.156 753.173 265.198C752.214 265.42 752.974 266.914 751.383 266.969C750.242 267.558 749.166 266.883 748.25 266.647C748.094 266.615 748.163 266.272 747.801 266.247C747.688 266.273 747.449 266.328 747.346 266.27C745.443 265.891 743.472 265.808 741.514 266.027C740.83 266.09 740.691 266.516 740.139 266.507C739.588 266.498 739.699 266.079 739.247 266.115C737.438 266.179 735.631 266.378 733.845 266.71C733.505 266.751 733.188 266.902 732.948 267.135C732.948 267.135 732.759 267.857 732.498 267.564C731.859 266.856 732.438 267.754 732.047 267.994C731.657 268.233 731.043 267.886 730.708 268.045C730.373 268.203 730.794 268.419 730.258 268.474C729.721 268.53 729.633 269.243 729.329 269.34C729.024 269.437 728.337 268.646 727.993 268.956C727.993 268.956 728.006 269.333 727.997 269.362C725.436 269.654 723.864 269.663 722.602 268.312C722.109 268.426 722.226 269.064 722.164 269.567L720.363 269.615C719.911 268.362 719.911 270.806 719.453 270.884C718.683 270.247 716.682 270.778 716.339 269.743C714.897 269.927 715.112 270.026 714.07 269.818C713.328 269.733 712.572 269.757 711.829 269.888C711.596 270.104 711.981 270.87 711.831 271.122C711.681 271.373 710.863 272.079 710.914 272.814C709.191 272.939 709.139 274.58 707.775 274.976C706.899 274.526 706.037 275.553 705.533 275.493C705.269 275.445 705.086 274.781 704.636 274.695C703.794 274.522 703.226 275.02 702.38 275.215C701.909 275.338 701.45 275.5 701.006 275.696C700.646 275.874 700.372 276.425 700.105 276.555C699.838 276.684 699.793 276.165 699.657 276.156C699.521 276.146 699.136 277.376 698.366 276.997C696.708 277.21 695.034 277.136 693.43 276.778C693.048 277.056 692.972 277.371 692.512 277.627C692.342 277.666 691.747 277.532 691.616 277.671C691.485 277.809 691.702 278.045 691.621 278.077C691.123 278.301 689.356 277.595 689.818 278.954C687.241 279.104 684.669 278.906 682.184 278.366C681.192 278.188 680.408 277.812 679.504 277.627C678.157 277.327 676.613 277.588 674.581 277.405C673.106 277.084 671.55 277.134 670.071 277.549C669.831 277.604 669.348 278.341 669.17 278.409C668.62 278.536 667.945 278.311 667.384 278.454C667.39 278.032 666.818 278.19 666.495 278.075C666.171 277.959 665.446 277.91 664.689 277.718C663.932 277.526 663.036 276.986 662.45 276.958C662.45 276.958 661.478 277.766 661.073 277.425C661.073 277.425 661.114 277.022 661.068 277.019C660.014 276.981 658.967 276.874 657.935 276.697C657.686 276.645 657.486 276.297 657.486 276.297C656.105 276.1 654.446 276.441 653.443 276.021C653.213 275.925 653.512 275.612 652.995 275.623C652.742 275.605 652.499 275.533 652.285 275.413C652.071 275.293 651.892 275.128 651.762 274.931C651.632 274.733 651.554 274.509 651.534 274.276C651.514 274.042 651.554 273.806 651.649 273.585C650.733 273.107 649.971 272.419 649.435 271.584C647.769 270.801 647.23 272.648 645.385 271.73C644.407 270.983 643.359 270.318 642.253 269.738C639.637 269.948 637.027 269.623 634.608 268.786C633.002 269.482 634.287 267.393 633.26 267.575C631.943 267.263 630.542 267.309 629.221 267.707C628.646 267.681 628.107 267.466 627.7 267.103C627.293 266.74 627.043 266.251 626.996 265.721C625.235 266.711 625.854 265.144 624.75 264.543C624.63 264.992 623.72 264.78 623.372 265.01C622.86 265.494 623.023 264.846 622.03 265.048C622.03 265.048 621.805 265.426 621.58 265.478C621.354 265.53 620.974 265.428 620.681 265.509C620.388 265.59 620.312 265.906 620.23 265.938C619.878 266.02 619.74 265.549 619.782 265.539C619.119 265.692 618.996 265.802 618.402 265.993C618.247 266.029 618.444 266.499 617.951 266.423C617.881 266.439 617.919 265.833 617.503 266.024C616.711 266.42 616.076 267.044 615.699 267.797C614.739 267.97 613.808 268.282 612.942 268.719C612.77 268.846 612.613 268.991 612.477 269.152C610.781 269.652 608.999 269.329 607.107 269.752C606.19 270.995 604.584 271.692 602.148 271.561C601.597 270.33 599.627 272.672 599.468 270.821C598.494 270.72 598.37 269.473 597.231 269.234C596.638 269.112 595.934 269.533 595.869 268.869C595.805 268.205 594.303 267.872 593.654 267.696C593.004 267.52 592.029 267.8 592.285 266.913C591.792 266.511 590.242 268.035 590.042 267.81C589.961 267.666 589.831 267.551 589.671 267.483C589.511 267.415 589.329 267.397 589.153 267.432C589.153 267.432 588.563 268.545 588.252 268.291C588.099 268.113 587.891 267.982 587.654 267.913C587.416 267.845 587.16 267.843 586.916 267.907C586.23 268.34 585.464 268.65 584.662 268.82C584.662 268.82 584.178 268.267 583.769 268.429C583.586 268.471 583.788 268.831 583.319 268.858C582.85 268.885 582.323 268.464 581.528 268.498C581.528 268.498 581.355 268.904 581.078 268.927C580.801 268.951 580.642 268.838 580.63 268.528C578.912 268.68 578.434 269.89 577.028 270.296C575.284 270.59 575.208 269.357 573.882 269.147C572.471 268.631 571.169 270.262 570.742 269.247C568.581 269.021 566.473 268.536 564.469 267.803C563.734 267.837 562.991 267.831 562.228 267.871C561.773 268.153 561.766 268.833 560.94 268.725C560.011 268.369 559.183 267.935 558.252 267.567C557.203 268.623 556.01 267.568 555.112 267.666C554.773 267.744 554.633 268.55 553.739 268.539C553.401 268.617 553.046 267.98 552.392 268.172C550.842 268.339 553.213 269.991 551.947 269.849C551.526 269.78 551.088 269.827 550.686 269.985C550.285 270.143 549.937 270.404 549.687 270.736C547.982 271.007 549.008 273.717 547.497 274.119C546.787 275.03 545.635 274.671 544.829 275.427C544.644 275.592 543.74 276.371 543.544 276.294C543.348 276.217 543.538 275.752 543.096 275.895C542.87 275.947 543.306 276.81 542.653 276.743C542.653 276.743 542.507 276.111 542.204 276.344C542.035 276.383 541.829 277.68 541.285 278.023C541.038 278.175 540.461 277.479 539.942 278.06C539.836 278.18 540.471 278.618 540.395 278.866C540.319 279.115 539.527 279.161 539.494 279.725C539.461 280.289 538.936 280.071 538.572 280.169C536.191 280.405 535.455 279.53 534.086 280.742C532.642 281.306 533.788 279.453 532.301 279.958C531.623 278.241 529.71 280.76 527.364 280.12C527.128 279.482 526.9 280.105 526.914 280.55C525.65 280.543 526.192 281.219 525.116 280.612C524.794 280.413 524.427 280.279 524.04 280.219C523.654 280.159 523.254 280.173 522.867 280.261C522.459 280.355 522.075 280.946 521.972 280.305C520.785 280.891 520.588 281.71 521.064 282.809C520.758 282.715 520.426 282.704 520.107 282.778C519.787 282.852 519.494 283.007 519.259 283.225C519.064 283.406 518.986 284.36 518.79 284.473C518.024 285.016 516.345 284.82 515.644 285.837C515.331 286.669 514.798 285.773 514.299 285.861C513.368 286.076 513.621 286.399 513.011 286.716C511.994 287.295 511.082 288.023 510.315 288.871C509.834 289.278 509.379 289.71 508.95 290.164C508.836 290.312 509.113 290.871 508.948 290.991C508.782 291.111 507.96 290.893 508.057 291.441C507.343 291.307 507.273 291.908 506.68 291.909C506.436 291.884 506.06 291.345 505.784 291.504C505.256 291.789 504.844 292.318 504.872 293.601C503.509 293.359 503.246 294.085 502.181 294.1C501.656 293.434 501.222 294.321 500.803 294.567C500.666 294.68 500.481 295.361 500.343 295.406C499.457 295.814 499.127 295.347 498.539 295.89C497.952 296.433 497.567 296.114 496.735 296.306C495.903 296.498 493.651 296.909 492.265 297.337C492.068 297.382 491.721 297.747 491.801 297.77C490.633 297.795 491.001 296.108 489.564 297.023C489.092 297.319 488.543 297.486 487.982 297.502C487.421 297.518 486.874 297.383 486.407 297.114C485.894 297.015 486.191 297.787 485.964 297.962C485.737 298.136 485.25 297.828 485.077 297.977C484.676 298.3 485.234 298.659 484.62 298.828C484.394 298.88 483.915 298.734 483.721 298.86C483.528 298.986 483.407 299.624 483.275 299.695C481.96 300.241 480.606 300.699 479.225 301.063C478.829 300.829 478.417 300.585 478.327 301.095C477.538 301.461 476.788 301.897 476.088 302.398C474.705 302.84 474.594 301.589 472.918 302.112C472.791 302.141 472.368 302.495 472.476 302.511C471.535 302.552 471.31 302.155 470.674 302.166C470.038 302.177 469.75 302.732 468.869 302.583C468.869 302.583 468.777 302.183 468.418 302.171C467.64 302.274 466.857 302.157 466.172 301.834C465.191 301.228 464.146 300.709 463.053 300.286C462.391 300.058 461.876 300.205 461.245 299.916C461.049 299.839 460.507 299.164 460.362 299.116C459.676 298.975 458.809 299.27 458.124 299.197C457.439 299.124 457.311 298.828 456.774 298.816C456.237 298.804 454.838 299.886 454.081 298.921C453.978 299.053 453.109 300.503 452.273 300.614C451.438 300.726 452.098 301.849 451.38 301.892C451.229 301.883 451.076 301.891 450.925 301.916C450.77 301.952 449.217 303.138 449.092 302.339C447.154 302.949 447.484 301.353 446.405 301.181C446.18 301.816 445.95 301.204 445.984 300.775C445.477 300.892 445.668 301.594 445.055 301.641C443.227 301.696 443.459 299.932 441.951 299.641C442.138 299.68 441.617 300.058 441.484 300.062C440.995 300.066 441.188 299.681 441.047 299.646C439.914 299.5 438.424 300.251 436.984 300.19C435.544 300.128 434.888 299.601 433.388 299.472C432.711 299.628 433.396 299.89 433.396 299.89C433.401 301.328 433.031 300.111 432.495 300.75C432.345 300.934 432.509 301.263 432.045 301.18C431.961 301.525 431.594 301.609 431.602 302.028C430.631 302.971 428.141 302.541 427.994 304.218C427.631 304.125 427.537 303.848 427.101 303.826C425.854 303.761 426.447 304.466 425.307 303.9C425.307 303.9 425.141 303.179 424.856 303.489C424.571 303.799 424.92 304.411 423.955 304.348C423.581 304.339 423.517 303.933 423.062 303.957C423.062 303.957 422.861 304.371 422.598 304.39C421.141 304.509 418.34 303.825 418.112 306.185C416.359 306.44 414.809 307.638 412.696 306.782C412.397 306.647 412.07 305.488 411.815 306.375C412.336 306.445 412.06 306.793 411.808 306.797C410.346 307.043 408.856 306.97 407.457 306.586C406.058 306.201 404.789 305.514 403.753 304.582C403.532 304.623 403.305 304.598 403.105 304.511C402.905 304.424 402.743 304.278 402.643 304.096C402.543 303.915 402.51 303.706 402.549 303.501C402.588 303.295 402.696 303.105 402.859 302.956C402.126 303.125 402.088 302.577 401.512 302.587C400.933 302.911 400.769 302.203 400.616 302.184C399.914 302.101 399.855 302.617 399.242 302.663C399.242 302.663 398.831 302.296 398.751 302.274C397.726 302.076 396.935 302.897 395.61 303.202C395.751 303.17 395.398 302.735 395.161 302.803C394.925 302.871 394.828 303.613 394.26 303.662C393.399 303.725 392.973 304.136 392.441 304.082C392.258 304.124 391.232 303.153 391.09 303.308C391 303.451 390.867 303.57 390.708 303.647C390.55 303.725 390.371 303.759 390.195 303.745C388.802 303.496 389.348 303.479 387.955 303.814C388.115 303.03 386.897 303.351 386.603 303.039C386.308 302.727 386.283 302.299 385.706 302.242C385.847 302.209 385.484 302.891 385.267 302.656C384.829 302.104 384.217 301.692 383.509 301.473C383.242 301.412 382.935 300.98 382.62 301.093C382.507 301.119 382.615 301.652 382.152 301.514C381.99 301.456 382.168 301.13 381.701 301.101C380.933 300.927 380.19 300.68 379.482 300.365C379.32 300.307 378.692 300.546 378.583 300.395C378.162 299.922 377.906 300.293 377.233 300.014C377.023 299.94 376.942 299.267 376.794 299.206C376.647 299.145 375.807 299.434 375.437 299.248C375.068 299.061 375.453 298.864 374.989 298.848C373.775 298.755 372.542 298.937 371.398 299.378C371.173 299.43 371.113 300.136 370.939 300.217C370.502 300.428 370.037 300.581 369.558 300.671C369.191 300.688 369.139 300.591 369.11 300.272C367.666 300.836 368.813 298.984 367.318 299.519C366.154 299.624 366.219 299.392 365.083 299.165C364.615 299.069 364.882 298.872 364.634 298.766C364.387 298.66 362.859 298.47 362.853 297.996C362.782 296.913 362.45 298.374 361.038 298.048C360.94 298.071 360.949 297.662 360.607 297.659C360.265 297.656 360.254 297.156 360.168 296.85C359.771 297.254 357.304 297.824 356.997 296.944C354.573 297.055 354.954 294.523 352.101 295.031C351.752 294.677 351.596 294.13 351.211 293.811C351.049 293.686 350.464 293.984 350.313 293.843C350.161 293.701 350.46 293.13 350.314 293.014C349.596 292.474 348.771 292.311 348.067 291.835C347.822 291.674 348.145 291.464 347.636 291.446C346.833 291.441 346.607 290.719 345.878 290.263C345.111 289.905 344.366 289.511 343.646 289.081C344.014 287.91 343.167 287.969 342.768 287.464C342.409 287.095 342.108 286.681 341.875 286.232C340.615 286.296 339.373 286.048 338.279 285.514C338.092 285.475 337.854 284.959 337.376 285.137C337.249 285.167 337.366 285.738 336.925 285.568C336.809 285.513 337.036 284.823 336.927 284.739C336.573 284.427 335.682 285.393 335.137 285.22C335.137 285.22 334.93 284.901 334.686 284.808C334.375 284.704 334.076 284.573 333.794 284.416C333.619 284.309 333.467 284.174 333.345 284.017C331.877 283.671 330.375 283.446 328.854 283.343C328.33 283.26 327.987 282.674 326.619 282.989C326.055 283.119 322.719 284.69 322.127 282.315C322.042 282.334 319.918 283.231 319.887 283.225C318.871 282.102 319.161 283.813 318.093 282.852C317.025 281.89 314.402 283.01 312.238 282.64C312.238 282.64 312.149 282.254 311.79 282.241C310.565 282.212 311.053 281.557 309.565 281.479C309.318 281.373 308.404 282.561 308.277 282.332C307.709 281.676 307.481 282.231 306.035 282.402C305.267 282.484 304.172 282.437 303.336 282.481C302.984 282.562 302.906 282.933 302.445 282.931C302.318 282.96 302.018 282.432 301.539 282.543C300.574 282.823 299.669 283.266 298.87 283.85C298.095 283.255 297.225 284.121 296.181 284.362C295.759 284.459 295.259 284.289 294.839 284.399C294.419 284.51 294.553 285.158 294.396 285.249C293.794 285.537 292.738 285.142 291.7 285.341C291.7 285.341 291.473 286.031 291.25 285.771C291.25 285.771 291.273 285.358 291.245 285.364C290.33 285.36 289.425 285.245 288.552 285.021C288.552 285.021 286.802 284.706 286.762 284.661C286.722 284.616 286.822 284.28 286.771 284.251C286.473 284.116 285.737 284.083 285.424 283.884C285.111 283.684 285.182 283.22 284.968 283.066C284.754 282.911 283.177 282.705 283.626 281.882C282.719 282.2 281.829 283.233 280.931 282.367C280.199 281.831 278.624 282.085 278.244 281.209C276.67 280.825 275.82 283.126 274.653 281.738C273.388 281.939 272.106 281.685 271.075 281.029C271.035 282.79 268.705 280.476 267.929 281.944C266.659 280.88 267.254 283.458 265.175 282.878C263.824 283.461 263.777 282.034 263.414 281.683C263.252 281.558 262.667 281.855 262.516 281.714C262.156 281.376 262.472 280.366 261.64 280.558C261.257 280.3 260.788 280.165 260.304 280.174C260.22 280.193 259.828 280.813 259.832 280.188C259.015 280.444 258.689 279.609 258.054 279.43C257.75 279.337 256.208 279.218 256.252 279.085C255.85 279.531 256.026 279.138 255.364 279.1C254.702 279.063 254.515 279.54 254.442 279.544C254.111 279.525 253.966 279.22 253.567 279.162C252.541 278.964 251.492 278.86 250.436 278.852C249.616 278.838 249.466 279.28 248.617 279.272C247.769 279.264 247.685 278.835 246.813 278.914C246.071 279.628 245.647 280.622 244.126 280.66C243.289 279.862 242.006 280.416 240.982 280.353C239.945 280.185 238.895 280.084 237.837 280.048C237.481 280.049 237.067 280.442 236.454 280.489C235.841 280.535 236.19 280.115 236.023 280.1C234.848 280.435 233.632 280.61 232.415 280.619C230.97 280.598 229.574 280.217 228.374 279.515C227.494 280.723 225.569 279.456 224.335 279.645C223.351 278.406 222.247 278.77 220.746 278.505C220.746 278.505 220.192 279.067 219.855 278.955C219.517 278.842 219.51 278.166 219.402 278.15C217.846 277.843 216.105 278.666 214.48 277.927C214.495 279.281 213.156 278.11 212.213 279.237C211.94 278.635 211.283 279.261 211.314 279.268C210.529 279.082 210.435 278.548 209.564 278.505C209.248 278.746 208.879 278.918 208.485 279.009C208.091 279.1 207.683 279.107 207.294 279.028C207.157 278.435 205.992 278.921 205.967 278.234C205.869 277.809 204.844 277.937 204.597 278.279C203.454 278.542 203.545 277.069 203.275 276.67C202.861 276.105 202.409 275.565 201.922 275.054C201.618 274.703 201.288 274.752 201.057 274.262C201.021 274.107 201.17 273.53 201.044 273.437C200.919 273.344 199.931 273.693 199.702 273.475C199.474 273.256 199.856 272.789 199.704 272.647C198.885 272.217 197.964 271.965 197.01 271.911C197.01 271.911 196.846 271.202 196.562 271.512C196.271 271.779 195.908 271.967 195.515 272.058C195.121 272.149 194.712 272.138 194.334 272.026C194.192 271.99 193.827 271.695 193.86 271.646C192.796 271.857 191.753 272.161 190.744 272.555C190.603 272.587 190.738 273.044 190.276 272.974C190.164 273 190.26 272.517 189.845 272.585C188.651 272.815 187.446 272.989 186.238 273.106C185.52 273.149 185.461 272.701 184.893 272.75C184.326 272.8 184.061 273.39 182.666 273.264C182.736 273.248 182.508 272.581 182.203 272.868C181.246 273.999 181.198 272.761 179.957 272.531C179.722 272.477 179.308 272.681 179.069 272.546C178.536 272.357 178.266 272.025 177.718 271.771C177.169 271.517 175.72 271.417 174.58 271.042C173.981 270.827 173.606 270.425 172.784 270.276C172.03 270.2 171.284 270.081 170.549 269.922C170.295 271.134 169.858 269.308 169.188 269.558C168.803 269.239 168.927 268.423 168.341 268.395C168.172 268.624 166.927 269.087 166.543 268.456C165.385 268.262 164.281 268.368 162.955 268.158C162.871 268.177 162.866 267.771 162.507 267.759C161.416 267.726 160.654 267.901 159.818 267.429C158.981 266.957 159 267.617 157.09 267.515C157.09 267.515 156.995 267.102 156.653 267.099C155.168 267.102 153.414 268.254 152.164 267.66C151.115 267.684 150.239 266.977 149.476 266.502C149.063 266.257 148.444 266.468 148.129 266.133C147.814 265.798 148.039 265.163 147.677 264.88C146.906 265.274 146.934 266.748 145.874 265.757C144.814 264.766 144.059 265.484 142.281 265.052C141.935 264.969 141.537 264.274 141.395 264.238C140.86 264.172 139.485 265.548 137.803 265.596C138.151 264.335 136.852 265.204 136.9 265.22C134.176 264.871 131.054 263.759 128.383 263.832C128.101 263.897 127.794 262.76 127.489 263.047C126.593 263.865 127.037 263.152 126.139 262.666C125.54 262.261 124.509 263.327 124.334 263.083C123.913 262.61 122.98 263.137 122.543 262.722C122.057 262.291 121.427 262.022 120.748 261.955C120.748 261.955 120.587 261.259 120.299 261.556C119.585 262.386 118.794 261.469 117.61 261.226C117.27 261.169 116.038 261.493 115.815 261.3C115.592 261.107 115.87 260.894 115.807 260.881C114.694 260.653 113.633 260.265 112.662 259.733C112.549 259.759 111.658 260.467 111.281 260.187C110.63 259.618 110.65 260.088 109.487 260.261C109.134 260.342 109.031 260.733 108.593 260.698C108.154 260.663 107.603 260.14 106.351 260.767C104.931 259.181 102.078 260.395 100.513 259.725C99.2955 260.114 99.7265 258.955 98.7283 258.941C98.1316 258.93 98.6006 258.388 98.2754 258.137C97.9503 257.886 96.7953 257.772 96.9186 258.178C96.431 257.679 95.9937 257.139 95.6114 256.565C95.1511 256.115 94.4125 256.067 94.252 255.371C93.5973 254.979 92.9878 255.812 92.872 255.826C92.5477 255.9 92.1829 255.415 91.5699 255.462C91.6687 255.439 91.1983 255.845 91.1026 255.881C90.1438 256.102 89.909 255.6 89.2945 255.511C88.3751 255.342 87.4779 255.094 86.6144 254.771C86.1379 254.637 85.2045 255.096 84.7999 254.823C84.3953 254.55 84.9327 253.789 84.3754 254.012C83.6412 253.34 81.7203 253.769 80.3147 253.727C80.2136 253.289 79.438 253.467 79.4348 252.938C79.2158 252.567 79.0251 252.191 78.5383 252.141C78.4258 250.687 76.8569 253.221 76.7444 251.767C75.7839 251.337 74.9536 251.406 74.0503 251.031C73.7549 250.909 73.4036 250.352 73.1534 250.233C72.9033 250.114 72.3777 250.411 72.2545 250.263C71.7704 249.71 72.2741 249.254 71.365 249.111C70.771 249.083 70.1742 249.099 69.5791 249.157C69.5791 249.157 69.5564 248.674 69.1304 248.758C69.0317 248.781 69.1098 249.184 68.6801 249.188C68.2504 249.192 67.8772 249.183 67.7769 248.813C66.5595 247.912 64.8187 247.513 63.7579 246.454C63.2361 246.574 63.3849 247.219 63.2915 247.715C62.9188 247.438 62.4436 247.302 61.9557 247.331C61.463 247.255 61.6606 246.503 61.0728 246.53C61.5674 247.773 58.0656 246.368 57.4684 247.062C57.1642 247.418 56.9478 248.283 56.1174 248.352C55.6172 248.372 55.2145 249.524 54.7508 250.025C54.2872 250.525 53.7203 250.9 53.411 251.298C53.1642 252.481 52.8307 251.743 52.0336 251.764C51.4259 251.875 50.8238 252.013 50.229 252.18C50.0457 252.223 49.6537 252.585 49.7331 252.607C48.7216 252.664 48.773 251.661 47.9693 251.846C47.6732 251.915 47.6656 252.785 47.0681 252.705C46.5262 252.35 45.9176 252.086 45.2697 251.925C45.4107 251.893 45.0541 252.343 44.8196 252.356C44.5851 252.369 44.3286 251.967 44.3709 251.957C43.4455 252.167 42.5443 252.47 41.6839 252.861C41.8861 253.738 39.1371 252.376 38.0959 252.562C38.0959 252.562 37.9846 252.982 37.6484 253.005C36 253.207 34.3402 253.257 32.6938 253.157C31.8299 253.016 32.0939 252.874 30.4413 253.242C30.3003 253.274 29.6518 253.166 29.5539 253.256C28.9122 254.015 29.1825 252.935 28.6615 252.865C28.1405 252.795 27.9035 253.827 27.3061 253.748C27.3061 253.748 26.3105 252.973 25.97 253.364C25.6295 253.754 24.7382 253.946 23.2672 253.878C22.0679 253.829 21.3259 254.217 20.5852 253.967C20.2274 253.832 20.0213 252.875 19.6954 252.815C18.775 252.43 17.3985 252.707 16.564 251.664C15.1658 251.525 15.3471 252.826 14.3141 252.983C14.4895 253.743 12.8539 253.089 12.5096 253.399C12.1654 253.709 11.8646 253.887 10.6929 254.28C10.6929 254.28 10.5144 254.987 10.2427 254.71C9.97096 254.433 9.79309 254.176 9.35083 254.319C9.12525 254.371 9.0536 255.092 8.90443 255.153C8.43173 255.358 7.70823 254.602 7.5606 254.799C7.06652 255.361 7.1539 254.58 6.21516 254.824C5.20242 255.226 4.07705 255.268 3.06387 254.94C2.14282 254.745 2.33594 254.809 0.805691 254.999C-0.72456 255.19 -2.24907 254.631 -4.11629 254.777C-5.5072 254.283 -4.67934 256.264 -5.91137 256.073C-5.91137 256.073 -6.0598 255.428 -6.35956 255.674C-6.48274 255.784 -5.6803 256.495 -6.35701 256.909C-6.55066 257.035 -7.04455 256.891 -7.25604 256.94C-7.46753 256.988 -7.5825 257.327 -7.72054 257.372C-8.41145 257.532 -9.21689 256.293 -9.09765 257.84C-10.1346 257.696 -11.1986 257.73 -12.2374 257.94C-12.5796 257.937 -12.7269 257.427 -13.1409 257.563C-13.2678 257.593 -13.1364 257.969 -13.5913 257.993C-14.0462 258.016 -14.8531 258.122 -14.9268 257.61C-16.2894 257.625 -16.1525 258.734 -17.5892 258.943C-18.7989 258.902 -20.0029 258.798 -21.1951 258.634C-21.5231 258.628 -22.468 259.552 -22.5403 258.659C-23.0841 259.07 -23.7939 259.084 -24.3229 259.559C-24.4572 259.685 -24.1594 260.268 -24.3249 260.388C-24.7144 260.695 -25.475 260.422 -25.2254 261.246C-25.7716 261.196 -26.0291 261.432 -26.1478 261.69C-26.9874 260.947 -27.8821 262.09 -28.8395 262.189C-29.7968 262.288 -29.9893 261.775 -30.6275 261.841C-31.2657 261.907 -31.618 262.504 -32.4157 262.715C-33.2134 262.926 -33.6817 262.763 -34.2344 263.134C-35.0754 265.283 -37.1474 266.345 -39.188 267.412C-40.5789 267.177 -40.0644 267.154 -41.4291 267.482C-41.5034 267.16 -41.8777 267.082 -41.8823 266.676C-41.8869 266.27 -42.3315 266.468 -42.3262 266.684C-42.5903 267.084 -43.5652 267.363 -42.7829 267.535C-42.5186 267.909 -41.5182 268.127 -42.3301 268.341C-43.4138 267.505 -43.2749 267.785 -45.0196 268.011C-46.2049 267.701 -45.8304 268.808 -46.8189 268.901C-46.9881 268.94 -48.6005 269.868 -48.6249 270.213C-48.6625 270.887 -48.6661 271.58 -49.0727 271.878C-49.256 271.92 -49.8572 271.76 -49.9745 271.896C-50.0917 272.032 -49.8943 272.243 -49.9982 272.308C-50.1021 272.373 -50.723 272.191 -50.8966 272.339C-51.0702 272.488 -50.523 272.864 -50.4339 272.735C-51.1973 273.739 -50.8465 272.558 -52.232 272.796C-52.232 272.796 -52.3348 273.187 -52.6792 273.239C-53.0235 273.291 -54.6181 273.781 -54.4794 273.288C-56.2076 274.229 -55.3934 272.481 -57.6131 272.965C-59.1419 272.775 -59.5922 273.72 -60.2785 274.285C-60.6236 274.27 -60.7075 273.842 -61.1675 273.907C-61.2754 273.937 -61.3742 273.992 -61.4532 274.068C-61.5323 274.143 -61.5889 274.236 -61.6179 274.336C-62.1069 274.341 -61.8821 273.963 -62.0691 273.925C-62.5589 273.862 -62.8228 274.778 -63.3542 274.792C-64.3435 274.816 -64.9884 273.051 -66.9408 273.664C-67.5894 273.814 -67.7847 274.062 -68.7431 273.32C-69.2311 274.423 -70.6466 273.758 -71.4114 274.627C-71.7216 274.957 -71.768 275.85 -72.3357 275.899C-72.9034 275.949 -72.4721 277.111 -73.229 277.177C-73.986 277.243 -73.3807 277.742 -73.6715 278.026C-73.9624 278.311 -74.4591 277.895 -74.5733 278.043C-74.925 278.45 -74.5758 278.547 -75.0359 278.87C-75.1984 279.003 -75.8005 278.775 -75.9318 278.914C-76.0632 279.053 -75.9255 279.971 -76.8324 279.773C-77.4701 279.391 -78.0827 280.21 -78.2096 280.24C-78.594 280.247 -78.8973 279.706 -79.5601 279.859C-79.7715 279.908 -80.6905 281.396 -82.3115 280.806C-83.5937 281.685 -83.7068 283.449 -85.9325 283.392C-85.5507 284.662 -87.1039 284.3 -87.2988 285.065C-87.4938 285.829 -89.4132 285.104 -89.5421 285.962C-90.5437 286.899 -91.3646 287.59 -92.2445 288.54C-92.8173 289.147 -92.9561 288.867 -93.5844 289.813C-93.4457 289.577 -92.9876 290.083 -93.136 290.212C-93.4892 290.484 -94.0057 290.562 -94.0649 291.078C-95.6619 291.364 -96.766 291.212 -98.9975 291.645C-99.0077 292.244 -97.1172 292.909 -98.9919 292.893C-100.681 292.007 -100.512 294.288 -101.265 294.625C-101.435 294.664 -102.047 294.521 -102.153 294.64C-102.259 294.76 -101.909 295.697 -102.158 295.904C-102.407 296.111 -102.96 295.776 -103.046 295.918C-103.414 296.383 -103.125 297.185 -103.971 297.19C-105.567 297.804 -107.22 298.273 -108.905 298.587C-109.116 299.409 -110.404 298.525 -111.164 298.646C-111.923 298.767 -112.278 299.351 -112.96 299.549C-114.143 299.442 -114.117 300.454 -114.326 301.222C-115.912 300.786 -116.31 302.086 -116.992 302.542C-117.29 302.732 -117.414 302.518 -117.442 302.972C-117.512 304.088 -119.462 302.582 -119.234 304.28C-120.004 305.001 -120.704 304.348 -121.492 304.34C-121.967 304.341 -121.774 303.956 -121.927 303.937C-122.513 303.842 -123.009 305.042 -123.733 305.25C-125.249 305.515 -126.751 305.861 -128.231 306.287C-129.376 306.856 -130.582 307.308 -131.826 307.633C-132.262 309.091 -133.495 309.28 -134.521 309.788C-134.747 309.84 -135.104 310.289 -135.43 310.228C-135.755 310.167 -135.424 309.671 -135.878 309.83C-136.075 309.876 -136.164 310.588 -136.321 310.678C-137.154 311.06 -139.239 310.904 -140.827 311.229C-141.763 311.676 -141.963 312.292 -143.062 312.546C-144.599 312.9 -146.53 312.191 -147.552 313.106C-147.913 313.406 -148.045 314.509 -149.375 314.408C-149.664 314.38 -149.858 313.923 -150.255 314.001C-151.059 314.186 -151.98 314.249 -152.959 314.515C-153.937 314.782 -154.355 315.286 -155.202 315.413C-156.242 315.527 -157.288 315.558 -158.328 315.509C-158.328 315.509 -158.452 316 -158.778 315.939C-158.894 315.778 -159.047 315.641 -159.226 315.54C-159.686 315.416 -160.107 315.648 -160.13 315.164C-160.93 315.172 -160.923 316.04 -161.498 316.444C-161.778 316.644 -162.528 316.289 -162.84 316.483C-163.152 316.677 -162.735 317.516 -163.286 317.318C-164.692 316.759 -165.774 317.539 -166.9 318.26C-167.213 318.577 -169.093 319.377 -168.688 317.912C-169.48 317.823 -169.599 318.339 -169.138 318.342C-169.171 318.974 -169.635 318.375 -169.593 318.366C-169.934 318.411 -170.251 318.566 -170.487 318.803C-170.746 318.971 -170.401 319.176 -170.935 319.244C-171.694 319.332 -172.442 319.505 -173.163 319.758C-173.385 320.407 -174.573 320.084 -174.082 321.437C-174.479 321.841 -175.105 321.835 -175.887 321.853C-175.761 321.824 -176.129 321.189 -176.336 321.454C-177.047 322.297 -177.773 321.663 -179.032 321.546C-179.159 321.576 -179.772 322.138 -179.926 321.983C-180.081 321.829 -179.862 321.167 -179.924 321.155C-180.949 321.025 -181.659 322.003 -183.063 322.096C-184.029 322.156 -184.252 321.706 -184.857 321.723C-185.195 321.801 -185.343 322.255 -185.762 322.175C-185.889 322.205 -185.736 321.708 -186.211 321.776C-186.685 321.845 -186.925 322.349 -187.591 322.231C-188.445 321.423 -190.327 321.505 -191.618 321.124C-193.994 320.803 -192.739 323.731 -195.227 323.313C-195.478 323.644 -195.825 323.904 -196.227 324.062C-196.628 324.219 -197.066 324.268 -197.487 324.201C-198.759 323.965 -198.981 325.061 -199.733 325.533C-199.945 325.582 -200.395 325.496 -200.621 325.548C-201.143 325.669 -200.788 325.79 -201.071 325.978C-201.355 326.165 -201.725 326.685 -201.972 326.837C-202.621 327.177 -203.448 326.878 -204.228 327.357C-204.369 327.39 -204.068 328.053 -204.23 328.186C-204.611 328.531 -206.019 327.961 -205.521 329.027C-207.291 329.014 -205.375 329.658 -206.431 330.296C-207.834 330.769 -209.189 331.368 -210.474 332.083C-210.997 330.846 -210.961 332.739 -210.025 332.482C-210.213 334.114 -213.551 332.97 -213.634 334.672C-215.566 334.602 -215.381 336.432 -216.788 336.838C-217.842 336.579 -219.061 337.281 -220.385 336.948C-219.946 337.051 -222.703 335.27 -223.523 336.219C-223.523 336.219 -223.431 336.619 -223.519 336.626C-223.843 336.701 -224.038 336.243 -223.967 336.227C-224.64 336.368 -225.263 336.681 -225.764 337.13C-226.118 337.333 -227.156 337.532 -227.125 337.986C-227.095 338.441 -228.015 338.056 -228.93 338.402C-229.482 338.652 -229.674 339.104 -230.215 339.269C-230.603 340.485 -231.329 338.753 -232.456 339.338C-232.849 339.633 -232.726 340.554 -233.367 340.607C-234.621 340.707 -234.023 341.111 -234.718 341.896C-235.367 342.813 -236.122 343.666 -236.968 344.438C-237.534 344.793 -238.136 345.096 -238.765 345.34C-238.976 345.389 -238.681 345.701 -239.215 345.77C-240.938 345.896 -242.539 346.36 -242.819 348.366C-243.514 348.367 -244.199 348.577 -244.769 348.966C-245.339 349.355 -245.763 349.901 -245.975 350.52C-247.498 350.871 -249.253 350.922 -250.107 351.92C-251.28 351.661 -250.959 352.796 -251.447 353.193C-251.948 352.888 -252.513 353.914 -252.821 353.673C-252.821 353.673 -253.803 352.895 -254.182 353.309C-254.281 353.331 -254.004 354.082 -254.184 354.137C-254.734 354.264 -255.429 354.017 -255.97 354.182C-256.511 354.348 -256.784 354.709 -256.869 354.213C-257.915 354.25 -258.197 353.542 -259.559 353.883C-260.168 354.526 -260.884 354.189 -261.815 354.403C-261.913 354.426 -261.847 354.777 -262.265 354.833C-262.711 354.794 -263.162 354.803 -263.61 354.858C-263.61 354.858 -263.521 355.245 -263.603 355.277C-265.069 355.555 -266.567 355.597 -268.029 355.402C-268.848 355.265 -270.817 355.42 -270.708 353.834C-271.218 353.68 -272.004 354.134 -272.505 353.896C-272.704 353.806 -272.796 353.148 -272.958 353.09C-273.12 353.033 -273.564 353.231 -273.856 353.122C-273.856 353.122 -275.172 352.76 -275.192 352.738C-275.212 352.715 -275.146 352.36 -275.2 352.318C-275.519 352.16 -275.803 351.697 -276.097 351.521C-276.39 351.344 -277.531 351.158 -278.336 350.76C-278.569 350.651 -278.264 350.365 -278.784 350.362C-279.375 350.307 -279.975 350.33 -280.565 350.433C-280.748 350.476 -281.12 350.86 -281.035 350.841C-281.374 350.919 -281.461 350.409 -281.924 350.461C-282.387 350.514 -282.64 351.223 -284.179 351.375C-284.773 351.356 -285.37 351.372 -285.965 351.421C-285.895 351.405 -286.172 352.134 -286.415 351.851C-286.997 351.197 -287.027 351.841 -287.755 351.901C-288.123 351.918 -288.231 352.283 -288.677 352.345C-290.021 352.503 -291.373 352.547 -292.716 352.475C-293.87 352.429 -294.452 351.708 -295.85 352.152C-296.666 351.512 -295.517 350.827 -296.732 350.13C-297.27 350.47 -297.918 350.62 -298.55 350.549C-298.336 351.478 -299.4 351.179 -299.444 351.827C-300.794 351.962 -302.112 353.136 -304.383 352.818C-304.804 352.657 -305.261 352.582 -305.723 352.597C-306.186 352.613 -306.643 352.718 -307.065 352.907C-307.15 352.926 -307.237 353.258 -307.547 353.329C-308.943 353.372 -310.32 353.134 -311.584 352.632C-312.384 352.382 -312.771 352.634 -313.375 352.271C-313.688 352.072 -313.658 351.426 -314.243 351.466C-315.424 351.046 -316.411 351.016 -317.381 350.738C-317.999 350.665 -318.607 350.547 -319.2 350.384C-319.376 350.329 -319.938 349.631 -320.066 349.593C-321.71 349.533 -323.361 349.583 -325.006 349.741C-324.544 348.589 -326.347 349.466 -326.799 348.987C-327.251 348.507 -326.599 348.18 -327.241 348.166C-327.883 348.151 -328.063 347.948 -328.591 347.785C-330.044 347.346 -332.097 347.778 -333.076 346.687C-333.936 347.08 -334.836 347.388 -335.76 347.605C-335.949 347.708 -336.105 347.857 -336.211 348.034C-336.69 348.145 -337.404 347.495 -337.588 347.66C-338.109 348.174 -337.943 348.312 -338.874 348.527C-339.804 348.741 -341.22 348.851 -342.465 349.056C-342.761 349.124 -342.984 349.57 -343.355 349.506C-343.726 349.443 -343.336 349.013 -343.804 349.107C-344.272 349.202 -344.474 349.547 -345.184 349.561C-345.893 349.576 -346.174 349.26 -346.986 349.217C-348.638 349.308 -350.288 349.233 -351.908 348.995C-352.421 348.38 -353.186 348.027 -353.758 347.412C-354.624 347.683 -355.521 347.844 -356.425 347.891C-356.443 347.814 -356.655 347.47 -356.898 347.512C-357.141 347.554 -357.335 348.902 -358.712 348.405C-359.196 348.395 -359.662 348.263 -360.062 348.024C-360.801 347.651 -360.616 347.487 -361.84 347.267C-362.29 347.181 -362.047 346.948 -362.288 346.868C-363.2 346.675 -364.095 346.428 -364.968 346.129C-365.167 346.039 -365.723 345.366 -365.865 345.331C-366.007 345.295 -368.226 345.78 -368.561 345.423C-369.025 344.892 -369.224 345.318 -370.805 345.479C-371.556 345.571 -372.29 345.482 -373.044 345.561C-373.532 347.37 -375.531 346.881 -376.653 346.909C-377.4 347.023 -378.155 347.055 -378.903 347.007C-378.918 346.942 -378.851 346.587 -378.885 346.568C-378.919 346.549 -379.674 346.751 -379.784 346.599C-379.893 346.448 -379.737 346.223 -379.791 346.181C-379.845 346.139 -380.581 346.363 -380.687 346.225C-380.793 346.086 -380.629 345.83 -380.695 345.805C-380.76 345.779 -381.456 345.981 -381.593 345.836C-381.888 345.524 -381.393 345.029 -382.032 345.027C-382.515 345.012 -382.98 344.88 -383.382 344.646C-383.706 344.463 -383.807 343.835 -384.262 343.858C-384.717 343.882 -384.977 344.43 -385.642 344.313C-385.909 344.252 -386.063 343.906 -386.08 343.897C-387.135 343.861 -388.184 343.764 -389.221 343.603C-389.42 343.513 -389.18 343.2 -389.683 343.208C-390.223 343.099 -390.715 342.856 -391.105 342.503C-391.495 342.151 -391.769 341.702 -391.897 341.207C-392.175 341.036 -392.48 340.907 -392.803 340.819C-392.951 340.758 -393.593 341.001 -393.691 340.833C-393.986 340.521 -394.301 340.377 -394.588 340.036C-395.433 339.077 -396.158 340.697 -397.732 339.729C-398.492 338.303 -398.647 340.783 -399.531 340.62C-399.624 340.22 -401.518 339.992 -402.212 339.88C-404.293 339.577 -406.434 339.651 -408.517 340.099C-409.265 340.204 -409.49 340.581 -410.322 340.515C-410.712 340.497 -411.008 340.117 -411.638 340.153C-411.638 340.153 -411.857 340.557 -412.105 340.574C-413.495 340.54 -414.862 340.305 -416.156 339.879C-416.015 339.846 -416.367 340.51 -416.596 340.292C-416.824 340.073 -416.464 339.637 -416.594 339.463C-416.848 339.712 -417.159 339.716 -417.485 339.913C-417.914 340.141 -418.38 340.298 -418.862 340.38C-419.285 340.477 -419.163 340.749 -419.312 340.81C-420.763 341.387 -422.377 341.439 -423.823 340.955C-423.999 340.9 -423.771 340.535 -424.271 340.555C-424.771 340.576 -425.334 341.548 -426.04 340.611C-426.284 340.328 -425.906 339.711 -426.493 339.805C-427.619 339.305 -428.357 341.063 -428.752 339.865C-429.649 339.773 -429.626 338.777 -430.51 338.682C-431.288 338.74 -432.055 338.916 -432.78 339.205C-433.132 339.286 -433.202 339.629 -433.663 339.627C-434.123 339.624 -434.083 339.221 -434.549 339.261C-434.45 339.238 -434.793 339.941 -435.017 339.68C-435.624 338.978 -437.066 339.42 -439.046 339.402C-439.205 339.55 -439.41 339.651 -439.63 339.69C-439.85 339.728 -440.074 339.703 -440.273 339.617C-440.471 339.531 -440.633 339.389 -440.735 339.21C-440.838 339.032 -440.876 338.826 -440.844 338.622C-442.712 340.505 -445.577 339.863 -448.031 340.103C-448.935 340.176 -449.189 340.493 -449.822 340.516C-449.846 340.413 -450.111 339.904 -450.298 340.124C-450.298 340.124 -450.215 340.484 -450.291 340.543C-450.401 340.525 -450.503 340.48 -450.586 340.414C-450.669 340.347 -450.731 340.261 -450.764 340.163C-452.012 340.356 -452.789 340.915 -453.881 341.072C-454.391 341.054 -556.811 315.182 -557.251 315.08L-463.001 7.99941L682.188 0.295931Z" fill="#FBEBE8"/>
</svg>
