<svg width="1536" height="747" viewBox="0 0 1536 747" fill="none" xmlns="http://www.w3.org/2000/svg">
<path d="M1925.3 0.228475L2205.6 570.656L2202.46 572.036C2202.46 572.036 2200.75 571.227 2199.78 571.302C2198.35 571.632 2198.25 570.439 2197.12 570.538C2195.99 570.636 2196.22 571.394 2195.35 571.434C2194.47 571.474 2194.43 570.646 2193.54 570.661C2192.66 570.675 2192.65 571.542 2191.76 571.531C2187.8 571.526 2182.04 569.369 2177.43 571.188C2176.9 571.311 2176.47 572.517 2175.66 572.865C2174.86 573.213 2173.92 573.268 2172.92 573.796C2172.45 574.041 2173.09 574.54 2172.03 574.651C2170.96 574.762 2171.07 573.845 2170.23 573.904C2169.38 573.964 2166.22 575.234 2163.94 575.732C2163.71 575.784 2162.34 575.587 2162.15 575.793C2160.87 577.304 2160.19 574.083 2158.59 575.883C2157.38 577.298 2155.86 575.593 2153.21 576.907C2152.46 575.702 2151.88 574.325 2149.71 574.528C2148.93 572.302 2146.58 575.465 2145.24 575.557C2144.01 577.896 2141.55 572.356 2139.89 574.901C2138.76 573.594 2138.32 574.75 2136.33 574.208C2136.01 574.093 2136.35 573.417 2135.43 573.387C2133.06 573.341 2133.12 570.921 2130.96 571.066C2130.8 571.105 2130.09 572.134 2129.19 571.963C2128.99 572.008 2129.01 571.192 2128.29 571.142C2124.98 570.893 2121.7 570.45 2118.47 569.814C2117.6 570.49 2116.6 571.002 2115.53 571.319C2114.46 571.635 2113.34 571.75 2112.24 571.656C2111 571.637 2109.78 571.404 2108.65 570.97C2108.65 570.97 2108.73 570.143 2108.64 570.136C2107.31 569.632 2105.62 569.859 2104.19 569.432C2103.99 569.477 2103.87 568.071 2103.29 567.828C2102.09 567.401 2099.88 568.939 2099.69 568.657C2099.13 568.029 2099.03 567.081 2097.9 567.019C2097.15 564.678 2095.65 568.185 2093.44 567.182C2092.85 565.534 2089.24 566.773 2088.97 564.861C2087.87 564.305 2087.48 565.692 2087.19 565.731C2085.06 566.223 2085.48 564.829 2083.61 564.178C2083.33 564.243 2082.04 564.54 2081.82 564.239C2081.24 563.617 2080.32 564.017 2078.26 563.546C2077.36 563.349 2076.32 562.402 2074.7 562.829C2074.01 562.893 2073.34 563.082 2072.73 563.387C2072.11 563.691 2071.56 564.103 2071.12 564.6C2070.08 565.353 2069.45 566.472 2068.4 567.174C2068.09 567.245 2067.22 566.283 2066.62 566.368C2064.71 566.808 2066.22 569.783 2063.06 569.892C2060.78 571.064 2058.64 569.721 2056.82 569.25C2056.51 569.187 2056.65 568.506 2055.92 568.456C2055.7 568.507 2055.22 568.617 2055.02 568.501C2051.23 567.746 2047.31 567.582 2043.41 568.017C2042.05 568.142 2041.77 568.99 2040.67 568.973C2039.57 568.955 2039.79 568.12 2038.9 568.193C2035.29 568.32 2031.7 568.716 2028.14 569.376C2027.46 569.458 2026.83 569.758 2026.36 570.222C2026.36 570.222 2025.98 571.66 2025.46 571.077C2024.19 569.668 2025.34 571.456 2024.56 571.932C2023.79 572.409 2022.56 571.718 2021.9 572.034C2021.23 572.35 2022.07 572.778 2021 572.889C2019.93 573 2019.76 574.418 2019.15 574.612C2018.54 574.806 2017.18 573.23 2016.49 573.847C2016.49 573.847 2016.52 574.599 2016.5 574.657C2011.4 575.238 2008.27 575.256 2005.76 572.565C2004.78 572.792 2005.01 574.062 2004.89 575.064L2001.3 575.16C2000.4 572.665 2000.4 577.53 1999.49 577.686C1997.96 576.418 1993.97 577.474 1993.29 575.415C1990.42 575.78 1990.85 575.977 1988.77 575.564C1987.3 575.395 1985.79 575.442 1984.31 575.702C1983.85 576.133 1984.61 577.658 1984.32 578.159C1984.02 578.66 1982.39 580.064 1982.49 581.527C1979.06 581.778 1978.96 585.044 1976.24 585.832C1974.5 584.937 1972.78 586.981 1971.78 586.861C1971.25 586.766 1970.89 585.444 1969.99 585.272C1968.32 584.929 1967.19 585.92 1965.5 586.308C1964.56 586.553 1963.65 586.875 1962.77 587.266C1962.05 587.62 1961.51 588.718 1960.97 588.976C1960.44 589.233 1960.35 588.2 1960.08 588.181C1959.81 588.162 1959.04 590.61 1957.51 589.856C1954.21 590.28 1950.88 590.132 1947.68 589.419C1946.92 589.973 1946.77 590.601 1945.86 591.109C1945.52 591.187 1944.34 590.92 1944.07 591.196C1943.81 591.473 1944.24 591.941 1944.08 592.006C1943.09 592.451 1939.57 591.045 1940.49 593.752C1935.36 594.051 1930.24 593.657 1925.3 592.582C1923.32 592.226 1921.76 591.478 1919.96 591.11C1917.28 590.512 1914.21 591.031 1910.16 590.667C1907.22 590.028 1904.13 590.127 1901.18 590.954C1900.7 591.064 1899.74 592.531 1899.39 592.666C1898.29 592.919 1896.95 592.472 1895.83 592.757C1895.85 591.916 1894.71 592.231 1894.06 592.001C1893.42 591.771 1891.98 591.673 1890.47 591.291C1888.96 590.909 1887.18 589.833 1886.01 589.777C1886.01 589.777 1884.08 591.387 1883.27 590.708C1883.27 590.708 1883.35 589.905 1883.26 589.899C1881.16 589.825 1879.08 589.611 1877.02 589.257C1876.53 589.156 1876.13 588.463 1876.13 588.463C1873.38 588.07 1870.08 588.75 1868.08 587.913C1867.62 587.721 1868.22 587.099 1867.19 587.121C1866.68 587.085 1866.2 586.942 1865.78 586.703C1865.35 586.464 1864.99 586.134 1864.73 585.742C1864.47 585.349 1864.32 584.903 1864.28 584.438C1864.24 583.973 1864.32 583.504 1864.51 583.063C1862.68 582.112 1861.17 580.742 1860.1 579.08C1856.79 577.521 1855.71 581.198 1852.04 579.37C1850.09 577.884 1848.01 576.559 1845.8 575.405C1840.6 575.823 1835.4 575.175 1830.58 573.51C1827.39 574.896 1829.95 570.736 1827.9 571.1C1825.28 570.478 1822.49 570.57 1819.86 571.361C1818.72 571.309 1817.64 570.882 1816.83 570.159C1816.02 569.436 1815.53 568.462 1815.43 567.409C1811.92 569.38 1813.16 566.259 1810.96 565.064C1810.72 565.956 1808.91 565.535 1808.22 565.992C1807.2 566.957 1807.52 565.666 1805.54 566.068C1805.54 566.068 1805.1 566.821 1804.65 566.925C1804.2 567.029 1803.44 566.824 1802.86 566.986C1802.27 567.147 1802.12 567.776 1801.96 567.841C1801.26 568.002 1800.98 567.065 1801.07 567.046C1799.75 567.35 1799.5 567.569 1798.32 567.95C1798.01 568.021 1798.41 568.957 1797.42 568.805C1797.28 568.838 1797.36 567.63 1796.53 568.011C1794.96 568.799 1793.69 570.043 1792.94 571.541C1791.03 571.886 1789.18 572.506 1787.45 573.376C1787.11 573.63 1786.8 573.919 1786.53 574.238C1783.15 575.233 1779.6 574.591 1775.84 575.433C1774.01 577.907 1770.81 579.294 1765.96 579.034C1764.87 576.584 1760.95 581.245 1760.63 577.562C1758.69 577.36 1758.44 574.878 1756.17 574.401C1755 574.159 1753.59 574.996 1753.47 573.674C1753.34 572.352 1750.35 571.691 1749.05 571.34C1747.76 570.99 1745.82 571.547 1746.33 569.781C1745.35 568.981 1742.26 572.015 1741.86 571.567C1741.7 571.279 1741.44 571.052 1741.13 570.916C1740.81 570.781 1740.45 570.744 1740.09 570.814C1740.09 570.814 1738.92 573.03 1738.3 572.524C1738 572.169 1737.58 571.908 1737.11 571.772C1736.64 571.637 1736.13 571.632 1735.64 571.759C1734.27 572.622 1732.75 573.239 1731.15 573.577C1731.15 573.577 1730.19 572.475 1729.38 572.798C1729.01 572.882 1729.41 573.6 1728.48 573.653C1727.55 573.706 1726.5 572.869 1724.92 572.936C1724.92 572.936 1724.57 573.745 1724.02 573.791C1723.47 573.837 1723.15 573.613 1723.13 572.997C1719.71 573.299 1718.76 575.708 1715.96 576.516C1712.48 577.1 1712.33 574.647 1709.69 574.229C1706.88 573.201 1704.29 576.448 1703.44 574.428C1699.14 573.978 1694.94 573.013 1690.95 571.553C1689.49 571.62 1688.01 571.609 1686.49 571.689C1685.59 572.249 1685.57 573.603 1683.93 573.388C1682.08 572.679 1680.43 571.816 1678.58 571.082C1676.49 573.185 1674.11 571.084 1672.33 571.281C1671.65 571.436 1671.37 573.041 1669.59 573.018C1668.92 573.174 1668.21 571.905 1666.91 572.287C1663.83 572.62 1668.55 575.909 1666.03 575.625C1665.19 575.488 1664.32 575.582 1663.52 575.896C1662.72 576.21 1662.03 576.731 1661.53 577.392C1658.13 577.932 1660.18 583.325 1657.17 584.127C1655.75 585.94 1653.46 585.225 1651.86 586.73C1651.49 587.058 1649.69 588.609 1649.3 588.456C1648.91 588.303 1649.29 587.377 1648.41 587.662C1647.96 587.765 1648.82 589.482 1647.52 589.35C1647.52 589.35 1647.23 588.093 1646.63 588.556C1646.29 588.634 1645.88 591.215 1644.8 591.897C1644.31 592.2 1643.16 590.816 1642.13 591.973C1641.92 592.211 1643.18 593.082 1643.03 593.577C1642.88 594.071 1641.3 594.164 1641.24 595.287C1641.17 596.41 1640.12 595.976 1639.4 596.17C1634.66 596.641 1633.19 594.898 1630.47 597.311C1627.59 598.433 1629.88 594.744 1626.92 595.751C1625.57 592.333 1621.76 597.348 1617.09 596.073C1616.62 594.803 1616.16 596.043 1616.19 596.928C1613.67 596.914 1614.75 598.26 1612.61 597.052C1611.97 596.656 1611.24 596.39 1610.47 596.27C1609.7 596.15 1608.91 596.179 1608.14 596.354C1607.32 596.542 1606.56 597.718 1606.35 596.441C1603.99 597.607 1603.6 599.239 1604.55 601.426C1603.94 601.24 1603.28 601.217 1602.64 601.364C1602 601.511 1601.42 601.82 1600.95 602.254C1600.56 602.614 1600.41 604.513 1600.02 604.739C1598.49 605.82 1595.15 605.429 1593.76 607.454C1593.13 609.111 1592.07 607.327 1591.08 607.503C1589.22 607.93 1589.73 608.573 1588.51 609.204C1586.49 610.357 1584.67 611.806 1583.15 613.494C1582.19 614.304 1581.28 615.164 1580.43 616.067C1580.2 616.363 1580.75 617.476 1580.43 617.714C1580.1 617.953 1578.46 617.52 1578.65 618.611C1577.23 618.344 1577.09 619.539 1575.91 619.542C1575.43 619.491 1574.68 618.42 1574.13 618.735C1573.08 619.302 1572.25 620.357 1572.31 622.911C1569.6 622.428 1569.08 623.874 1566.95 623.904C1565.91 622.578 1565.04 624.343 1564.21 624.833C1563.94 625.058 1563.57 626.413 1563.3 626.503C1561.53 627.316 1560.87 626.386 1559.7 627.467C1558.53 628.547 1557.77 627.914 1556.11 628.296C1554.46 628.677 1549.97 629.495 1547.21 630.348C1546.82 630.438 1546.13 631.164 1546.29 631.209C1543.97 631.259 1544.7 627.9 1541.84 629.722C1540.9 630.313 1539.8 630.645 1538.69 630.677C1537.57 630.709 1536.48 630.44 1535.55 629.903C1534.53 629.706 1535.12 631.244 1534.67 631.592C1534.22 631.939 1533.25 631.325 1532.9 631.621C1532.11 632.265 1533.22 632.98 1531.99 633.317C1531.54 633.42 1530.59 633.128 1530.21 633.379C1529.82 633.63 1529.58 634.9 1529.32 635.041C1526.7 636.129 1524 637.04 1521.25 637.766C1520.47 637.299 1519.65 636.814 1519.47 637.829C1517.9 638.557 1516.4 639.426 1515.01 640.424C1512.26 641.302 1512.04 638.813 1508.7 639.853C1508.45 639.911 1507.6 640.616 1507.82 640.648C1505.94 640.729 1505.5 639.94 1504.23 639.962C1502.96 639.984 1502.39 641.089 1500.64 640.79C1500.64 640.79 1500.45 639.996 1499.74 639.972C1498.19 640.177 1496.63 639.943 1495.27 639.3C1493.32 638.093 1491.24 637.06 1489.06 636.218C1487.74 635.765 1486.72 636.057 1485.46 635.482C1485.07 635.328 1483.99 633.984 1483.7 633.888C1482.34 633.609 1480.61 634.196 1479.25 634.051C1477.88 633.906 1477.63 633.316 1476.56 633.293C1475.49 633.269 1472.71 635.423 1471.2 633.501C1470.99 633.764 1469.26 636.651 1467.6 636.872C1465.94 637.094 1467.25 639.33 1465.82 639.416C1465.52 639.398 1465.22 639.415 1464.92 639.464C1464.61 639.535 1461.52 641.897 1461.27 640.305C1457.41 641.52 1458.07 638.342 1455.92 638C1455.47 639.265 1455.01 638.046 1455.08 637.192C1454.07 637.425 1454.45 638.823 1453.23 638.915C1449.59 639.025 1450.05 635.513 1447.05 634.935C1447.42 635.011 1446.39 635.765 1446.12 635.772C1445.15 635.781 1445.53 635.015 1445.25 634.945C1443 634.654 1440.03 636.149 1437.16 636.026C1434.3 635.904 1432.99 634.854 1430 634.597C1428.66 634.908 1430.02 635.431 1430.02 635.431C1430.03 638.293 1429.29 635.87 1428.23 637.143C1427.93 637.509 1428.25 638.163 1427.33 637.998C1427.16 638.685 1426.43 638.852 1426.45 639.687C1424.52 641.565 1419.56 640.708 1419.26 644.046C1418.54 643.861 1418.36 643.31 1417.49 643.266C1415 643.137 1416.19 644.539 1413.92 643.414C1413.92 643.414 1413.59 641.978 1413.02 642.595C1412.45 643.212 1413.15 644.43 1411.22 644.305C1410.48 644.287 1410.35 643.479 1409.45 643.526C1409.45 643.526 1409.05 644.35 1408.52 644.389C1405.62 644.626 1400.05 643.264 1399.59 647.963C1396.1 648.47 1393.02 650.855 1388.81 649.15C1388.22 648.882 1387.57 646.574 1387.06 648.34C1388.09 648.479 1387.54 649.173 1387.04 649.18C1384.13 649.67 1381.17 649.526 1378.38 648.76C1375.6 647.994 1373.07 646.627 1371.01 644.77C1370.57 644.852 1370.12 644.803 1369.72 644.63C1369.32 644.456 1369 644.166 1368.8 643.804C1368.6 643.442 1368.53 643.027 1368.61 642.618C1368.69 642.209 1368.9 641.83 1369.23 641.534C1367.77 641.871 1367.69 640.778 1366.55 640.8C1365.39 641.444 1365.07 640.034 1364.76 639.996C1363.37 639.832 1363.25 640.859 1362.03 640.951C1362.03 640.951 1361.21 640.221 1361.05 640.176C1359.01 639.782 1357.43 641.416 1354.8 642.024C1355.08 641.959 1354.37 641.094 1353.9 641.23C1353.43 641.365 1353.24 642.841 1352.11 642.94C1350.4 643.065 1349.55 643.882 1348.49 643.775C1348.12 643.859 1346.08 641.925 1345.8 642.234C1345.62 642.52 1345.36 642.756 1345.04 642.91C1344.72 643.065 1344.37 643.131 1344.02 643.104C1341.24 642.609 1342.33 642.575 1339.56 643.242C1339.88 641.682 1337.45 642.32 1336.87 641.699C1336.28 641.077 1336.23 640.225 1335.08 640.112C1335.36 640.047 1334.64 641.404 1334.21 640.936C1333.33 639.837 1332.12 639.017 1330.71 638.581C1330.18 638.46 1329.56 637.6 1328.94 637.826C1328.71 637.878 1328.93 638.937 1328.01 638.663C1327.68 638.548 1328.04 637.898 1327.11 637.842C1325.58 637.494 1324.1 637.003 1322.69 636.375C1322.37 636.26 1321.12 636.737 1320.9 636.436C1320.06 635.494 1319.55 636.233 1318.21 635.677C1317.79 635.53 1317.63 634.191 1317.34 634.069C1317.05 633.948 1315.37 634.522 1314.64 634.151C1313.9 633.78 1314.67 633.387 1313.75 633.357C1311.33 633.172 1308.88 633.533 1306.6 634.41C1306.15 634.514 1306.03 635.92 1305.68 636.081C1304.81 636.501 1303.89 636.806 1302.93 636.985C1302.2 637.019 1302.1 636.826 1302.04 636.191C1299.17 637.313 1301.45 633.626 1298.47 634.691C1296.16 634.901 1296.29 634.438 1294.03 633.987C1293.09 633.796 1293.62 633.403 1293.13 633.193C1292.64 632.982 1289.6 632.603 1289.59 631.66C1289.44 629.504 1288.78 632.412 1285.97 631.763C1285.78 631.809 1285.8 630.994 1285.12 630.989C1284.43 630.984 1284.41 629.988 1284.24 629.378C1283.45 630.182 1278.54 631.317 1277.93 629.566C1273.1 629.787 1273.86 624.745 1268.18 625.758C1267.49 625.053 1267.18 623.963 1266.41 623.329C1266.09 623.079 1264.92 623.673 1264.62 623.391C1264.32 623.11 1264.91 621.972 1264.62 621.742C1263.19 620.666 1261.55 620.342 1260.15 619.395C1259.66 619.075 1260.31 618.657 1259.29 618.62C1257.69 618.611 1257.24 617.174 1255.79 616.265C1254.27 615.553 1252.78 614.767 1251.35 613.912C1252.08 611.58 1250.39 611.699 1249.6 610.693C1248.89 609.958 1248.29 609.134 1247.82 608.24C1245.32 608.367 1242.84 607.874 1240.66 606.81C1240.29 606.734 1239.82 605.707 1238.87 606.061C1238.61 606.12 1238.85 607.257 1237.97 606.919C1237.74 606.81 1238.19 605.436 1237.97 605.269C1237.27 604.648 1235.5 606.571 1234.41 606.226C1234.41 606.226 1234 605.59 1233.51 605.405C1232.89 605.198 1232.3 604.937 1231.74 604.626C1231.39 604.413 1231.09 604.144 1230.84 603.831C1227.92 603.142 1224.93 602.693 1221.9 602.489C1220.86 602.324 1220.18 601.157 1217.45 601.784C1216.33 602.043 1209.69 605.17 1208.51 600.442C1208.34 600.481 1204.11 602.267 1204.05 602.254C1202.03 600.018 1202.61 603.425 1200.48 601.511C1198.35 599.596 1193.13 601.826 1188.82 601.09C1188.82 601.09 1188.65 600.32 1187.93 600.296C1185.49 600.237 1186.46 598.933 1183.5 598.778C1183.01 598.567 1181.19 600.932 1180.94 600.477C1179.81 599.17 1179.35 600.276 1176.48 600.615C1174.95 600.779 1172.77 600.686 1171.1 600.773C1170.4 600.934 1170.25 601.674 1169.33 601.669C1169.08 601.727 1168.48 600.676 1167.52 600.896C1165.6 601.453 1163.8 602.336 1162.21 603.499C1160.67 602.315 1158.94 604.038 1156.86 604.517C1156.02 604.711 1155.02 604.372 1154.19 604.592C1153.35 604.812 1153.62 606.103 1153.3 606.283C1152.11 606.857 1150 606.071 1147.94 606.467C1147.94 606.467 1147.49 607.841 1147.04 607.322C1147.04 607.322 1147.09 606.5 1147.03 606.513C1145.21 606.505 1143.41 606.276 1141.67 605.83C1141.67 605.83 1138.19 605.203 1138.11 605.113C1138.03 605.023 1138.23 604.355 1138.13 604.297C1137.53 604.029 1136.07 603.962 1135.44 603.565C1134.82 603.169 1134.96 602.244 1134.54 601.937C1134.11 601.63 1130.97 601.219 1131.86 599.58C1130.06 600.213 1128.29 602.27 1126.5 600.547C1125.04 599.478 1121.91 599.985 1121.15 598.241C1118.02 597.477 1116.32 602.056 1114 599.295C1111.48 599.694 1108.93 599.188 1106.88 597.883C1106.8 601.388 1102.16 596.782 1100.62 599.705C1098.09 597.586 1099.27 602.718 1095.13 601.564C1092.44 602.725 1092.35 599.883 1091.63 599.185C1091.3 598.935 1090.14 599.527 1089.84 599.245C1089.12 598.573 1089.75 596.563 1088.1 596.945C1087.33 596.43 1086.4 596.162 1085.44 596.18C1085.27 596.219 1084.49 597.453 1084.5 596.208C1082.87 596.718 1082.22 595.056 1080.96 594.699C1080.35 594.514 1077.28 594.277 1077.37 594.013C1076.57 594.901 1076.92 594.117 1075.6 594.043C1074.28 593.969 1073.91 594.919 1073.77 594.926C1073.11 594.889 1072.82 594.28 1072.02 594.166C1069.98 593.772 1067.89 593.565 1065.79 593.549C1064.16 593.52 1063.86 594.4 1062.17 594.384C1060.48 594.368 1060.31 593.514 1058.58 593.672C1057.1 595.093 1056.26 597.072 1053.23 597.148C1051.56 595.56 1049.01 596.662 1046.97 596.538C1044.91 596.203 1042.81 596.001 1040.71 595.929C1040 595.931 1039.18 596.714 1037.96 596.807C1036.74 596.899 1037.43 596.064 1037.1 596.032C1034.76 596.7 1032.34 597.048 1029.92 597.066C1027.04 597.024 1024.26 596.265 1021.87 594.869C1020.12 597.273 1016.29 594.751 1013.83 595.128C1011.87 592.661 1009.67 593.385 1006.69 592.858C1006.69 592.858 1005.58 593.976 1004.91 593.753C1004.24 593.529 1004.22 592.183 1004.01 592.151C1000.91 591.541 997.447 593.178 994.211 591.708C994.241 594.404 991.575 592.072 989.698 594.316C989.155 593.117 987.846 594.364 987.909 594.376C986.345 594.007 986.159 592.944 984.424 592.857C983.795 593.338 983.06 593.68 982.276 593.861C981.492 594.042 980.68 594.056 979.905 593.9C979.633 592.719 977.314 593.686 977.265 592.319C977.069 591.472 975.029 591.726 974.535 592.407C972.262 592.932 972.442 589.999 971.904 589.204C971.08 588.08 970.18 587.005 969.211 585.987C968.607 585.288 967.95 585.386 967.488 584.411C967.417 584.103 967.714 582.954 967.464 582.768C967.214 582.583 965.247 583.279 964.792 582.844C964.337 582.408 965.097 581.478 964.796 581.196C963.165 580.34 961.332 579.839 959.432 579.731C959.432 579.731 959.107 578.319 958.54 578.936C957.961 579.467 957.239 579.842 956.456 580.023C955.672 580.204 954.858 580.182 954.105 579.959C953.823 579.889 953.096 579.3 953.162 579.204C951.044 579.624 948.966 580.229 946.958 581.013C946.677 581.077 946.946 581.987 946.028 581.847C945.803 581.899 945.995 580.937 945.169 581.073C942.791 581.53 940.394 581.877 937.987 582.109C936.558 582.195 936.441 581.303 935.311 581.402C934.181 581.5 933.654 582.676 930.876 582.425C931.016 582.392 930.563 581.064 929.956 581.637C928.05 583.887 927.954 581.423 925.484 580.966C925.015 580.857 924.193 581.264 923.717 580.995C922.655 580.619 922.118 579.957 921.026 579.452C919.934 578.947 917.05 578.747 914.779 578.001C913.586 577.573 912.84 576.773 911.205 576.475C909.704 576.324 908.219 576.089 906.756 575.771C906.248 578.185 905.38 574.549 904.046 575.046C903.279 574.412 903.526 572.787 902.36 572.732C902.022 573.188 899.544 574.109 898.781 572.853C896.474 572.466 894.277 572.678 891.638 572.259C891.47 572.298 891.461 571.489 890.746 571.465C888.572 571.398 887.057 571.748 885.392 570.808C883.726 569.868 883.763 571.183 879.961 570.979C879.961 570.979 879.772 570.156 879.091 570.151C876.136 570.157 872.644 572.45 870.154 571.268C868.067 571.317 866.323 569.909 864.804 568.962C863.982 568.476 862.749 568.894 862.122 568.228C861.496 567.562 861.943 566.296 861.221 565.733C859.688 566.519 859.743 569.452 857.633 567.479C855.522 565.507 854.019 566.936 850.481 566.076C849.792 565.911 849 564.527 848.717 564.457C847.652 564.324 844.914 567.064 841.566 567.16C842.258 564.649 839.672 566.379 839.768 566.411C834.345 565.716 828.129 563.502 822.812 563.648C822.251 563.777 821.64 561.513 821.033 562.085C819.25 563.712 820.134 562.293 818.344 561.327C817.153 560.521 815.1 562.643 814.752 562.156C813.913 561.214 812.056 562.263 811.186 561.437C810.218 560.58 808.966 560.045 807.612 559.91C807.612 559.91 807.293 558.524 806.72 559.116C805.297 560.768 803.724 558.943 801.365 558.459C800.689 558.345 798.237 558.991 797.793 558.607C797.35 558.223 797.902 557.799 797.778 557.774C795.562 557.319 793.45 556.547 791.516 555.487C791.291 555.538 789.517 556.948 788.767 556.391C787.471 555.258 787.51 556.194 785.195 556.539C784.493 556.701 784.288 557.477 783.415 557.409C782.542 557.34 781.444 556.297 778.953 557.547C776.126 554.388 770.446 556.806 767.329 555.47C764.907 556.245 765.764 553.939 763.777 553.911C762.59 553.888 763.523 552.809 762.876 552.31C762.229 551.81 759.929 551.583 760.175 552.392C759.204 551.397 758.333 550.323 757.572 549.181C756.656 548.285 755.186 548.19 754.866 546.804C753.563 546.024 752.349 547.682 752.119 547.709C751.473 547.857 750.747 546.892 749.527 546.984C749.723 546.939 748.787 547.748 748.596 547.819C746.688 548.259 746.22 547.259 744.997 547.082C743.167 546.746 741.381 546.253 739.661 545.61C738.713 545.342 736.855 546.257 736.049 545.713C735.244 545.169 736.314 543.654 735.204 544.099C733.743 542.76 729.919 543.615 727.12 543.531C726.919 542.658 725.375 543.012 725.369 541.96C724.933 541.222 724.553 540.474 723.584 540.373C723.36 537.479 720.237 542.524 720.013 539.629C718.101 538.773 716.448 538.911 714.649 538.164C714.061 537.921 713.362 536.811 712.864 536.575C712.366 536.338 711.32 536.93 711.074 536.635C710.111 535.533 711.113 534.626 709.304 534.341C708.121 534.285 706.933 534.317 705.748 534.433C705.748 534.433 705.703 533.471 704.855 533.639C704.659 533.684 704.814 534.486 703.959 534.494C703.103 534.502 702.36 534.485 702.161 533.748C699.737 531.955 696.272 531.159 694.16 529.052C693.121 529.292 693.417 530.574 693.231 531.563C692.489 531.012 691.543 530.739 690.572 530.798C689.591 530.646 689.984 529.149 688.814 529.203C689.799 531.678 682.828 528.881 681.639 530.263C681.033 530.97 680.603 532.692 678.949 532.83C677.954 532.871 677.152 535.164 676.229 536.16C675.306 537.157 674.177 537.904 673.562 538.695C673.07 541.051 672.406 539.581 670.819 539.623C669.61 539.843 668.411 540.119 667.227 540.452C666.862 540.536 666.082 541.257 666.24 541.302C664.226 541.415 664.328 539.418 662.728 539.787C662.139 539.923 662.124 541.655 660.934 541.497C659.855 540.789 658.644 540.263 657.354 539.944C657.635 539.88 656.925 540.775 656.458 540.801C655.991 540.828 655.481 540.027 655.565 540.007C653.723 540.425 651.929 541.028 650.216 541.807C650.618 543.552 645.146 540.842 643.073 541.212C643.073 541.212 642.851 542.047 642.182 542.093C638.9 542.495 635.596 542.596 632.319 542.395C630.599 542.116 631.124 541.833 627.834 542.564C627.554 542.629 626.263 542.414 626.068 542.594C624.79 544.105 625.329 541.954 624.291 541.814C623.254 541.675 622.782 543.73 621.593 543.572C621.593 543.572 619.611 542.03 618.933 542.807C618.255 543.585 616.481 543.967 613.553 543.832C611.165 543.734 609.688 544.507 608.213 544.009C607.501 543.741 607.091 541.835 606.442 541.715C604.61 540.948 601.869 541.5 600.208 539.424C597.425 539.147 597.786 541.737 595.729 542.049C596.078 543.563 592.822 542.261 592.137 542.878C591.451 543.495 590.853 543.85 588.52 544.631C588.52 544.631 588.165 546.039 587.624 545.488C587.083 544.937 586.729 544.424 585.848 544.708C585.399 544.812 585.257 546.248 584.96 546.371C584.019 546.777 582.578 545.273 582.284 545.665C581.301 546.784 581.475 545.229 579.606 545.714C577.59 546.516 575.35 546.599 573.333 545.946C571.499 545.558 571.883 545.686 568.837 546.064C565.791 546.442 562.756 545.331 559.039 545.621C556.27 544.638 557.918 548.581 555.465 548.201C555.465 548.201 555.169 546.918 554.573 547.407C554.328 547.625 555.925 549.041 554.578 549.866C554.192 550.117 553.209 549.829 552.788 549.926C552.367 550.023 552.138 550.697 551.863 550.788C550.488 551.105 548.885 548.638 549.122 551.718C547.058 551.432 544.939 551.5 542.871 551.917C542.19 551.912 541.897 550.897 541.073 551.168C540.82 551.226 541.082 551.977 540.176 552.023C539.271 552.07 537.664 552.281 537.518 551.261C534.805 551.292 535.077 553.498 532.217 553.915C529.809 553.832 527.412 553.626 525.039 553.299C524.386 553.287 522.505 555.127 522.361 553.35C521.278 554.167 519.865 554.195 518.812 555.141C518.545 555.392 519.138 556.552 518.808 556.79C518.033 557.402 516.519 556.858 517.016 558.5C515.928 558.4 515.416 558.869 515.179 559.383C513.508 557.904 511.727 560.18 509.821 560.376C507.915 560.573 507.532 559.553 506.261 559.684C504.991 559.815 504.289 561.003 502.701 561.424C501.113 561.844 500.181 561.518 499.081 562.259C497.407 566.536 493.282 568.649 489.219 570.775C486.45 570.306 487.475 570.26 484.758 570.913C484.61 570.272 483.865 570.118 483.856 569.31C483.847 568.501 482.962 568.895 482.972 569.325C482.446 570.121 480.505 570.676 482.063 571.02C482.589 571.763 484.58 572.197 482.964 572.624C480.807 570.959 481.083 571.518 477.61 571.967C475.25 571.349 475.996 573.554 474.028 573.738C473.691 573.815 470.481 575.664 470.433 576.351C470.358 577.692 470.351 579.073 469.541 579.665C469.176 579.749 467.979 579.431 467.746 579.701C467.513 579.971 467.906 580.392 467.699 580.521C467.492 580.65 466.256 580.288 465.91 580.584C465.565 580.88 466.654 581.629 466.831 581.372C465.312 583.37 466.01 581.019 463.252 581.493C463.252 581.493 463.047 582.27 462.362 582.374C461.676 582.478 458.502 583.454 458.778 582.471C455.337 584.345 456.958 580.865 452.539 581.83C449.496 581.451 448.6 583.331 447.233 584.457C446.546 584.427 446.379 583.574 445.463 583.704C445.249 583.764 445.052 583.874 444.895 584.024C444.737 584.174 444.624 584.359 444.567 584.559C443.593 584.568 444.041 583.817 443.669 583.74C442.693 583.614 442.168 585.438 441.11 585.466C439.141 585.515 437.857 582 433.97 583.221C432.679 583.519 432.29 584.014 430.382 582.535C429.411 584.732 426.593 583.409 425.07 585.138C424.453 585.794 424.36 587.572 423.23 587.67C422.1 587.769 422.959 590.083 421.452 590.214C419.945 590.345 421.15 591.339 420.571 591.905C419.992 592.471 419.003 591.643 418.776 591.939C418.076 592.749 418.771 592.942 417.855 593.585C417.531 593.849 416.333 593.396 416.071 593.672C415.81 593.949 416.084 595.777 414.278 595.383C413.009 594.621 411.79 596.253 411.537 596.311C410.772 596.325 410.168 595.249 408.848 595.553C408.427 595.65 406.598 598.613 403.371 597.439C400.818 599.189 400.593 602.7 396.162 602.587C396.923 605.114 393.831 604.395 393.442 605.917C393.054 607.439 389.233 605.995 388.977 607.702C386.983 609.568 385.348 610.945 383.597 612.835C382.456 614.044 382.18 613.486 380.929 615.369C381.205 614.9 382.117 615.906 381.822 616.164C381.119 616.704 380.091 616.86 379.973 617.887C376.793 618.458 374.595 618.153 370.153 619.016C370.133 620.21 373.896 621.532 370.164 621.501C366.801 619.737 367.139 624.279 365.638 624.949C365.301 625.027 364.082 624.741 363.871 624.979C363.66 625.217 364.357 627.083 363.861 627.495C363.365 627.907 362.264 627.24 362.093 627.523C361.361 628.448 361.936 630.045 360.253 630.055C357.074 631.278 353.783 632.211 350.429 632.836C350.009 634.473 347.445 632.714 345.933 632.954C344.422 633.195 343.715 634.357 342.357 634.751C340.002 634.538 340.053 636.553 339.637 638.081C336.481 637.215 335.688 639.801 334.33 640.709C333.738 641.089 333.491 640.661 333.434 641.566C333.296 643.787 329.412 640.789 329.867 644.17C328.335 645.604 326.941 644.304 325.371 644.288C324.425 644.29 324.811 643.525 324.506 643.487C323.339 643.297 322.353 645.687 320.911 646.1C317.892 646.628 314.902 647.317 311.957 648.165C309.676 649.297 307.276 650.197 304.8 650.844C303.932 653.747 301.477 654.123 299.434 655.134C298.985 655.238 298.274 656.131 297.626 656.011C296.977 655.89 297.636 654.902 296.733 655.218C296.341 655.309 296.164 656.727 295.851 656.907C294.193 657.668 290.042 657.356 286.881 658.004C285.017 658.893 284.62 660.12 282.43 660.625C279.371 661.331 275.527 659.919 273.494 661.739C272.774 662.337 272.512 664.532 269.864 664.332C269.289 664.275 268.903 663.366 268.111 663.521C266.511 663.89 264.677 664.016 262.73 664.546C260.783 665.076 259.95 666.08 258.264 666.333C256.193 666.559 254.111 666.621 252.041 666.523C252.041 666.523 251.794 667.501 251.145 667.381C250.914 667.058 250.609 666.787 250.252 666.586C249.337 666.338 248.499 666.8 248.454 665.837C246.861 665.853 246.875 667.58 245.73 668.385C245.172 668.784 243.678 668.076 243.058 668.462C242.438 668.848 243.266 670.52 242.17 670.124C239.371 669.013 237.217 670.565 234.976 672C234.353 672.631 230.611 674.223 231.416 671.308C229.839 671.131 229.602 672.158 230.52 672.163C230.455 673.421 229.53 672.23 229.614 672.211C228.936 672.3 228.305 672.609 227.834 673.081C227.32 673.416 228.005 673.823 226.943 673.96C225.432 674.134 223.942 674.478 222.508 674.983C222.066 676.274 219.701 675.631 220.677 678.325C219.887 679.128 218.642 679.118 217.084 679.153C217.336 679.095 216.602 677.832 216.192 678.359C214.775 680.037 213.331 678.775 210.824 678.543C210.571 678.601 209.351 679.72 209.044 679.413C208.736 679.105 209.172 677.788 209.048 677.763C207.008 677.504 205.595 679.453 202.799 679.638C200.876 679.757 200.432 678.86 199.228 678.894C198.554 679.05 198.26 679.954 197.426 679.795C197.173 679.853 197.477 678.864 196.533 679.001C195.589 679.137 195.111 680.14 193.785 679.905C192.084 678.297 188.338 678.46 185.768 677.701C181.039 677.062 183.535 682.891 178.584 682.06C178.084 682.719 177.392 683.236 176.594 683.55C175.795 683.864 174.923 683.961 174.085 683.828C171.553 683.358 171.11 685.54 169.612 686.48C169.191 686.577 168.294 686.406 167.845 686.51C166.806 686.749 167.513 686.991 166.949 687.365C166.384 687.738 165.648 688.772 165.156 689.075C163.863 689.751 162.218 689.158 160.664 690.111C160.384 690.175 160.984 691.496 160.66 691.76C159.902 692.448 157.099 691.312 158.091 693.435C154.567 693.41 158.381 694.692 156.279 695.96C153.486 696.902 150.789 698.094 148.23 699.519C147.19 697.057 147.261 700.824 149.124 700.313C148.75 703.561 142.104 701.284 141.94 704.673C138.094 704.533 138.461 708.176 135.661 708.984C133.562 708.468 131.135 709.866 128.499 709.204C129.374 709.408 123.886 705.863 122.252 707.753C122.252 707.753 122.435 708.55 122.261 708.563C121.616 708.712 121.228 707.801 121.368 707.768C120.028 708.048 118.788 708.671 117.792 709.565C117.088 709.971 115.02 710.365 115.081 711.27C115.142 712.175 113.31 711.409 111.488 712.099C110.391 712.595 110.008 713.495 108.931 713.824C108.159 716.245 106.712 712.796 104.469 713.963C103.687 714.548 103.933 716.383 102.656 716.489C100.16 716.686 101.351 717.491 99.967 719.054C98.674 720.88 97.172 722.577 95.4879 724.114C94.3606 724.822 93.1615 725.424 91.9106 725.911C91.4896 726.008 92.0765 726.629 91.0142 726.766C87.5836 727.017 84.3974 727.941 83.8401 731.935C82.4555 731.935 81.0914 732.354 79.9566 733.129C78.8218 733.903 77.9787 734.99 77.5563 736.222C74.5248 736.921 71.0311 737.023 69.3313 739.009C66.9954 738.494 67.6339 740.752 66.6634 741.544C65.6661 740.936 64.5403 742.979 63.9269 742.499C63.9269 742.499 61.9736 740.951 61.2174 741.773C61.0209 741.819 61.5727 743.313 61.2137 743.423C60.1189 743.675 58.7349 743.184 57.6579 743.513C56.5811 743.843 56.0376 744.562 55.8689 743.574C53.787 743.648 53.2255 742.238 50.5146 742.917C49.3022 744.197 47.8759 743.526 46.0234 743.953C45.8269 743.998 45.9587 744.697 45.1269 744.808C44.2389 744.73 43.3402 744.748 42.4483 744.859C42.4483 744.859 42.6259 745.628 42.4634 745.693C39.5439 746.245 36.5627 746.329 33.6522 745.941C32.0224 745.668 28.102 745.978 28.3198 742.82C27.3031 742.514 25.7381 743.416 24.742 742.943C24.346 742.764 24.1619 741.454 23.84 741.339C23.5178 741.224 22.6335 741.619 22.0513 741.402C22.0513 741.402 19.4321 740.682 19.3922 740.637C19.3523 740.592 19.4837 739.884 19.3758 739.801C18.7419 739.488 18.1755 738.566 17.5917 738.214C17.008 737.862 14.7353 737.493 13.1334 736.701C12.6694 736.483 13.2765 735.913 12.2407 735.909C11.0648 735.798 9.87129 735.845 8.69688 736.05C8.33195 736.134 7.59147 736.899 7.7599 736.86C7.08618 737.016 6.91189 736 5.98992 736.105C5.0682 736.209 4.5662 737.622 1.50208 737.923C0.318645 737.886 -0.869008 737.919 -2.05415 738.016C-1.9138 737.984 -2.46582 739.435 -2.95062 738.871C-4.10793 737.571 -4.16731 738.852 -5.61825 738.971C-6.34939 739.004 -6.56589 739.732 -7.45386 739.856C-10.1291 740.17 -12.8204 740.257 -15.4936 740.115C-17.791 740.023 -18.9503 738.587 -21.7321 739.472C-23.3563 738.198 -21.0689 736.834 -23.4878 735.446C-24.559 736.124 -25.8488 736.421 -27.1088 736.281C-26.6828 738.128 -28.8003 737.534 -28.8871 738.825C-31.5745 739.093 -34.1987 741.429 -38.72 740.796C-39.5582 740.476 -40.4678 740.327 -41.388 740.358C-42.3082 740.388 -43.2187 740.598 -44.0594 740.974C-44.2278 741.012 -44.4008 741.673 -45.0183 741.815C-47.7975 741.899 -50.5395 741.427 -53.0543 740.427C-54.6471 739.93 -55.4186 740.431 -56.6199 739.708C-57.2435 739.311 -57.1847 738.027 -58.3488 738.106C-60.6996 737.27 -62.6647 737.21 -64.5961 736.655C-65.8254 736.51 -67.0365 736.276 -68.2175 735.951C-68.5677 735.843 -69.6864 734.453 -69.9405 734.376C-73.2131 734.258 -76.5003 734.357 -79.7761 734.672C-78.8564 732.379 -82.4439 734.124 -83.344 733.17C-84.2441 732.215 -82.9462 731.565 -84.2241 731.535C-85.5022 731.505 -85.8616 731.102 -86.9122 730.777C-89.8038 729.903 -93.8917 730.764 -95.841 728.592C-97.5533 729.374 -99.3443 729.987 -101.184 730.419C-101.56 730.625 -101.87 730.921 -102.081 731.274C-103.035 731.494 -104.456 730.2 -104.824 730.528C-105.859 731.551 -105.53 731.827 -107.383 732.254C-109.235 732.681 -112.054 732.899 -114.531 733.308C-115.121 733.444 -115.566 734.331 -116.304 734.204C-117.043 734.078 -116.265 733.222 -117.197 733.41C-118.129 733.598 -118.532 734.286 -119.945 734.314C-121.357 734.343 -121.916 733.715 -123.533 733.628C-126.82 733.809 -130.106 733.661 -133.332 733.185C-134.353 731.962 -135.875 731.259 -137.014 730.036C-138.737 730.574 -140.524 730.895 -142.323 730.989C-142.358 730.835 -142.782 730.15 -143.265 730.234C-143.748 730.319 -144.135 733.001 -146.876 732.011C-147.839 731.992 -148.768 731.729 -149.563 731.253C-151.034 730.511 -150.666 730.185 -153.102 729.747C-153.999 729.575 -153.515 729.112 -153.995 728.952C-155.81 728.568 -157.592 728.076 -159.33 727.48C-159.726 727.301 -160.834 725.961 -161.116 725.891C-161.398 725.821 -165.816 726.786 -166.483 726.075C-167.407 725.018 -167.802 725.866 -170.951 726.187C-172.446 726.369 -173.906 726.192 -175.407 726.349C-176.379 729.952 -180.358 728.979 -182.592 729.035C-184.078 729.261 -185.582 729.325 -187.071 729.228C-187.1 729.1 -186.967 728.393 -187.035 728.355C-187.103 728.316 -188.607 728.719 -188.824 728.418C-189.041 728.116 -188.731 727.667 -188.839 727.584C-188.947 727.501 -190.411 727.947 -190.622 727.671C-190.834 727.395 -190.507 726.886 -190.638 726.835C-190.768 726.784 -192.153 727.186 -192.427 726.898C-193.013 726.277 -192.028 725.291 -193.3 725.288C-194.261 725.256 -195.187 724.995 -195.988 724.529C-196.633 724.165 -196.834 722.914 -197.74 722.961C-198.645 723.007 -199.162 724.099 -200.488 723.865C-201.018 723.744 -201.324 723.056 -201.358 723.037C-203.46 722.967 -205.548 722.772 -207.612 722.453C-208.007 722.274 -207.531 721.65 -208.532 721.665C-209.607 721.45 -210.586 720.965 -211.362 720.263C-212.139 719.561 -212.685 718.668 -212.939 717.682C-213.493 717.343 -214.1 717.084 -214.743 716.911C-215.037 716.789 -216.316 717.272 -216.511 716.938C-217.098 716.317 -217.725 716.031 -218.296 715.352C-219.977 713.442 -221.422 716.667 -224.556 714.741C-226.068 711.901 -226.378 716.837 -228.137 716.514C-228.321 715.718 -232.091 715.263 -233.473 715.042C-237.616 714.438 -241.88 714.585 -246.026 715.476C-247.515 715.685 -247.962 716.436 -249.618 716.305C-250.395 716.268 -250.984 715.512 -252.238 715.585C-252.238 715.585 -252.674 716.389 -253.169 716.422C-255.935 716.355 -258.656 715.887 -261.233 715.038C-260.952 714.973 -261.653 716.296 -262.108 715.86C-262.563 715.425 -261.847 714.557 -262.104 714.211C-262.61 714.706 -263.23 714.714 -263.878 715.107C-264.733 715.559 -265.66 715.873 -266.619 716.035C-267.462 716.23 -267.218 716.77 -267.515 716.893C-270.404 718.041 -273.617 718.144 -276.495 717.18C-276.846 717.071 -276.392 716.345 -277.388 716.385C-278.384 716.426 -279.504 718.36 -280.91 716.496C-281.395 715.932 -280.644 714.703 -281.812 714.892C-284.052 713.895 -285.522 717.396 -286.308 715.01C-288.094 714.827 -288.049 712.844 -289.807 712.655C-291.356 712.77 -292.884 713.122 -294.326 713.697C-295.028 713.859 -295.167 714.541 -296.084 714.536C-297.002 714.532 -296.921 713.729 -297.849 713.808C-297.652 713.762 -298.335 715.162 -298.78 714.643C-299.989 713.246 -302.86 714.125 -306.801 714.088C-307.119 714.384 -307.525 714.585 -307.963 714.662C-308.401 714.739 -308.848 714.687 -309.243 714.516C-309.638 714.345 -309.96 714.063 -310.164 713.707C-310.368 713.352 -310.444 712.942 -310.381 712.535C-314.099 716.284 -319.804 715.007 -324.689 715.485C-326.489 715.63 -326.993 716.26 -328.254 716.308C-328.301 716.102 -328.83 715.089 -329.202 715.526C-329.202 715.526 -329.037 716.244 -329.187 716.36C-329.406 716.325 -329.609 716.236 -329.775 716.103C-329.94 715.97 -330.063 715.799 -330.13 715.604C-332.613 715.988 -334.16 717.101 -336.335 717.413C-337.349 717.377 -541.244 665.874 -542.118 665.67L-354.49 15.5643L1925.3 0.228475Z" fill="#FBEBE8"/>
</svg>
